<svg width="21" height="20" viewBox="0 0 21 20" fill="none" xmlns="http://www.w3.org/2000/svg">
<path d="M19.5457 5.05863L19.5457 5.05862L6.17891 3.51145L6.02092 2.76303L6.02085 2.7627C5.90797 2.23669 5.61443 1.76497 5.18977 1.42611C4.76515 1.08728 4.23506 0.901706 3.68806 0.9H3.68775H1.52778C1.36192 0.9 1.20247 0.964551 1.08459 1.08008C0.966641 1.19567 0.9 1.35288 0.9 1.51724C0.9 1.68161 0.966641 1.83882 1.08459 1.95441C1.20247 2.06994 1.36192 2.13449 1.52778 2.13449H3.68759C3.94719 2.13533 4.1984 2.22344 4.39927 2.38373C4.6001 2.54398 4.73839 2.76658 4.79156 3.01413C4.79157 3.01418 4.79159 3.01424 4.7916 3.0143L7.03531 13.6426C7.06475 13.7821 7.14229 13.907 7.25435 13.9965C7.36637 14.0859 7.50611 14.1345 7.65 14.1345L18.8389 14.1346C19.0047 14.1346 19.1642 14.07 19.2821 13.9545C19.4 13.8389 19.4667 13.6817 19.4667 13.5173C19.4667 13.353 19.4 13.1957 19.2821 13.0802C19.1642 12.9646 19.0047 12.9001 18.8389 12.9001L8.16084 12.9L7.92749 11.7945H17.4667C17.5957 11.7945 17.7218 11.7554 17.8276 11.6823C17.9334 11.6092 18.0139 11.5056 18.0577 11.3854L20.0632 5.87976C20.0951 5.79218 20.1065 5.69861 20.0964 5.60604C20.0864 5.51347 20.0552 5.42444 20.0052 5.34555C19.9553 5.26667 19.888 5.2 19.8085 5.15038C19.7289 5.10077 19.6391 5.06945 19.5457 5.05863ZM7.02162 17.0515V17.0516C7.02161 17.4572 7.14433 17.8535 7.37401 18.1904C7.60367 18.5273 7.9299 18.7895 8.3112 18.9443C8.69248 19.0991 9.11192 19.1396 9.51656 19.0607C9.92121 18.9818 10.2932 18.7871 10.5853 18.5008C10.8775 18.2144 11.0767 17.8494 11.1574 17.4517C11.2381 17.0539 11.1967 16.6417 11.0384 16.2672C10.8801 15.8926 10.6122 15.5729 10.2688 15.3481C9.92549 15.1232 9.52207 15.0034 9.10954 15.0034H9.10943C8.55655 15.004 8.0261 15.2195 7.63455 15.6033C7.24293 15.9871 7.02226 16.5079 7.02162 17.0515ZM17.3794 15.0034H17.3793C16.9668 15.0034 16.5634 15.1232 16.2201 15.3481C15.8767 15.5729 15.6088 15.8926 15.4505 16.2672C15.2922 16.6417 15.2508 17.0539 15.3315 17.4517C15.4122 17.8494 15.6114 18.2144 15.9036 18.5008C16.1957 18.7871 16.5677 18.9818 16.9723 19.0607C17.377 19.1396 17.7964 19.0991 18.1777 18.9443C18.559 18.7895 18.8852 18.5273 19.1149 18.1904C19.3446 17.8535 19.4673 17.4572 19.4673 17.0516V17.0515C19.4666 16.5079 19.2459 15.9871 18.8543 15.6033C18.4628 15.2195 17.9323 15.004 17.3794 15.0034ZM7.66687 10.56L6.4479 4.78568L18.6151 6.19398L17.0246 10.5601L7.66687 10.56ZM9.94203 17.0518C9.94201 17.2122 9.89347 17.3693 9.80228 17.503C9.71106 17.6368 9.58119 17.7414 9.42885 17.8033C9.2765 17.8651 9.10874 17.8814 8.94687 17.8498C8.78501 17.8183 8.6366 17.7404 8.5203 17.6265C8.40403 17.5125 8.32507 17.3676 8.2931 17.2101C8.26113 17.0527 8.27751 16.8894 8.34024 16.741C8.40299 16.5925 8.5094 16.4652 8.64632 16.3756C8.78323 16.2859 8.9444 16.2379 9.10944 16.2379C9.3308 16.2381 9.54264 16.3244 9.69857 16.4772C9.85444 16.63 9.94175 16.8366 9.94203 17.0518ZM17.3792 17.8655C17.2142 17.8655 17.053 17.8175 16.9161 17.7279C16.7791 17.6382 16.6727 17.511 16.61 17.3625C16.5472 17.2141 16.5308 17.0508 16.5628 16.8934C16.5947 16.7359 16.6737 16.5909 16.7899 16.477C16.9062 16.363 17.0546 16.2852 17.2165 16.2536C17.3783 16.222 17.5461 16.2382 17.6985 16.3001C17.8508 16.3619 17.9807 16.4665 18.0719 16.6003C18.1631 16.734 18.2117 16.8911 18.2117 17.0515C18.2115 17.2667 18.1242 17.4733 17.9683 17.6261C17.8124 17.7789 17.6006 17.8652 17.3792 17.8655Z" fill="white" stroke="white" stroke-width="0.2"/>
</svg>
