<svg width="30" height="30" viewBox="0 0 30 30" fill="none" xmlns="http://www.w3.org/2000/svg">
<path fill-rule="evenodd" clip-rule="evenodd" d="M5 15.0559C5 20.0279 8.61111 24.162 13.3333 25L13.389 24.9552C13.3704 24.9516 13.3518 24.9479 13.3331 24.9442V17.8492H10.8331V15.0559H13.3331V12.8213C13.3331 10.3073 14.9442 8.91064 17.222 8.91064C17.9442 8.91064 18.722 9.02238 19.4442 9.13411V11.7039H18.1665C16.9442 11.7039 16.6665 12.3185 16.6665 13.1006V15.0559H19.3331L18.8887 17.8492H16.6665V24.9442C16.648 24.9479 16.6294 24.9516 16.6109 24.9552L16.6667 25C21.3889 24.162 25 20.0279 25 15.0559C25 9.52514 20.5 5 15 5C9.5 5 5 9.52514 5 15.0559Z" fill="#808080"/>
</svg>
