<svg width="30" height="30" viewBox="0 0 30 30" fill="none" xmlns="http://www.w3.org/2000/svg">
<path d="M15.0009 5C12.2851 5 11.9442 5.01188 10.8776 5.06042C9.81297 5.10917 9.08629 5.27771 8.45045 5.525C7.79274 5.78042 7.23481 6.12208 6.67898 6.67813C6.12272 7.23396 5.78105 7.79187 5.5248 8.44937C5.27688 9.08542 5.10813 9.81229 5.06021 10.8765C5.0125 11.9431 5 12.2842 5 15C5 17.7158 5.01208 18.0556 5.06042 19.1223C5.10938 20.1869 5.27792 20.9135 5.52501 21.5494C5.78063 22.2071 6.1223 22.765 6.67835 23.3208C7.23398 23.8771 7.7919 24.2196 8.4492 24.475C9.08546 24.7223 9.81234 24.8908 10.8767 24.9396C11.9434 24.9881 12.284 25 14.9997 25C17.7158 25 18.0556 24.9881 19.1222 24.9396C20.1868 24.8908 20.9143 24.7223 21.5506 24.475C22.2081 24.2196 22.7652 23.8771 23.3208 23.3208C23.8771 22.765 24.2187 22.2071 24.475 21.5496C24.7208 20.9135 24.8896 20.1867 24.9396 19.1225C24.9875 18.0558 25 17.7158 25 15C25 12.2842 24.9875 11.9433 24.9396 10.8767C24.8896 9.81208 24.7208 9.08542 24.475 8.44958C24.2187 7.79187 23.8771 7.23396 23.3208 6.67813C22.7646 6.12188 22.2083 5.78021 21.55 5.525C20.9125 5.27771 20.1854 5.10917 19.1208 5.06042C18.0541 5.01188 17.7145 5 14.9978 5H15.0009ZM14.1038 6.80208C14.3701 6.80167 14.6672 6.80208 15.0009 6.80208C17.671 6.80208 17.9874 6.81167 19.0418 6.85958C20.0168 6.90417 20.546 7.06708 20.8985 7.20396C21.3652 7.38521 21.6979 7.60187 22.0477 7.95187C22.3977 8.30187 22.6143 8.63521 22.796 9.10187C22.9329 9.45396 23.096 9.98312 23.1404 10.9581C23.1883 12.0123 23.1987 12.329 23.1987 14.9977C23.1987 17.6665 23.1883 17.9831 23.1404 19.0373C23.0958 20.0123 22.9329 20.5415 22.796 20.8935C22.6148 21.3602 22.3977 21.6925 22.0477 22.0423C21.6977 22.3923 21.3654 22.609 20.8985 22.7902C20.5464 22.9277 20.0168 23.0902 19.0418 23.1348C17.9876 23.1827 17.671 23.1931 15.0009 23.1931C12.3307 23.1931 12.0142 23.1827 10.9601 23.1348C9.98505 23.0898 9.45588 22.9269 9.10317 22.79C8.6365 22.6087 8.30316 22.3921 7.95316 22.0421C7.60315 21.6921 7.38648 21.3596 7.20481 20.8927C7.06794 20.5406 6.90481 20.0115 6.86044 19.0365C6.81252 17.9823 6.80294 17.6656 6.80294 14.9952C6.80294 12.3248 6.81252 12.0098 6.86044 10.9556C6.90502 9.98063 7.06794 9.45146 7.20481 9.09896C7.38607 8.63229 7.60315 8.29896 7.95316 7.94896C8.30316 7.59896 8.6365 7.38229 9.10317 7.20062C9.45567 7.06312 9.98505 6.90063 10.9601 6.85583C11.8826 6.81417 12.2401 6.80167 14.1038 6.79958V6.80208ZM20.3389 8.4625C19.6764 8.4625 19.1389 8.99937 19.1389 9.66208C19.1389 10.3246 19.6764 10.8621 20.3389 10.8621C21.0014 10.8621 21.5389 10.3246 21.5389 9.66208C21.5389 8.99958 21.0014 8.46208 20.3389 8.46208V8.4625ZM15.0009 9.86458C12.1649 9.86458 9.86547 12.164 9.86547 15C9.86547 17.836 12.1649 20.1344 15.0009 20.1344C17.837 20.1344 20.1356 17.836 20.1356 15C20.1356 12.164 17.8368 9.86458 15.0007 9.86458H15.0009ZM15.0009 11.6667C16.8418 11.6667 18.3343 13.159 18.3343 15C18.3343 16.8408 16.8418 18.3333 15.0009 18.3333C13.1599 18.3333 11.6676 16.8408 11.6676 15C11.6676 13.159 13.1599 11.6667 15.0009 11.6667Z" fill="#808080"/>
</svg>
