<svg width="403" height="46" viewBox="0 0 403 46" fill="none" xmlns="http://www.w3.org/2000/svg">
<path d="M154.132 39.9825C144.688 39.9825 137.033 32.3271 137.033 22.8834C137.033 13.4398 144.688 5.78434 154.132 5.78434C163.575 5.78434 171.231 13.4398 171.231 22.8834C171.231 32.3271 163.575 39.9825 154.132 39.9825ZM154.132 3.8147e-05C141.494 3.8147e-05 131.249 10.2453 131.249 22.8834C131.249 35.5215 141.494 45.7668 154.132 45.7668C166.771 45.7668 177.015 35.5215 177.015 22.8834C177.015 10.2453 166.771 3.8147e-05 154.132 3.8147e-05Z" fill="#231F20"/>
<path d="M94.7218 19.9955V6.45032H114.071V0.666023H88.9375V45.1091H94.7218V25.7798H114.071V19.9955H94.7218Z" fill="#231F20"/>
<path d="M220.541 0.666023H195.44V45.1091H201.223V6.45032H220.541V0.666023Z" fill="#231F20"/>
<path d="M238.354 0.666023V45.1091H244.139V6.45032H266.267V45.1091H272.053V6.45032H294.182V45.1091H299.966V0.666023H238.354Z" fill="#231F20"/>
<path d="M403 0.666023H371.21V6.45032H384.212V45.1091H389.998V6.45032H403V0.666023Z" fill="#231F20"/>
<path d="M317.723 45.1091H324.006L339.716 8.07551L355.427 45.1091H361.71L342.864 0.657799L336.575 0.670036L317.723 45.1091Z" fill="#231F20"/>
<path d="M25.1369 0.609524H0V25.7466H5.79232V6.40184H25.1369V0.609524Z" fill="#231F20"/>
<path d="M44.443 19.9156H19.3062V45.0525H25.0985V25.7079H44.443V19.9156Z" fill="#231F20"/>
</svg>
