<svg width="20" height="20" viewBox="0 0 20 20" fill="none" xmlns="http://www.w3.org/2000/svg">
<path d="M10.0003 11.4128C10.7832 11.4128 11.5485 11.1806 12.1995 10.7457C12.8504 10.3107 13.3578 9.69251 13.6573 8.96922C13.9569 8.24593 14.0353 7.45004 13.8826 6.6822C13.7299 5.91436 13.3529 5.20905 12.7993 4.65546C12.2457 4.10188 11.5404 3.72489 10.7726 3.57215C10.0047 3.41942 9.20883 3.49781 8.48554 3.79741C7.76225 4.097 7.14404 4.60435 6.70909 5.2553C6.27414 5.90624 6.04199 6.67155 6.04199 7.45443C6.04807 8.50237 6.46705 9.50566 7.20807 10.2467C7.94909 10.9877 8.95238 11.4067 10.0003 11.4128ZM10.0003 5.34795C10.4169 5.34795 10.8242 5.47149 11.1706 5.70295C11.517 5.93442 11.787 6.2634 11.9465 6.64831C12.1059 7.03322 12.1476 7.45677 12.0663 7.86538C11.9851 8.274 11.7844 8.64934 11.4898 8.94394C11.1952 9.23853 10.8199 9.43916 10.4113 9.52044C10.0027 9.60171 9.57912 9.56 9.19421 9.40056C8.8093 9.24113 8.48031 8.97114 8.24885 8.62473C8.01739 8.27832 7.89384 7.87105 7.89384 7.45443C7.89384 6.89576 8.11578 6.35996 8.51082 5.96492C8.90586 5.56988 9.44165 5.34795 10.0003 5.34795Z" fill="white"/>
<path d="M3.91157 11.8981L9.99953 20L16.0875 11.9213C17.0829 10.6453 17.6209 9.07201 17.6153 7.4537C17.6153 3.33333 14.1893 0 9.99953 0C5.80972 0 2.38379 3.33333 2.38379 7.4537C2.38331 9.06408 2.92105 10.6284 3.91157 11.8981ZM4.23564 7.4537C4.23564 4.35185 6.82823 1.85185 9.99953 1.85185C13.1708 1.85185 15.7634 4.35185 15.7634 7.4537C15.7636 8.65955 15.3648 9.83156 14.6292 10.787L15.3699 11.3426L14.6292 10.787L9.99953 16.9213L5.3699 10.787L4.62916 11.3426L5.3699 10.787C4.63429 9.83156 4.23548 8.65955 4.23564 7.4537Z" fill="white"/>
</svg>
