<svg width="20" height="21" viewBox="0 0 20 21" fill="none" xmlns="http://www.w3.org/2000/svg">
<path d="M10.1747 0.416338L10.1745 0.416307C9.01915 0.25586 7.84148 0.376005 6.73702 0.76689C5.63256 1.15777 4.63249 1.80834 3.81776 2.66567C3.00304 3.52299 2.39655 4.56297 2.04732 5.70124C1.6981 6.8395 1.61591 8.04418 1.80745 9.21764C1.999 10.3911 2.45891 11.5005 3.15008 12.4557C3.84126 13.411 4.74426 14.1853 5.78598 14.7156C6.82771 15.246 7.97872 15.5174 9.14563 15.5078C10.2835 15.4984 11.4051 15.2221 12.424 14.7009L16.0968 19.8736L16.1577 19.9594L16.2403 19.8942L17.7055 18.7375L17.78 18.6787L17.7252 18.6013L14.1146 13.4978C15.1378 12.5395 15.8804 11.3095 16.2577 9.94635C16.6429 8.55462 16.6315 7.0818 16.2247 5.70123C15.8178 4.32063 15.0324 3.08957 13.9606 2.15316C12.8888 1.21674 11.5753 0.614066 10.1747 0.416338ZM6.72914 2.83653C7.71692 2.34867 8.82211 2.17016 9.90502 2.32332C11.3571 2.52869 12.6668 3.31536 13.5457 4.51099C14.4246 5.7067 14.8007 7.21348 14.5905 8.69987C14.4337 9.80829 13.959 10.8462 13.2265 11.6823C12.494 12.5184 11.5369 13.115 10.4763 13.3972C9.41568 13.6794 8.29904 13.6345 7.26744 13.2683C6.23582 12.9021 5.33527 12.2309 4.67982 11.3393C4.02436 10.4476 3.64349 9.37556 3.58571 8.25858C3.52793 7.14159 3.79587 6.03019 4.35554 5.065C4.91521 4.09982 5.74133 3.32441 6.72914 2.83653Z" fill="white" stroke="white" stroke-width="0.2"/>
</svg>
