<svg width="30" height="30" viewBox="0 0 30 30" fill="none" xmlns="http://www.w3.org/2000/svg">
<path fill-rule="evenodd" clip-rule="evenodd" d="M23.0559 10.4797C23.0631 10.6776 23.0654 10.8755 23.0654 11.0734C23.0654 17.0734 19.1449 24 11.9755 24C9.77322 24 7.7254 23.2444 6 21.958C6.30499 21.994 6.61475 22.021 6.92925 22.021C8.75526 22.021 10.4371 21.2923 11.7711 20.0689C10.0655 20.0419 8.62534 18.7195 8.12864 16.9204C8.36709 16.9744 8.61265 17.0015 8.86378 17.0015C9.21789 17.0015 9.5617 16.9476 9.89125 16.8396C8.10644 16.4258 6.7621 14.5908 6.7621 12.3869C6.7621 12.3599 6.7621 12.3509 6.7621 12.3329C7.28811 12.6657 7.89017 12.8725 8.52947 12.8995C7.48219 12.0809 6.79377 10.6866 6.79377 9.11241C6.79377 8.28482 6.98548 7.50218 7.32295 6.82752C9.24482 9.58014 12.1181 11.3883 15.3574 11.5772C15.2909 11.2443 15.2568 10.8936 15.2568 10.5428C15.2568 8.03303 17.002 6 19.1552 6C20.2761 6 21.2885 6.5488 21.9991 7.43036C22.8888 7.23246 23.7222 6.85468 24.4764 6.33294C24.184 7.39441 23.5669 8.28478 22.7604 8.8425C23.5495 8.73455 24.3021 8.49186 25 8.13204C24.4764 9.04058 23.8172 9.84106 23.0559 10.4797Z" fill="#1EA1F2"/>
</svg>
