<svg width="30" height="30" viewBox="0 0 30 30" fill="none" xmlns="http://www.w3.org/2000/svg">
<path fill-rule="evenodd" clip-rule="evenodd" d="M22.8253 8.42824C23.682 8.65882 24.3574 9.33412 24.5881 10.1906C25.0164 11.7553 24.9999 15.0165 24.9999 15.0165C24.9999 15.0165 24.9999 18.2612 24.5881 19.8259C24.3574 20.6824 23.682 21.3576 22.8253 21.5882C21.2602 22 15 22 15 22C15 22 8.75616 22 7.17462 21.5718C6.31795 21.3412 5.6425 20.6659 5.41186 19.8094C5 18.2612 5 15 5 15C5 15 5 11.7553 5.41186 10.1906C5.6425 9.33412 6.33443 8.64235 7.17462 8.41177C8.73969 8 15 8 15 8C15 8 21.2602 8 22.8253 8.42824ZM18 15L13 18V12L18 15Z" fill="#FF0000"/>
</svg>
