<svg width="16" height="17" viewBox="0 0 16 17" fill="none" xmlns="http://www.w3.org/2000/svg">
<path d="M0.896894 15.7103C0.782706 15.7102 0.671091 15.6763 0.576144 15.6129C0.481196 15.5495 0.407174 15.4593 0.363425 15.3539C0.319675 15.2484 0.308161 15.1323 0.330335 15.0203C0.352509 14.9083 0.407376 14.8053 0.48801 14.7245L14.6931 0.519152C14.8023 0.414871 14.9479 0.357448 15.0988 0.359168C15.2498 0.360889 15.3941 0.421616 15.5008 0.528358C15.6075 0.6351 15.6683 0.779379 15.67 0.930325C15.6717 1.08127 15.6143 1.22689 15.51 1.33604L1.30489 15.5414C1.25136 15.595 1.18776 15.6376 1.11775 15.6665C1.04773 15.6955 0.972673 15.7104 0.896894 15.7103Z" fill="black"/>
<path d="M2.93329 5.89743C2.35314 5.89743 1.78602 5.72539 1.30364 5.40307C0.821266 5.08075 0.445299 4.62263 0.223285 4.08663C0.00127157 3.55064 -0.0568182 2.96084 0.0563634 2.39183C0.169545 1.82282 0.448915 1.30015 0.859143 0.889917C1.26937 0.479683 1.79203 0.200309 2.36103 0.087126C2.93004 -0.0260573 3.51982 0.0320333 4.05581 0.25405C4.5918 0.476067 5.04992 0.85204 5.37223 1.33442C5.69454 1.81681 5.86658 2.38394 5.86658 2.9641C5.86658 3.74206 5.55754 4.48817 5.00744 5.03828C4.45734 5.58838 3.71125 5.89743 2.93329 5.89743ZM2.93329 1.18632C2.58168 1.18632 2.23797 1.29058 1.94562 1.48593C1.65328 1.68127 1.42542 1.95892 1.29086 2.28377C1.15631 2.60862 1.1211 2.96607 1.1897 3.31092C1.25829 3.65578 1.42761 3.97255 1.67623 4.22117C1.92485 4.4698 2.24162 4.63912 2.58647 4.70771C2.93132 4.77631 3.28876 4.7411 3.61361 4.60655C3.93845 4.47199 4.21609 4.24413 4.41144 3.95178C4.60678 3.65942 4.71104 3.31571 4.71104 2.9641C4.71104 2.4926 4.52374 2.04042 4.19035 1.70702C3.85696 1.37362 3.40478 1.18632 2.93329 1.18632Z" fill="black"/>
<path d="M13.0671 16.0307C12.4869 16.0307 11.9198 15.8587 11.4374 15.5364C10.9551 15.2141 10.5791 14.7559 10.3571 14.2199C10.1351 13.6839 10.077 13.0941 10.1902 12.5251C10.3033 11.9561 10.5827 11.4334 10.9929 11.0232C11.4032 10.613 11.9258 10.3336 12.4948 10.2204C13.0638 10.1072 13.6536 10.1653 14.1896 10.3873C14.7256 10.6094 15.1837 10.9853 15.506 11.4677C15.8283 11.9501 16.0004 12.5172 16.0004 13.0974C16.0004 13.8754 15.6913 14.6215 15.1412 15.1716C14.5911 15.7217 13.845 16.0307 13.0671 16.0307ZM13.0671 11.3196C12.7155 11.3196 12.3718 11.4239 12.0794 11.6192C11.7871 11.8146 11.5592 12.0922 11.4247 12.4171C11.2901 12.7419 11.2549 13.0994 11.3235 13.4442C11.3921 13.7891 11.5614 14.1058 11.81 14.3545C12.0586 14.6031 12.3754 14.7724 12.7203 14.841C13.0651 14.9096 13.4226 14.8744 13.7474 14.7398C14.0722 14.6053 14.3499 14.3774 14.5452 14.0851C14.7406 13.7927 14.8448 13.449 14.8448 13.0974C14.8448 12.8639 14.7989 12.6328 14.7095 12.4171C14.6202 12.2014 14.4892 12.0054 14.3241 11.8403C14.1591 11.6752 13.9631 11.5443 13.7474 11.4549C13.5317 11.3656 13.3005 11.3196 13.0671 11.3196Z" fill="black"/>
</svg>
