<svg width="16" height="17" viewBox="0 0 16 17" fill="none" xmlns="http://www.w3.org/2000/svg">
<path d="M0.897252 15.7101C0.783065 15.7101 0.67145 15.6762 0.576503 15.6128C0.481555 15.5494 0.407533 15.4592 0.363783 15.3537C0.320034 15.2483 0.308519 15.1322 0.330693 15.0202C0.352867 14.9082 0.407735 14.8052 0.488369 14.7244L14.6935 0.51903C14.8026 0.414749 14.9483 0.357326 15.0992 0.359046C15.2501 0.360767 15.3944 0.421494 15.5012 0.528236C15.6079 0.634978 15.6686 0.779257 15.6703 0.930203C15.6721 1.08115 15.6146 1.22677 15.5104 1.33592L1.30525 15.5413C1.25172 15.5949 1.18812 15.6374 1.1181 15.6664C1.04809 15.6954 0.973032 15.7103 0.897252 15.7101Z" fill="white"/>
<path d="M2.93329 5.89743C2.35314 5.89743 1.78602 5.72539 1.30364 5.40307C0.821266 5.08075 0.445299 4.62263 0.223285 4.08663C0.00127157 3.55064 -0.0568182 2.96084 0.0563634 2.39183C0.169545 1.82282 0.448915 1.30015 0.859143 0.889917C1.26937 0.479683 1.79203 0.200309 2.36103 0.087126C2.93004 -0.0260573 3.51982 0.0320333 4.05581 0.25405C4.5918 0.476067 5.04992 0.85204 5.37223 1.33442C5.69454 1.81681 5.86658 2.38394 5.86658 2.9641C5.86658 3.74206 5.55754 4.48817 5.00744 5.03828C4.45734 5.58838 3.71125 5.89743 2.93329 5.89743ZM2.93329 1.18632C2.58168 1.18632 2.23797 1.29058 1.94562 1.48593C1.65328 1.68127 1.42542 1.95892 1.29086 2.28377C1.15631 2.60862 1.1211 2.96607 1.1897 3.31092C1.25829 3.65578 1.42761 3.97255 1.67623 4.22117C1.92485 4.4698 2.24162 4.63912 2.58647 4.70771C2.93132 4.77631 3.28876 4.7411 3.61361 4.60655C3.93845 4.47199 4.21609 4.24413 4.41144 3.95178C4.60678 3.65942 4.71104 3.31571 4.71104 2.9641C4.71104 2.4926 4.52374 2.04042 4.19035 1.70702C3.85696 1.37362 3.40478 1.18632 2.93329 1.18632Z" fill="white"/>
<path d="M13.0671 16.0306C12.4869 16.0306 11.9198 15.8586 11.4374 15.5362C10.9551 15.2139 10.5791 14.7558 10.3571 14.2198C10.1351 13.6838 10.077 13.094 10.1902 12.525C10.3033 11.956 10.5827 11.4333 10.9929 11.0231C11.4032 10.6129 11.9258 10.3335 12.4948 10.2203C13.0638 10.1071 13.6536 10.1652 14.1896 10.3872C14.7256 10.6092 15.1837 10.9852 15.506 11.4676C15.8283 11.95 16.0004 12.5171 16.0004 13.0973C16.0004 13.8752 15.6913 14.6213 15.1412 15.1715C14.5911 15.7216 13.845 16.0306 13.0671 16.0306ZM13.0671 11.3195C12.7155 11.3195 12.3718 11.4238 12.0794 11.6191C11.7871 11.8144 11.5592 12.0921 11.4247 12.4169C11.2901 12.7418 11.2549 13.0992 11.3235 13.4441C11.3921 13.789 11.5614 14.1057 11.81 14.3544C12.0586 14.603 12.3754 14.7723 12.7203 14.8409C13.0651 14.9095 13.4226 14.8743 13.7474 14.7397C14.0722 14.6052 14.3499 14.3773 14.5452 14.085C14.7406 13.7926 14.8448 13.4489 14.8448 13.0973C14.8448 12.8638 14.7989 12.6326 14.7095 12.4169C14.6202 12.2013 14.4892 12.0053 14.3241 11.8402C14.1591 11.6751 13.9631 11.5442 13.7474 11.4548C13.5317 11.3655 13.3005 11.3195 13.0671 11.3195Z" fill="white"/>
</svg>
