<svg width="18" height="18" viewBox="0 0 18 18" fill="none" xmlns="http://www.w3.org/2000/svg">
<path d="M15.226 11.1203C14.9894 11.893 15.9187 13.2908 15.4738 13.9278C15.0233 14.5766 13.4632 14.0811 12.8437 14.5471C12.2355 15.013 12.2017 16.7234 11.4695 16.9711C10.76 17.2129 9.78 15.8564 8.9972 15.8564C8.21437 15.8564 7.23443 17.2129 6.52482 16.9711C5.79269 16.7234 5.76454 15.013 5.15065 14.5471C4.53677 14.0752 2.97678 14.5706 2.52624 13.9278C2.0813 13.2849 3.01057 11.8871 2.77404 11.1203C2.54311 10.3831 1 9.82278 1 9.00295C1 8.18312 2.54311 7.62281 2.77404 6.88556C3.01057 6.11293 2.0813 4.71511 2.52624 4.07815C2.97114 3.42935 4.53117 3.9248 5.15065 3.45297C5.7589 2.987 5.79269 1.27661 6.52482 1.02887C7.23443 0.78707 8.21437 2.1436 8.9972 2.1436C9.78 2.1436 10.7656 0.78707 11.4695 1.02887C12.2073 1.27661 12.2355 2.987 12.8493 3.45297C13.4632 3.9248 15.0233 3.42935 15.4738 4.07225C15.9187 4.71511 14.9894 6.11293 15.226 6.87969C15.4569 7.62281 17 8.18312 17 9.00295C17 9.82278 15.4569 10.3831 15.226 11.1203Z" stroke="black" stroke-miterlimit="10" stroke-linecap="round" stroke-linejoin="round"/>
</svg>
