<svg width="20" height="20" viewBox="0 0 20 20" fill="none" xmlns="http://www.w3.org/2000/svg">
<path d="M16.226 12.1203C15.9894 12.893 16.9187 14.2908 16.4738 14.9278C16.0233 15.5766 14.4632 15.0811 13.8437 15.5471C13.2355 16.013 13.2017 17.7234 12.4695 17.9711C11.76 18.2129 10.78 16.8564 9.9972 16.8564C9.21437 16.8564 8.23443 18.2129 7.52482 17.9711C6.79269 17.7234 6.76454 16.013 6.15065 15.5471C5.53677 15.0752 3.97678 15.5706 3.52624 14.9278C3.0813 14.2849 4.01057 12.8871 3.77404 12.1203C3.54311 11.3831 2 10.8228 2 10.003C2 9.18312 3.54311 8.62281 3.77404 7.88556C4.01057 7.11293 3.0813 5.71511 3.52624 5.07815C3.97114 4.42935 5.53117 4.9248 6.15065 4.45297C6.7589 3.987 6.79269 2.27661 7.52482 2.02887C8.23443 1.78707 9.21437 3.1436 9.9972 3.1436C10.78 3.1436 11.7656 1.78707 12.4695 2.02887C13.2073 2.27661 13.2355 3.987 13.8493 4.45297C14.4632 4.9248 16.0233 4.42935 16.4738 5.07225C16.9187 5.71511 15.9894 7.11293 16.226 7.87969C16.4569 8.62281 18 9.18312 18 10.003C18 10.8228 16.4569 11.3831 16.226 12.1203Z" stroke="white" stroke-miterlimit="10" stroke-linecap="round" stroke-linejoin="round"/>
</svg>
