<svg width="12" height="20" viewBox="0 0 12 20" fill="none" xmlns="http://www.w3.org/2000/svg">
<path d="M8.70506 0.00426978C8.64281 0.0137065 8.58318 0.0355778 8.52983 0.0685382C8.47649 0.101499 8.43056 0.144851 8.39488 0.195928L0.0849292 11.7806C0.036071 11.8485 0.00708926 11.9283 0.00114362 12.0113C-0.00480203 12.0942 0.0125166 12.1772 0.0512115 12.2512C0.0899064 12.3251 0.148492 12.3872 0.220582 12.4307C0.292672 12.4741 0.375498 12.4972 0.460031 12.4976H4.89633L2.55916 19.3902C2.52066 19.4942 2.52207 19.6084 2.56313 19.7115C2.60419 19.8146 2.68207 19.8993 2.78215 19.9499C2.88223 20.0004 2.99762 20.0133 3.10665 19.986C3.21568 19.9588 3.31085 19.8933 3.37429 19.8019L11.9151 8.21718C11.9639 8.1493 11.9929 8.06952 11.9989 7.98654C12.0048 7.90356 11.9875 7.82056 11.9488 7.74661C11.9101 7.67265 11.8515 7.61056 11.7794 7.56712C11.7073 7.52367 11.6245 7.50054 11.54 7.50024H7.08202L9.21001 0.586343C9.23251 0.513403 9.23601 0.436064 9.22017 0.361446C9.20433 0.286829 9.16967 0.217333 9.11937 0.159357C9.06908 0.10138 9.00477 0.0567883 8.93237 0.0296864C8.85997 0.00258447 8.7818 -0.006156 8.70506 0.00426978ZM7.50762 2.99982L6.02164 7.81967C6.00019 7.8876 5.99525 7.95953 6.00721 8.02968C6.01917 8.09984 6.04771 8.16624 6.09051 8.22356C6.13332 8.28088 6.18921 8.32751 6.25367 8.35969C6.31814 8.39187 6.38938 8.4087 6.46166 8.40884H10.6311L4.39139 16.8773L5.97836 12.1852C6.0012 12.1169 6.00722 12.0442 5.99591 11.9731C5.98461 11.902 5.95631 11.8345 5.91335 11.7763C5.87038 11.7181 5.81398 11.6707 5.74878 11.6382C5.68358 11.6056 5.61146 11.5887 5.53834 11.5889H1.34729L7.50762 2.99982Z" fill="black"/>
</svg>
