<svg width="20" height="20" viewBox="0 0 20 20" fill="none" xmlns="http://www.w3.org/2000/svg">
<path d="M12.7051 0.00426978C12.6428 0.0137065 12.5832 0.0355778 12.5298 0.0685382C12.4765 0.101499 12.4306 0.144851 12.3949 0.195928L4.08493 11.7806C4.03607 11.8485 4.00709 11.9283 4.00114 12.0113C3.9952 12.0942 4.01252 12.1772 4.05121 12.2512C4.08991 12.3251 4.14849 12.3872 4.22058 12.4307C4.29267 12.4741 4.3755 12.4972 4.46003 12.4976H8.89633L6.55916 19.3902C6.52066 19.4942 6.52207 19.6084 6.56313 19.7115C6.60419 19.8146 6.68207 19.8993 6.78215 19.9499C6.88223 20.0004 6.99762 20.0133 7.10665 19.986C7.21568 19.9588 7.31085 19.8933 7.37429 19.8019L15.9151 8.21718C15.9639 8.1493 15.9929 8.06952 15.9989 7.98654C16.0048 7.90356 15.9875 7.82056 15.9488 7.74661C15.9101 7.67265 15.8515 7.61056 15.7794 7.56712C15.7073 7.52367 15.6245 7.50054 15.54 7.50024H11.082L13.21 0.586343C13.2325 0.513403 13.236 0.436064 13.2202 0.361446C13.2043 0.286829 13.1697 0.217333 13.1194 0.159357C13.0691 0.10138 13.0048 0.0567883 12.9324 0.0296864C12.86 0.00258447 12.7818 -0.006156 12.7051 0.00426978ZM11.5076 2.99982L10.0216 7.81967C10.0002 7.8876 9.99525 7.95953 10.0072 8.02968C10.0192 8.09984 10.0477 8.16624 10.0905 8.22356C10.1333 8.28088 10.1892 8.32751 10.2537 8.35969C10.3181 8.39187 10.3894 8.4087 10.4617 8.40884H14.6311L8.39139 16.8773L9.97836 12.1852C10.0012 12.1169 10.0072 12.0442 9.99591 11.9731C9.98461 11.902 9.95631 11.8345 9.91335 11.7763C9.87038 11.7181 9.81398 11.6707 9.74878 11.6382C9.68358 11.6056 9.61146 11.5887 9.53834 11.5889H5.34729L11.5076 2.99982Z" fill="white"/>
</svg>
