<svg width="84" height="38" viewBox="0 0 84 38" fill="none" xmlns="http://www.w3.org/2000/svg">
<path d="M0.00318874 35.6858H0.689214C0.68028 36.077 0.816577 36.4577 1.07181 36.7544C1.18946 36.8849 1.33433 36.9879 1.49618 37.0563C1.65803 37.1247 1.83291 37.1568 2.00849 37.1502C2.19407 37.1585 2.3793 37.1275 2.55209 37.0593C2.72487 36.9911 2.8813 36.8872 3.01115 36.7544C3.26858 36.4598 3.40109 36.0765 3.38055 35.6858C3.38055 35.0349 2.87482 34.5424 1.86337 34.2082H1.69187C1.25789 34.0879 0.865367 33.8506 0.557286 33.5221C0.31449 33.2105 0.192651 32.8216 0.214273 32.4271C0.204575 32.1675 0.247496 31.9086 0.340452 31.666C0.433408 31.4235 0.57448 31.2022 0.755179 31.0155C0.935331 30.8325 1.15141 30.6889 1.38982 30.5935C1.62822 30.4981 1.88379 30.4532 2.14042 30.4614C2.38339 30.4457 2.62689 30.4824 2.85448 30.5689C3.08207 30.6554 3.28846 30.7897 3.4597 30.9627C3.79909 31.3548 3.98637 31.8558 3.98741 32.3744H3.24862C3.23455 32.0397 3.10919 31.7194 2.89241 31.4641C2.79024 31.3585 2.6669 31.2757 2.53048 31.2211C2.39406 31.1666 2.24765 31.1414 2.10084 31.1474C1.93985 31.1411 1.77929 31.1683 1.62939 31.2273C1.47948 31.2864 1.34351 31.376 1.23012 31.4904C1.11717 31.6077 1.02867 31.7462 0.96978 31.8979C0.91089 32.0497 0.882787 32.2116 0.887106 32.3744C0.884217 32.543 0.920337 32.7101 0.992649 32.8625C1.06864 33.0119 1.17678 33.1425 1.30928 33.2451C1.58075 33.4085 1.87387 33.5328 2.18 33.6145L2.74729 33.7992C3.14524 33.9315 3.49749 34.1739 3.76314 34.4984C3.97953 34.8261 4.08582 35.2143 4.06657 35.6066C4.09569 36.2207 3.89324 36.8233 3.49928 37.2953C3.30878 37.5062 3.07396 37.6724 2.81165 37.7819C2.54934 37.8914 2.26605 37.9415 1.98211 37.9285C1.71472 37.9374 1.44863 37.8877 1.20249 37.7829C0.956354 37.6781 0.736136 37.5206 0.557286 37.3217C0.170294 36.8672 -0.0279815 36.2818 0.00318874 35.6858Z" fill="#343433"/>
<path d="M7.56399 37.7437H6.86477V31.2529H5.42676V30.5405H9.0152V31.2529H7.56399V37.7437Z" fill="#343433"/>
<path d="M11.416 33.7195H14.4372V34.4319H11.416V37.0045H14.4372V37.7037H10.7036V30.5005H14.4504V31.2129H11.416V33.7195Z" fill="#343433"/>
<path d="M17.3784 33.7195H20.3996V34.4319H17.3784V37.0045H20.3996V37.7037H16.666V30.5005H20.3996V31.2129H17.3784V33.7195Z" fill="#343433"/>
<path d="M25.8895 37.7437H22.644V30.5405H23.3565V37.0445H25.8895V37.7437Z" fill="#343433"/>
<path d="M34.6084 34.1162C34.6058 33.622 34.7046 33.1326 34.8986 32.6781C35.0928 32.2226 35.3753 31.8101 35.7298 31.4644C36.0629 31.1324 36.4571 30.8681 36.8907 30.686C37.3097 30.5148 37.7575 30.4252 38.21 30.4222C38.6987 30.4076 39.1852 30.4938 39.6391 30.6754C40.0931 30.8569 40.5048 31.13 40.8486 31.4776C41.1997 31.8183 41.4779 32.2267 41.6665 32.6781C41.8533 33.1344 41.9474 33.6232 41.9436 34.1162C41.9493 34.5928 41.8688 35.0665 41.7061 35.5146C41.5465 35.9442 41.3045 36.3386 40.9937 36.6756C40.6521 37.0653 40.2296 37.3758 39.7557 37.5855C39.2817 37.7951 38.7678 37.8988 38.2496 37.8893C37.7583 37.9062 37.2689 37.8185 36.8141 37.632C36.3592 37.4455 35.9491 37.1644 35.611 36.8075C35.2739 36.4477 35.0117 36.0245 34.8395 35.5625C34.6674 35.1005 34.5888 34.6088 34.6084 34.1162ZM35.3472 34.1162C35.3362 34.522 35.4063 34.9259 35.5536 35.3043C35.7009 35.6826 35.9222 36.0277 36.2047 36.3193C36.4749 36.6065 36.8024 36.8336 37.1661 36.9859C37.5298 37.1382 37.9214 37.2123 38.3156 37.2033C38.7049 37.2109 39.0914 37.1347 39.4487 36.9799C39.8061 36.8251 40.126 36.5954 40.3868 36.3062C40.9477 35.7117 41.2511 34.9199 41.2312 34.103C41.2355 33.7106 41.1607 33.3215 41.0111 32.9588C40.8614 32.596 40.6402 32.2673 40.3605 31.9921C40.0936 31.7025 39.7692 31.4719 39.4079 31.3151C39.0467 31.1583 38.6566 31.0789 38.2628 31.0818C37.9341 31.0811 37.608 31.1392 37.2997 31.2533C36.9867 31.3689 36.6965 31.5386 36.4422 31.7546C36.1003 32.0436 35.8256 32.4039 35.6374 32.8101C35.4434 33.218 35.3442 33.6645 35.3472 34.1162Z" fill="#343433"/>
<path d="M47.9635 37.7435H43.5439V37.0443L46.0901 34.63C46.4699 34.2946 46.8067 33.9136 47.0928 33.4954C47.2478 33.2362 47.3298 32.9399 47.3303 32.6379C47.3375 32.4292 47.3027 32.2213 47.2279 32.0264C47.1531 31.8315 47.0398 31.6536 46.8949 31.5033C46.7508 31.3521 46.5765 31.2328 46.3833 31.1532C46.1901 31.0737 45.9824 31.0357 45.7735 31.0416C45.5642 31.0322 45.3555 31.0687 45.1618 31.1484C44.9681 31.2282 44.7941 31.3493 44.6521 31.5033C44.3601 31.8487 44.2094 32.2916 44.23 32.7434C44.23 32.7434 44.23 32.7434 44.23 32.849C44.23 32.9545 44.23 32.9281 44.23 32.9413H43.5439V32.8358C43.5152 32.1863 43.7426 31.5515 44.1772 31.068C44.3869 30.8421 44.6426 30.664 44.9271 30.5456C45.2117 30.4273 45.5183 30.3714 45.8263 30.3819C46.1175 30.377 46.4064 30.4332 46.6745 30.5468C46.9427 30.6604 47.184 30.829 47.383 31.0416C47.5915 31.2561 47.7549 31.5102 47.8636 31.7889C47.9724 32.0676 48.0243 32.3652 48.0163 32.6643C48.0174 33.0367 47.9268 33.4037 47.7524 33.7329C47.5311 34.1288 47.2458 34.4854 46.9081 34.7883L44.4806 37.0311H48.0031L47.9635 37.7435Z" fill="#343433"/>
<path d="M49.4912 34.1162C49.4886 33.622 49.5874 33.1326 49.7815 32.6781C49.9756 32.2226 50.2581 31.8101 50.6126 31.4644C50.9457 31.1324 51.3399 30.8681 51.7736 30.686C52.1925 30.5148 52.6403 30.4252 53.0928 30.4222C53.5815 30.4076 54.068 30.4938 54.5219 30.6754C54.9759 30.8569 55.3876 31.13 55.7314 31.4776C56.0825 31.8183 56.3608 32.2267 56.5494 32.6781C56.7361 33.1344 56.8302 33.6232 56.8264 34.1162C56.8321 34.5928 56.7517 35.0665 56.5889 35.5146C56.4293 35.9442 56.1873 36.3386 55.8765 36.6756C55.535 37.0653 55.1125 37.3758 54.6385 37.5855C54.1646 37.7951 53.6506 37.8988 53.1324 37.8893C52.6411 37.9062 52.1518 37.8185 51.6969 37.632C51.242 37.4455 50.8319 37.1644 50.4939 36.8075C50.1567 36.4477 49.8945 36.0245 49.7224 35.5625C49.5502 35.1005 49.4717 34.6088 49.4912 34.1162ZM50.23 34.1162C50.219 34.522 50.2892 34.9259 50.4364 35.3043C50.5837 35.6826 50.8051 36.0277 51.0875 36.3193C51.3577 36.6065 51.6852 36.8336 52.0489 36.9859C52.4126 37.1382 52.8042 37.2123 53.1984 37.2033C53.5876 37.21 53.9738 37.1335 54.331 36.9787C54.6883 36.824 55.0083 36.5947 55.2697 36.3062C55.8305 35.7117 56.1339 34.9199 56.114 34.103C56.1184 33.7106 56.0435 33.3215 55.8939 32.9588C55.7443 32.596 55.523 32.2673 55.2433 31.9921C54.9741 31.7073 54.6486 31.4816 54.2875 31.3294C53.9263 31.1772 53.5375 31.1019 53.1456 31.1082C52.8169 31.1075 52.4908 31.1656 52.1825 31.2797C51.8696 31.3953 51.5793 31.565 51.325 31.781C50.9828 32.0697 50.7081 32.43 50.5202 32.8365C50.3297 33.2362 50.2305 33.6733 50.23 34.1162Z" fill="#343433"/>
<path d="M30.5444 31.1734H31.1777V37.7434H31.9165V30.5533H30.9402L30.5444 31.1734Z" fill="#343433"/>
<path d="M2.5379 25.7126H0.00488281V0H2.5379V11.5304H14.7544V0H17.2743V25.6995H14.7544V13.9315H2.5379V25.7126Z" fill="#343433"/>
<path d="M22.3275 25.7126H19.7944V0H22.3143L22.3275 25.7126Z" fill="#343433"/>
<path d="M33.1166 11.6351V13.9307H24.8447V11.5823L33.1166 11.6351Z" fill="#343433"/>
<path d="M40.9009 25.7122H38.2623V2.53263H33.1831V0.0128174H45.9801V2.53263H40.9009V25.7122Z" fill="#343433"/>
<path d="M51.0501 11.5304H61.855V14.0767H51.0501V23.1665H61.855V25.6599H48.5039V0H61.855V2.51982H51.0501V11.5304Z" fill="#343433"/>
<path d="M81.5227 22.6388L81.2193 0.0131855H83.7259V25.7126H80.6916L66.5885 3.04752L66.8655 25.7126H64.3721V0H67.4064L81.5227 22.6388Z" fill="#343433"/>
</svg>
