<svg width="79" height="38" viewBox="0 0 79 38" fill="none" xmlns="http://www.w3.org/2000/svg">
<path d="M30.9767 7.66498L18.6282 0.514517C18.0619 0.210978 17.436 0.0353455 16.7944 0V0H16.2799C15.9607 0.00637752 15.6428 0.041703 15.33 0.105542H15.1321C14.8051 0.181019 14.49 0.300864 14.1955 0.461746L1.76784 7.65179C1.13169 8.04545 0.601714 8.58901 0.224278 9.23492L6.82068 10.3695C6.93225 8.95484 7.52873 7.62207 8.50936 6.59637C8.93122 6.16975 9.43508 5.83294 9.99057 5.60621C10.5461 5.37948 11.1417 5.26753 11.7416 5.2771C12.306 5.2515 12.8696 5.34125 13.3982 5.54087C13.9267 5.74048 14.409 6.04576 14.8155 6.43806C15.2092 6.84906 15.5152 7.33586 15.7147 7.86885C15.9143 8.40183 16.0034 8.96986 15.9765 9.53835C16.0011 10.2269 15.8717 10.9122 15.5978 11.5444C15.324 12.1766 14.9125 12.7397 14.3933 13.1927C13.0944 14.196 11.4625 14.6677 9.82864 14.512L9.06345 20.1717C9.06345 20.1717 11.4645 19.9738 12.4012 19.9738C13.0914 19.9641 13.7756 20.1042 14.4064 20.3843C15.0373 20.6644 15.6 21.078 16.0556 21.5965C17.1078 22.8023 17.6599 24.3642 17.5992 25.9633C17.6889 27.6608 17.1327 29.3293 16.0424 30.6335C15.5658 31.1858 14.9738 31.6269 14.3082 31.9255C13.6426 32.2241 12.9196 32.373 12.1901 32.3618C11.5192 32.3743 10.8525 32.2524 10.2293 32.0032C9.60624 31.7539 9.03936 31.3824 8.56213 30.9106C7.48668 29.7751 6.83855 28.3017 6.72833 26.7417L0 27.5596C0.367582 28.4296 0.982223 29.1727 1.76784 29.6969L14.1295 36.8341C14.8252 37.1844 15.5933 37.3669 16.3723 37.3669C17.1512 37.3669 17.9193 37.1844 18.615 36.8341L20.2378 35.8711L30.9107 29.71C31.5647 29.2827 32.1093 28.708 32.5011 28.0321C32.8929 27.3563 33.1208 26.598 33.1667 25.8182V11.5568C33.1293 10.7825 32.9118 10.0276 32.5317 9.35207C32.1515 8.67649 31.6191 8.09884 30.9767 7.66498ZM27.4806 26.2535C27.4463 26.8376 27.2757 27.4056 26.9825 27.9119C26.6892 28.4182 26.2815 28.8488 25.7919 29.1691L24.5914 29.8552C24.9419 28.6916 25.1154 27.4819 25.1059 26.2667C25.1635 24.1088 24.4633 21.999 23.127 20.3036C21.7977 18.655 19.9287 17.5289 17.8499 17.1242C19.1128 16.5462 20.2373 15.7043 21.1476 14.6552C22.0579 13.6061 22.7328 12.3742 23.127 11.0423L25.7655 12.5859C26.2568 12.9076 26.6657 13.3402 26.959 13.849C27.2523 14.3577 27.422 14.9283 27.4542 15.5147L27.4806 26.2535Z" fill="#343433"/>
<path d="M40.0293 16.1606H39.3169V9.68292H37.9448V8.9837H41.5201V9.69611H40.0293V16.1606Z" fill="#231F20"/>
<path d="M43.8384 9.68365V16.1613H43.1392V8.98443H45.0653C45.4108 8.97388 45.7563 9.00489 46.0943 9.07678C46.3451 9.13784 46.5823 9.24522 46.7936 9.39341C47.082 9.60077 47.3134 9.87757 47.4664 10.1982C47.6318 10.5301 47.7176 10.8959 47.7171 11.2668C47.7274 11.7907 47.5495 12.3009 47.2157 12.7048C47.0673 12.896 46.88 13.0537 46.6663 13.1674C46.4526 13.2811 46.2172 13.3482 45.9756 13.3644L47.7171 16.1745H46.8859L44.7619 12.7048H45.4479C45.8549 12.7229 46.2527 12.5808 46.5561 12.309C46.6971 12.1786 46.808 12.0189 46.8809 11.8411C46.9538 11.6634 46.9871 11.4719 46.9783 11.28C46.979 11.0449 46.9342 10.812 46.8463 10.5939C46.7602 10.3877 46.6296 10.203 46.4637 10.053C46.3177 9.91973 46.1409 9.82456 45.9492 9.776C45.6017 9.70889 45.2475 9.68233 44.8938 9.69684L43.8384 9.68365Z" fill="#231F20"/>
<path d="M50.582 16.1606H49.8696V8.9837H50.582V16.1606Z" fill="#231F20"/>
<path d="M52.9312 8.98371H54.4483C54.8014 8.97684 55.1544 8.9989 55.5038 9.04967C55.7352 9.08456 55.9586 9.16051 56.1634 9.27395C56.4662 9.45194 56.7165 9.70682 56.889 10.0127C57.0603 10.3282 57.1467 10.6828 57.1397 11.0418C57.145 11.389 57.0681 11.7326 56.9154 12.0444C56.7733 12.3387 56.5545 12.5894 56.2821 12.77C56.0738 12.9064 55.8407 13.0006 55.5961 13.0471C55.2507 13.1342 54.8968 13.1829 54.5407 13.1922H53.604V16.2133H52.9048L52.9312 8.98371ZM53.6304 9.69612V12.427H54.6726C55.137 12.4697 55.6022 12.3534 55.9919 12.0972C56.1351 11.9691 56.2466 11.8094 56.3176 11.6309C56.3886 11.4523 56.4171 11.2596 56.4009 11.0682C56.4136 10.8719 56.3823 10.6753 56.3093 10.4927C56.2363 10.31 56.1233 10.1461 55.9787 10.0127C55.5858 9.76387 55.1232 9.64821 54.6594 9.68292L53.6304 9.69612Z" fill="#231F20"/>
<path d="M62.2054 16.1606H58.96V8.9837H59.6724V15.4745H62.1922L62.2054 16.1606Z" fill="#231F20"/>
<path d="M64.7129 12.2027H67.7341V12.9151H64.7129V15.4745H67.7341V16.1737H64.0005V8.9837H67.7341V9.69611H64.7129V12.2027Z" fill="#231F20"/>
<path d="M37.9424 20.6603H39.2617C39.8946 20.6091 40.5264 20.7717 41.0559 21.1221C41.3427 21.4193 41.5328 21.7965 41.6011 22.2039C41.6694 22.6113 41.6127 23.0299 41.4385 23.4044C41.3017 23.644 41.1007 23.8405 40.858 23.9717C41.2129 24.0988 41.5175 24.3367 41.7266 24.6504C41.9357 24.964 42.0382 25.3367 42.019 25.7131C42.0445 26.0097 42.0032 26.3082 41.8982 26.5868C41.7932 26.8653 41.6271 27.1168 41.4121 27.3227C40.8576 27.7092 40.1861 27.8911 39.5123 27.8372H37.9292L37.9424 20.6603ZM38.6152 21.3463V23.7474H39.0374C39.5433 23.7937 40.0518 23.6929 40.5018 23.4572C40.6452 23.3491 40.7591 23.2066 40.8328 23.0429C40.9066 22.8792 40.938 22.6995 40.924 22.5205C40.9363 22.3487 40.9054 22.1765 40.8339 22.0198C40.7625 21.863 40.6528 21.7267 40.515 21.6234C40.1132 21.4003 39.6533 21.3038 39.1957 21.3463H38.6152ZM38.6152 24.4466V27.1511H39.6047C40.0691 27.1939 40.5343 27.0776 40.924 26.8213C41.0694 26.6972 41.1834 26.5405 41.2567 26.364C41.3301 26.1875 41.3607 25.9961 41.3461 25.8055C41.3618 25.6128 41.3317 25.4192 41.2584 25.2404C41.185 25.0616 41.0704 24.9026 40.924 24.7765C40.5347 24.5192 40.0692 24.4029 39.6047 24.4466H38.6152Z" fill="#231F20"/>
<path d="M43.9844 20.6601H44.6969V25.1984C44.678 25.4619 44.678 25.7264 44.6969 25.99C44.7221 26.1502 44.771 26.3058 44.842 26.4517C44.965 26.7138 45.1622 26.934 45.4093 27.085C45.6621 27.2434 45.9552 27.3258 46.2536 27.3224C46.4848 27.3439 46.7175 27.3039 46.9283 27.2066C47.1391 27.1094 47.3205 26.9582 47.4541 26.7683C47.7832 26.2625 47.9532 25.6698 47.9423 25.0665V20.6601H48.6415V25.2248C48.6967 25.9622 48.5014 26.6966 48.0874 27.3092C47.8781 27.5464 47.6167 27.7318 47.3237 27.8508C47.0307 27.9698 46.7141 28.0193 46.3987 27.9953C46.0704 28.0234 45.74 27.9776 45.4318 27.8612C45.1236 27.7447 44.8454 27.5606 44.6177 27.3224C44.1668 26.7193 43.9426 25.9767 43.9844 25.2248V20.6601Z" fill="#231F20"/>
<path d="M52.3731 27.8501H51.6607V21.3725H50.2358V20.6601H53.8111V21.3725H52.3731V27.8501Z" fill="#231F20"/>
<path d="M57.2945 27.8501H56.5952V21.3725H55.1572V20.6601H58.7325V21.3725H57.2945V27.8501Z" fill="#231F20"/>
<path d="M61.1362 27.8501H60.4238V20.6601H61.1362V27.8501Z" fill="#231F20"/>
<path d="M68.3134 26.9926L68.2343 20.6733H68.9335V27.8501H68.0891L64.1313 21.5176L64.2105 27.8501H63.5112V20.6601H64.3556L68.3134 26.9926Z" fill="#231F20"/>
<path d="M73.814 24.4064H78.2863C78.28 24.8992 78.1766 25.386 77.9819 25.8387C77.7872 26.2915 77.5051 26.7014 77.1517 27.045C76.8137 27.3745 76.413 27.633 75.9735 27.8052C75.5339 27.9774 75.0643 28.0598 74.5923 28.0476C74.101 28.0645 73.6117 27.9768 73.1568 27.7903C72.7019 27.6038 72.2918 27.3228 71.9538 26.9658C71.2715 26.2585 70.8968 25.3099 70.9116 24.3273C70.9086 23.8331 71.0074 23.3436 71.2018 22.8893C71.395 22.4332 71.6776 22.0205 72.0329 21.6755C72.3677 21.3394 72.7671 21.0746 73.2071 20.8972C73.6661 20.7227 74.1542 20.6376 74.6451 20.6465C75.304 20.6364 75.9527 20.81 76.5185 21.1478C77.0796 21.4997 77.5354 21.9965 77.8378 22.5858H76.967C76.676 22.1979 76.3076 21.8744 75.8852 21.636C75.4783 21.4246 75.0243 21.3202 74.566 21.3325C74.174 21.3254 73.7849 21.4003 73.4236 21.5526C73.0624 21.7048 72.7369 21.9309 72.4683 22.2164C71.9661 22.7634 71.6883 23.4793 71.6899 24.2217C71.6762 25.0259 71.9795 25.8031 72.5343 26.3853C72.8049 26.6719 73.1326 26.8985 73.4961 27.0508C73.8597 27.203 74.2511 27.2774 74.6451 27.2693C75.2905 27.2726 75.9165 27.0484 76.413 26.636C76.9155 26.2391 77.2726 25.6871 77.4288 25.0661H73.814V24.4064Z" fill="#231F20"/>
</svg>
