<svg width="102" height="39" viewBox="0 0 102 39" fill="none" xmlns="http://www.w3.org/2000/svg">
<path d="M2.53302 26.2036H0V0.54364H2.53302V26.2036Z" fill="#343433"/>
<path d="M38.229 7.19255C37.2294 5.73595 35.9064 4.53039 34.3635 3.67011C32.8589 2.89704 31.1867 2.5073 29.4953 2.53551C28.1209 2.51885 26.7583 2.79226 25.4967 3.33784C24.235 3.88342 23.1026 4.68894 22.1733 5.7018C21.1912 6.69534 20.4161 7.87398 19.8929 9.16937C19.3698 10.4648 19.109 11.8511 19.1258 13.248C19.0886 14.6908 19.3362 16.1268 19.8546 17.4737C20.373 18.8207 21.152 20.0522 22.1469 21.0977C23.0811 22.1275 24.225 22.9452 25.5016 23.4959C26.7782 24.0466 28.158 24.3175 29.5481 24.2904C31.2193 24.3165 32.8718 23.9362 34.3635 23.1822C35.853 22.3902 37.1328 21.2551 38.097 19.8708H41.0918C40.0069 21.9572 38.3741 23.7086 36.3688 24.9368C34.376 26.1267 32.0932 26.7431 29.7724 26.7178C28.0189 26.7647 26.2749 26.4464 24.651 25.7832C23.0271 25.1201 21.5589 24.1264 20.3395 22.8655C19.0919 21.5983 18.1133 20.0919 17.4627 18.4369C16.812 16.7819 16.5026 15.0124 16.5532 13.2348C16.546 11.4765 16.8961 9.73502 17.5822 8.11606C18.2805 6.47983 19.2987 4.99966 20.577 3.76247C21.7521 2.57554 23.1512 1.63383 24.6931 0.991987C26.2642 0.356218 27.9457 0.037878 29.6404 0.0553138C32.0603 0.0218999 34.4412 0.666215 36.5139 1.91545C38.5835 3.1944 40.2592 5.02073 41.3557 7.19255H38.229Z" fill="#343433"/>
<path d="M49.97 13.9077H65.9201C65.8271 17.394 64.3789 20.7067 61.8831 23.1426C60.6773 24.3236 59.2469 25.2508 57.6766 25.8694C56.1062 26.488 54.4278 26.7854 52.7405 26.7442C51.016 26.7762 49.3038 26.4478 47.7135 25.7799C46.1233 25.112 44.69 24.1193 43.5055 22.8655C42.2716 21.5931 41.3044 20.0867 40.661 18.4351C40.0176 16.7835 39.7108 15.0199 39.7588 13.2481C39.7508 11.4896 40.101 9.74801 40.7878 8.12926C41.486 6.49304 42.5042 5.01282 43.7826 3.77563C44.9846 2.56551 46.4212 1.61376 48.0043 0.97878C49.6412 0.35086 51.3832 0.0418708 53.1363 0.0684777C55.4952 0.0336489 57.8167 0.659726 59.8382 1.87588C61.8625 3.1336 63.5083 4.91618 64.6008 7.03424H61.4345C60.3934 5.63787 59.0724 4.4741 57.5559 3.61733C56.1272 2.87339 54.5357 2.49708 52.9252 2.52235C51.5263 2.49825 50.1379 2.76756 48.8496 3.31291C47.5612 3.85827 46.4013 4.66755 45.4449 5.6886C44.454 6.6873 43.6728 7.87404 43.1471 9.17903C42.6215 10.484 42.3621 11.8809 42.3841 13.2876C42.3372 14.7438 42.5827 16.1945 43.1061 17.5541C43.6296 18.9137 44.4204 20.1546 45.4317 21.2033C46.3953 22.225 47.5624 23.0334 48.8576 23.5765C50.1528 24.1195 51.5474 24.3852 52.9516 24.3563C55.279 24.3374 57.5237 23.491 59.2841 21.9684C61.1289 20.4926 62.4137 18.4305 62.9253 16.1241H49.97V13.9077Z" fill="#343433"/>
<path d="M65.9356 9.54071C65.8928 8.2984 66.017 7.05598 66.305 5.84676C66.5494 4.98704 66.9619 4.18436 67.5188 3.48524C68.331 2.35438 69.4155 1.44683 70.6719 0.846693C72.0093 0.258707 73.4593 -0.0294581 74.9199 0.00237794C76.3535 -0.0142545 77.7729 0.287627 79.0757 0.88627C80.3423 1.49843 81.4524 2.3919 82.3211 3.49845C82.8719 4.20697 83.2634 5.02596 83.4689 5.89954C83.7351 7.10322 83.8548 8.3347 83.8251 9.56712V17.1793C83.8597 18.4257 83.7356 19.6714 83.4557 20.8865C83.2347 21.7521 82.8495 22.5672 82.3211 23.2876C81.4998 24.4203 80.4063 25.3278 79.1416 25.9261C77.7977 26.507 76.3441 26.7905 74.8804 26.7573C73.4467 26.7748 72.0271 26.4728 70.7246 25.8733C69.4409 25.2587 68.3167 24.3557 67.4396 23.2348C66.8848 22.532 66.4887 21.7174 66.2787 20.8469C66.0122 19.6522 65.8926 18.4294 65.9225 17.2057L65.9356 9.54071ZM70.9621 9.54071V17.2585C70.8617 18.5669 71.2006 19.8715 71.9252 20.9656C72.7216 21.7456 73.792 22.1825 74.9067 22.1825C76.0215 22.1825 77.0919 21.7456 77.8883 20.9656C78.6237 19.8316 78.9667 18.4875 78.8646 17.1397V9.2241C78.8769 8.67283 78.8461 8.12145 78.7722 7.575C78.7152 7.24242 78.6038 6.9215 78.4424 6.62512C78.0911 6.03066 77.585 5.54274 76.978 5.21349C76.3509 4.87306 75.6466 4.70041 74.9331 4.7122C74.3781 4.67045 73.821 4.75837 73.3058 4.96903C72.7906 5.17968 72.3315 5.50725 71.9648 5.92591C71.238 6.97154 70.8805 8.22958 70.9489 9.50113L70.9621 9.54071Z" fill="#343433"/>
<path d="M99.5529 0.54364V4.9896H90.7401L89.9486 9.39598C90.4724 9.09046 91.0364 8.85958 91.6241 8.70997C92.2267 8.55034 92.8477 8.47047 93.4711 8.47247C94.6057 8.45922 95.7302 8.68768 96.7697 9.14261C97.8092 9.59755 98.74 10.2685 99.5002 11.111C100.68 12.379 101.482 13.9507 101.818 15.6496C102.153 17.3485 102.009 19.1073 101.4 20.7286C101.001 21.7642 100.42 22.7203 99.6849 23.5518C98.8442 24.5565 97.7954 25.3668 96.6109 25.9265C95.4319 26.4674 94.1482 26.7422 92.851 26.7313C90.5642 26.785 88.3491 25.9312 86.69 24.3566C85.0051 22.7382 83.9963 20.5414 83.8667 18.2087H88.6953C88.7873 19.2685 89.2552 20.2605 90.0145 21.0056C90.7623 21.7127 91.756 22.1007 92.785 22.0874C93.3402 22.0966 93.8906 21.9831 94.3968 21.755C94.9031 21.527 95.3528 21.19 95.7138 20.7681C96.5126 19.8489 96.9323 18.6606 96.888 17.4436C96.9139 16.855 96.8223 16.2672 96.6184 15.7145C96.4145 15.1618 96.1025 14.6553 95.7006 14.2245C95.296 13.8141 94.81 13.4928 94.2738 13.2815C93.7375 13.0702 93.163 12.9735 92.5871 12.9976C91.8901 12.9763 91.1994 13.1353 90.5818 13.4593C90.0323 13.7736 89.5768 14.2291 89.2626 14.7786L84.9617 13.9079L87.4024 0.556806L99.5529 0.54364Z" fill="#343433"/>
<path d="M12.3981 11.9818C11.9408 11.8059 11.2723 11.5772 10.3928 11.2958C9.15425 10.9813 7.95166 10.5392 6.80437 9.97648C6.32474 9.63158 5.93181 9.17994 5.6566 8.6572C5.4042 8.11227 5.28224 7.51602 5.30039 6.91575C5.27887 6.33455 5.37401 5.75495 5.58021 5.21114C5.78641 4.66732 6.09948 4.17032 6.50094 3.7495C7.38049 2.92014 8.55094 2.46995 9.75956 2.49617C10.9109 2.44563 12.0353 2.85366 12.8863 3.63077C13.6561 4.53629 14.0977 5.67516 14.1396 6.86297H16.5143C16.5044 5.02415 15.835 3.24995 14.6277 1.86295C13.9767 1.25473 13.2107 0.782692 12.3747 0.474583C11.5387 0.166474 10.6496 0.0284849 9.75956 0.0687111C8.81497 0.0337659 7.87297 0.188577 6.98923 0.523943C6.10549 0.859309 5.29796 1.36844 4.61437 2.02125C3.974 2.68747 3.47454 3.47596 3.14586 4.33961C2.81718 5.20325 2.66601 6.12429 2.70141 7.04769C2.63561 8.45159 3.07563 9.83254 3.94153 10.9396C5.22823 12.0986 6.76921 12.9391 8.44028 13.3934L9.07353 13.6045C12.6708 14.7918 14.4694 16.5509 14.4694 18.8816C14.5484 20.2726 14.0742 21.6384 13.1501 22.6811C12.6918 23.1529 12.1383 23.5215 11.5264 23.7627C10.9144 24.0038 10.2582 24.1118 9.60125 24.0795C8.97361 24.1023 8.34856 23.9878 7.76977 23.744C7.19098 23.5002 6.6724 23.1329 6.25027 22.6679C5.36535 21.6079 4.89641 20.262 4.93099 18.8816H2.51671C2.43149 20.969 3.13301 23.0124 4.48244 24.6072C5.13464 25.3125 5.93299 25.8668 6.82171 26.2314C7.71042 26.596 8.66804 26.7621 9.62763 26.7181C10.6417 26.7597 11.6525 26.5767 12.5876 26.1822C13.5226 25.7876 14.359 25.1912 15.0367 24.4357C16.447 22.7576 17.1725 20.6094 17.0684 18.4198C17.1338 17.0177 16.7502 15.6312 15.9734 14.462C15.0401 13.3138 13.8004 12.4538 12.3981 11.9818Z" fill="#343433"/>
<path d="M0 38.2363V31.0594H1.04223L3.52248 37.2996L6.00272 31.0594H7.04496V38.2363H6.37212V31.8906L3.8523 38.2363H3.16627L0.633254 31.8906V38.2363H0Z" fill="#343433"/>
<path d="M9.01102 34.5941C9.00846 34.1 9.10725 33.6106 9.30126 33.1561C9.49477 32.7002 9.77734 32.2876 10.1324 31.9423C10.4627 31.6071 10.8573 31.3419 11.2926 31.1628C11.7279 30.9838 12.1948 30.8944 12.6654 30.9001C13.1443 30.8959 13.6194 30.9856 14.0639 31.164C14.9628 31.5466 15.6807 32.2597 16.0692 33.1561C16.2555 33.6124 16.3497 34.1012 16.3462 34.5941C16.3505 35.0706 16.2701 35.5441 16.1087 35.9925C15.9488 36.422 15.7068 36.8164 15.3963 37.1535C15.0542 37.5426 14.6316 37.8526 14.1578 38.0622C13.684 38.2717 13.1703 38.3758 12.6522 38.3672C12.1609 38.3841 11.6716 38.2964 11.2167 38.1099C10.7618 37.9234 10.3517 37.6424 10.0137 37.2854C9.67716 36.9252 9.4153 36.502 9.24321 36.04C9.07112 35.5781 8.99221 35.0867 9.01102 34.5941ZM9.74982 34.5941C9.73953 34.9999 9.81005 35.4036 9.95727 35.7819C10.1045 36.1601 10.3255 36.5052 10.6074 36.7973C10.8775 37.0845 11.205 37.3116 11.5687 37.4638C11.9324 37.6161 12.324 37.6902 12.7182 37.6812C13.1076 37.6888 13.494 37.6126 13.8514 37.4578C14.2087 37.3031 14.5287 37.0733 14.7895 36.7841C15.3536 36.1864 15.6572 35.3892 15.6338 34.5677C15.6389 34.1753 15.5644 33.7859 15.4147 33.4231C15.2651 33.0603 15.0434 32.7316 14.7631 32.4569C14.4939 32.172 14.1684 31.9463 13.8073 31.7941C13.4461 31.642 13.0573 31.5666 12.6654 31.5729C12.3367 31.5723 12.0106 31.6303 11.7024 31.7445C11.3934 31.8602 11.1075 32.03 10.858 32.2458C10.5161 32.5348 10.2414 32.895 10.0533 33.3012C9.85925 33.7091 9.76002 34.1556 9.76301 34.6073L9.74982 34.5941Z" fill="#343433"/>
<path d="M18.27 31.0466H18.9956V35.5849C18.9761 35.8484 18.9761 36.113 18.9956 36.3765C19.0221 36.5365 19.0709 36.6919 19.1407 36.8382C19.2643 37.0999 19.4614 37.3199 19.708 37.4715C19.9606 37.6306 20.2538 37.7131 20.5523 37.709C20.7835 37.7304 21.0162 37.6904 21.227 37.5932C21.4378 37.4959 21.6192 37.3447 21.7529 37.1549C22.0483 36.634 22.1815 36.0368 22.1355 35.4398V31.0466H22.8347V35.6113C22.8909 36.3488 22.6956 37.0836 22.2806 37.6958C22.0713 37.9329 21.8099 38.1183 21.5169 38.2373C21.2239 38.3564 20.9073 38.4058 20.5919 38.3818C20.2636 38.41 19.9332 38.3641 19.625 38.2477C19.3167 38.1312 19.0385 37.9471 18.8109 37.709C18.3834 37.0971 18.1827 36.3552 18.2436 35.6113L18.27 31.0466Z" fill="#343433"/>
<path d="M29.9716 37.3787L29.8925 31.0594H30.5917V38.2363H29.7473L25.7895 31.9038L25.8687 38.2363H25.1694V31.0594H26.0138L29.9716 37.3787Z" fill="#343433"/>
<path d="M34.418 38.2366H33.7188V31.759H32.2808V31.0466H35.856V31.759H34.418V38.2366Z" fill="#343433"/>
</svg>
