<svg width="177" height="37" viewBox="0 0 177 37" fill="none" xmlns="http://www.w3.org/2000/svg">
<path d="M99.4628 15.9235H98.7504V8.74664H99.4628V11.9657H102.88V8.74664H103.592V15.9235H102.88V12.6517H99.4628V15.9235Z" fill="#343433"/>
<path d="M106.677 15.9235H105.965V8.74664H106.677V15.9235Z" fill="#343433"/>
<path d="M111.574 12.533H116.033C116.027 13.0258 115.923 13.5125 115.729 13.9653C115.534 14.4181 115.252 14.828 114.899 15.1715C114.561 15.5011 114.16 15.7596 113.72 15.9318C113.281 16.104 112.811 16.1864 112.339 16.1742C111.848 16.1911 111.359 16.1034 110.904 15.9169C110.449 15.7304 110.039 15.4493 109.701 15.0924C109.014 14.3872 108.634 13.4384 108.645 12.4538C108.643 11.9597 108.741 11.4703 108.935 11.0158C109.129 10.5601 109.412 10.1475 109.767 9.80209C110.101 9.46593 110.501 9.20115 110.941 9.02372C111.4 8.84929 111.888 8.7642 112.379 8.77306C113.038 8.763 113.686 8.93659 114.252 9.27439C114.813 9.62679 115.269 10.1235 115.571 10.7124H114.701C114.41 10.3244 114.041 10.001 113.619 9.76251C113.212 9.55171 112.758 9.44735 112.3 9.4591C111.908 9.45197 111.519 9.5269 111.157 9.67913C110.796 9.83136 110.471 10.0575 110.202 10.343C109.925 10.6221 109.706 10.9538 109.559 11.3186C109.412 11.6833 109.339 12.0737 109.344 12.467C109.334 12.8728 109.405 13.2765 109.552 13.6548C109.699 14.033 109.92 14.3782 110.202 14.6702C110.472 14.9574 110.8 15.1845 111.163 15.3368C111.527 15.489 111.919 15.5631 112.313 15.5541C112.958 15.5575 113.584 15.3333 114.081 14.9209C114.596 14.5071 114.954 13.93 115.097 13.285H111.574V12.533Z" fill="#343433"/>
<path d="M118.695 15.9235H117.983V8.74664H118.695V11.9657H122.112V8.74664H122.812V15.9235H122.112V12.6517H118.695V15.9235Z" fill="#343433"/>
<path d="M128.552 15.9235V8.74664H129.595L132.075 14.9868L134.555 8.74664H135.597V15.9235H134.924V9.57779L132.405 15.9235H131.771L129.252 9.57779V15.9235H128.552Z" fill="#343433"/>
<path d="M137.562 12.3356C137.559 11.8415 137.658 11.3521 137.852 10.8976C138.046 10.4421 138.329 10.0296 138.683 9.68387C139.013 9.34859 139.408 9.08347 139.843 8.90438C140.279 8.72529 140.745 8.63595 141.216 8.64167C141.705 8.6255 142.192 8.71095 142.646 8.89262C143.1 9.07429 143.512 9.3482 143.855 9.69708C144.211 10.0363 144.494 10.4449 144.686 10.8976C144.872 11.354 144.966 11.8427 144.963 12.3356C144.969 12.8123 144.888 13.286 144.725 13.7341C144.565 14.1633 144.323 14.5575 144.013 14.895C143.671 15.2848 143.249 15.5953 142.775 15.8049C142.301 16.0146 141.787 16.1183 141.269 16.1088C140.778 16.1257 140.288 16.038 139.833 15.8515C139.378 15.665 138.968 15.3839 138.63 15.027C138.281 14.6726 138.007 14.2518 137.823 13.7895C137.64 13.3273 137.551 12.8329 137.562 12.3356ZM138.3 12.3356C138.29 12.7414 138.361 13.1451 138.508 13.5234C138.655 13.9016 138.876 14.2468 139.158 14.5388C139.428 14.826 139.756 15.0531 140.119 15.2054C140.483 15.3577 140.875 15.4317 141.269 15.4227C141.658 15.4303 142.045 15.3542 142.402 15.1994C142.759 15.0446 143.079 14.8148 143.34 14.5256C143.904 13.928 144.208 13.1308 144.184 12.3093C144.19 11.9168 144.115 11.5274 143.965 11.1646C143.816 10.8018 143.594 10.4731 143.314 10.1984C143.045 9.91356 142.719 9.68785 142.358 9.53567C141.997 9.38349 141.608 9.30815 141.216 9.31448C140.887 9.31407 140.561 9.37215 140.253 9.48599C139.944 9.602 139.658 9.77173 139.409 9.98732C139.068 10.2775 138.794 10.6374 138.604 11.0427C138.41 11.4506 138.311 11.8972 138.314 12.3488L138.3 12.3356Z" fill="#343433"/>
<path d="M146.93 8.78649H148.975C149.455 8.77576 149.935 8.83352 150.399 8.95801C150.773 9.06372 151.119 9.24816 151.415 9.49891C151.834 9.85781 152.164 10.3095 152.378 10.8182C152.606 11.3195 152.723 11.8639 152.721 12.4145C152.732 13.0155 152.606 13.611 152.352 14.1559C152.121 14.6799 151.757 15.1345 151.296 15.4752C151.001 15.6863 150.671 15.8427 150.32 15.937C149.782 16.0451 149.233 16.0894 148.684 16.0689H146.956L146.93 8.78649ZM147.629 9.4725V15.2905H149.093C149.479 15.3157 149.866 15.2607 150.229 15.129C150.592 14.9973 150.924 14.7918 151.204 14.5253C151.728 13.9254 151.993 13.1431 151.943 12.3485C151.951 11.8962 151.865 11.4472 151.692 11.0293C151.537 10.6436 151.293 10.3 150.98 10.0266C150.755 9.82738 150.489 9.67892 150.201 9.59127C149.77 9.48442 149.326 9.43999 148.882 9.45934L147.629 9.4725Z" fill="#343433"/>
<path d="M154.623 8.78622H155.389V13.285C155.369 13.5484 155.369 13.813 155.389 14.0765C155.414 14.2367 155.463 14.3922 155.534 14.5383C155.657 14.8 155.854 15.02 156.101 15.1715C156.354 15.3306 156.647 15.4131 156.945 15.409C157.177 15.4304 157.409 15.3905 157.62 15.2932C157.831 15.1959 158.012 15.0447 158.146 14.8549C158.441 14.3337 158.574 13.7368 158.528 13.1398V8.74664H159.228V13.3113C159.284 14.0488 159.089 14.7836 158.674 15.3958C158.464 15.6329 158.203 15.8183 157.91 15.9373C157.617 16.0564 157.3 16.1058 156.985 16.0818C156.657 16.11 156.326 16.0641 156.018 15.9477C155.71 15.8313 155.432 15.6472 155.204 15.409C154.776 14.7971 154.576 14.0553 154.637 13.3113L154.623 8.78622Z" fill="#343433"/>
<path d="M164.782 15.9235H161.55V8.74664H162.262V15.2375H164.795L164.782 15.9235Z" fill="#343433"/>
<path d="M166.351 8.78622H167.064V13.285C167.045 13.5485 167.045 13.813 167.064 14.0765C167.09 14.2365 167.139 14.392 167.209 14.5383C167.332 14.8004 167.529 15.0206 167.776 15.1715C168.029 15.3299 168.322 15.4124 168.621 15.409C168.852 15.4304 169.085 15.3905 169.295 15.2932C169.506 15.1959 169.688 15.0447 169.821 14.8549C170.116 14.3337 170.249 13.7368 170.204 13.1398V8.74664H170.903V13.3113C170.958 14.0487 170.763 14.7831 170.349 15.3958C170.14 15.6329 169.878 15.8183 169.585 15.9373C169.292 16.0564 168.976 16.1058 168.66 16.0818C168.332 16.11 168.002 16.0641 167.693 15.9477C167.385 15.8313 167.107 15.6472 166.879 15.409C166.452 14.7971 166.251 14.0553 166.312 13.3113L166.351 8.78622Z" fill="#343433"/>
<path d="M172.839 13.9184H173.525C173.52 14.305 173.656 14.68 173.907 14.9739C174.025 15.1044 174.17 15.2074 174.332 15.2758C174.494 15.3442 174.668 15.3762 174.844 15.3696C175.027 15.3761 175.21 15.3442 175.381 15.2761C175.551 15.2079 175.705 15.105 175.834 14.9739C176.092 14.68 176.225 14.2961 176.203 13.9052C176.203 13.2544 175.702 12.7619 174.699 12.4277H174.527C174.094 12.3062 173.702 12.069 173.393 11.7416C173.15 11.43 173.028 11.0411 173.05 10.6466C173.038 10.3879 173.079 10.1296 173.17 9.88705C173.261 9.6445 173.399 9.42272 173.578 9.23498C173.75 9.0601 173.955 8.92111 174.182 8.826C174.408 8.7309 174.651 8.6816 174.897 8.6809C175.14 8.66436 175.384 8.70058 175.611 8.78711C175.839 8.87365 176.045 9.00846 176.216 9.18223C176.554 9.57029 176.741 10.0664 176.744 10.5807H176.084C176.071 10.2458 175.946 9.92514 175.728 9.67036C175.626 9.56477 175.502 9.48195 175.366 9.42739C175.23 9.37282 175.083 9.34771 174.936 9.35371C174.775 9.34733 174.615 9.37457 174.465 9.43363C174.315 9.49268 174.179 9.58227 174.066 9.69673C173.952 9.81351 173.863 9.95196 173.804 10.1038C173.745 10.2557 173.718 10.4179 173.723 10.5807C173.714 10.7478 173.748 10.9144 173.822 11.0646C173.896 11.2148 174.007 11.3434 174.145 11.4382C174.415 11.6065 174.709 11.7353 175.016 11.8208L175.583 12.0055C175.976 12.1393 176.324 12.3817 176.586 12.7047C176.803 13.032 176.909 13.4205 176.889 13.8129C176.921 14.4273 176.718 15.0309 176.322 15.5016C176.131 15.7125 175.896 15.8787 175.634 15.9882C175.372 16.0977 175.088 16.1478 174.804 16.1348C174.537 16.1437 174.271 16.094 174.025 15.9892C173.779 15.8843 173.558 15.7269 173.38 15.528C173.005 15.0777 172.812 14.5036 172.839 13.9184Z" fill="#343433"/>
<path d="M104.845 22.1779C104.566 21.7687 104.196 21.4299 103.763 21.1885C103.355 20.9788 102.903 20.8702 102.444 20.8719C102.06 20.8672 101.679 20.9435 101.327 21.0958C100.975 21.2481 100.659 21.473 100.399 21.7558C100.123 22.033 99.9048 22.3624 99.7575 22.7248C99.6103 23.0873 99.5368 23.4754 99.5414 23.8666C99.5301 24.2714 99.5989 24.6744 99.7438 25.0525C99.8887 25.4306 100.107 25.7763 100.386 26.0698C100.646 26.3567 100.964 26.585 101.318 26.7397C101.673 26.8943 102.057 26.9718 102.444 26.9669C102.902 26.9676 103.355 26.8591 103.763 26.6503C104.179 26.4291 104.536 26.1126 104.805 25.7268H105.65C105.347 26.3124 104.891 26.8049 104.33 27.1517C103.62 27.56 102.796 27.7244 101.983 27.6195C101.171 27.5147 100.415 27.1465 99.8316 26.5712C99.4908 26.2224 99.2222 25.8098 99.0411 25.357C98.86 24.9042 98.77 24.4202 98.7762 23.9326C98.7737 23.4385 98.8724 22.9491 99.0665 22.4946C99.2603 22.0389 99.5428 21.6263 99.8976 21.2808C100.225 20.9482 100.615 20.6836 101.045 20.5025C101.581 20.2928 102.158 20.2076 102.731 20.2533C103.305 20.299 103.861 20.4745 104.357 20.7663C104.923 21.1296 105.379 21.6405 105.676 22.2439L104.845 22.1779Z" fill="#343433"/>
<path d="M107.47 27.507H106.718L109.501 20.3302H110.346L113.116 27.507H112.364L111.507 25.2511H108.327L107.47 27.507ZM111.282 24.6046L109.963 20.9898L108.644 24.6046H111.282Z" fill="#343433"/>
<path d="M115.358 21.0301V27.5077H114.659V20.3308H116.598C116.944 20.3203 117.289 20.3513 117.627 20.4232C117.878 20.484 118.115 20.5914 118.327 20.7398C118.615 20.9476 118.846 21.2243 118.999 21.5446C119.165 21.8763 119.251 22.2423 119.25 22.6132C119.264 23.1354 119.091 23.6454 118.762 24.0512C118.613 24.2418 118.426 24.399 118.212 24.5127C117.998 24.6263 117.763 24.6938 117.522 24.7108L119.263 27.5209H118.445L116.308 24.0644H116.994C117.401 24.084 117.8 23.9417 118.102 23.6686C118.246 23.5394 118.359 23.3803 118.434 23.2025C118.509 23.0247 118.545 22.8325 118.538 22.6396C118.54 22.4044 118.495 22.1712 118.406 21.9536C118.32 21.7471 118.189 21.5623 118.023 21.4127C117.877 21.2793 117.7 21.1842 117.509 21.1356C117.161 21.0686 116.807 21.0421 116.453 21.0565L115.358 21.0301Z" fill="#343433"/>
<path d="M121.377 20.3307H122.696C123.329 20.2785 123.961 20.4411 124.49 20.7925C124.777 21.0898 124.967 21.4669 125.035 21.8743C125.104 22.2818 125.047 22.7003 124.873 23.0749C124.735 23.314 124.535 23.5104 124.292 23.6421C124.647 23.7692 124.952 24.0072 125.161 24.3208C125.37 24.6345 125.472 25.0071 125.453 25.3836C125.479 25.6802 125.437 25.9787 125.332 26.2572C125.227 26.5357 125.061 26.7872 124.846 26.9931C124.292 27.3806 123.62 27.5626 122.947 27.5076H121.363L121.377 20.3307ZM122.049 21.0167V23.431H122.472C122.978 23.4773 123.486 23.3765 123.936 23.1408C124.079 23.0327 124.193 22.8902 124.267 22.7265C124.341 22.5628 124.372 22.3832 124.358 22.2041C124.371 22.0323 124.34 21.8601 124.268 21.7034C124.197 21.5467 124.087 21.4103 123.949 21.307C123.547 21.0839 123.088 20.9874 122.63 21.03L122.049 21.0167ZM122.049 24.1171V26.8216H123.039C123.503 26.8643 123.969 26.748 124.358 26.4918C124.504 26.3677 124.618 26.2109 124.691 26.0344C124.764 25.8579 124.795 25.6665 124.78 25.4759C124.796 25.2833 124.766 25.0896 124.693 24.9108C124.619 24.732 124.505 24.573 124.358 24.4469C123.969 24.1896 123.503 24.0733 123.039 24.1171H122.049Z" fill="#343433"/>
<path d="M127.1 23.8393C127.098 23.3451 127.196 22.8557 127.39 22.4013C127.585 21.9457 127.867 21.5332 128.222 21.1875C128.552 20.8522 128.946 20.5871 129.382 20.408C129.817 20.2289 130.284 20.1396 130.755 20.1453C131.243 20.1291 131.73 20.2146 132.185 20.3963C132.639 20.5779 133.05 20.8518 133.393 21.2007C133.75 21.5397 134.032 21.9483 134.224 22.4013C134.411 22.8574 134.506 23.3463 134.501 23.8393C134.507 24.3159 134.427 24.7896 134.264 25.2377C134.103 25.6667 133.861 26.0609 133.551 26.3986C133.206 26.7849 132.783 27.0949 132.311 27.309C131.837 27.5146 131.324 27.618 130.807 27.6124C130.316 27.6293 129.827 27.5416 129.372 27.3551C128.917 27.1686 128.507 26.8875 128.169 26.5306C127.82 26.1762 127.545 25.7554 127.362 25.2932C127.178 24.8309 127.089 24.3365 127.1 23.8393ZM127.839 23.8393C127.828 24.2451 127.898 24.6491 128.045 25.0274C128.193 25.4057 128.414 25.7509 128.696 26.0425C128.966 26.3303 129.294 26.5578 129.657 26.7101C130.021 26.8625 130.413 26.9362 130.807 26.9264C131.197 26.934 131.583 26.8578 131.941 26.703C132.298 26.5482 132.618 26.3185 132.879 26.0293C133.443 25.4316 133.746 24.6344 133.723 23.8129C133.728 23.4204 133.654 23.031 133.504 22.6682C133.354 22.3054 133.133 21.9767 132.852 21.702C132.583 21.4172 132.258 21.1915 131.896 21.0393C131.535 20.8871 131.146 20.8118 130.755 20.8181C130.426 20.8174 130.1 20.8755 129.791 20.9896C129.483 21.1054 129.197 21.2751 128.947 21.4909C128.606 21.7808 128.332 22.1408 128.142 22.5464C127.946 22.9493 127.843 23.3911 127.839 23.8393Z" fill="#343433"/>
<path d="M141.244 26.6495L141.165 20.3302H141.865V27.507H141.02L137.062 21.1745L137.142 27.507H136.442V20.3302H137.287L141.244 26.6495Z" fill="#343433"/>
<path d="M147.574 27.507V20.3302H151.123V21.0426H148.273V23.5624H151.123V24.2748H148.273V27.5202L147.574 27.507Z" fill="#343433"/>
<path d="M153.924 27.507H153.211V20.3302H153.924V27.507Z" fill="#343433"/>
<path d="M156.322 20.3307H157.641C158.274 20.2785 158.906 20.4411 159.436 20.7925C159.722 21.0898 159.912 21.4669 159.981 21.8743C160.049 22.2818 159.992 22.7003 159.818 23.0749C159.681 23.314 159.48 23.5104 159.238 23.6421C159.594 23.7674 159.9 24.0049 160.109 24.319C160.318 24.6331 160.42 25.0067 160.399 25.3836C160.424 25.6802 160.383 25.9787 160.278 26.2572C160.173 26.5357 160.007 26.7872 159.792 26.9931C159.238 27.3806 158.566 27.5626 157.892 27.5076H156.309L156.322 20.3307ZM156.995 21.0167V23.431H157.417C157.923 23.4773 158.431 23.3765 158.881 23.1408C159.025 23.0327 159.139 22.8902 159.212 22.7265C159.286 22.5628 159.318 22.3832 159.304 22.2041C159.316 22.0323 159.285 21.8601 159.214 21.7034C159.142 21.5467 159.032 21.4103 158.895 21.307C158.493 21.0839 158.033 20.9874 157.575 21.03L156.995 21.0167ZM156.995 24.1171V26.8216H158.024C158.488 26.8643 158.953 26.748 159.343 26.4918C159.478 26.358 159.586 26.1988 159.659 26.0233C159.732 25.8478 159.77 25.6595 159.77 25.4693C159.77 25.2791 159.732 25.0909 159.659 24.9154C159.586 24.7399 159.478 24.5806 159.343 24.4469C158.954 24.1896 158.488 24.0733 158.024 24.1171H156.995Z" fill="#343433"/>
<path d="M163.211 23.549H166.232V24.2614H163.211V26.8208H166.232V27.52H162.498V20.3431H166.232V21.0556H163.211V23.549Z" fill="#343433"/>
<path d="M169.093 21.0301V27.5077H168.394V20.3309H170.32C170.665 20.3202 171.011 20.3512 171.349 20.4232C171.6 20.484 171.837 20.5914 172.048 20.7399C172.336 20.9476 172.568 21.2243 172.721 21.5446C172.887 21.8764 172.973 22.2423 172.972 22.6132C172.982 23.1371 172.804 23.6473 172.47 24.0512C172.322 24.2425 172.135 24.4001 171.921 24.5138C171.707 24.6275 171.472 24.6947 171.23 24.7109L172.972 27.5209H172.127L169.99 24.0644H170.676C171.083 24.084 171.482 23.9417 171.784 23.6686C171.925 23.5382 172.036 23.3785 172.109 23.2008C172.182 23.0231 172.215 22.8315 172.206 22.6396C172.209 22.4044 172.164 22.1712 172.075 21.9536C171.988 21.7473 171.858 21.5626 171.692 21.4127C171.546 21.2794 171.369 21.1842 171.177 21.1357C170.83 21.0687 170.476 21.0421 170.122 21.0565L169.093 21.0301Z" fill="#343433"/>
<path d="M10.6862 8.79956V12.0845H7.17688V27.5069H3.52248V12.0845H0V8.79956H10.6862Z" fill="#343433"/>
<path d="M16.0689 15.343C16.0447 14.4551 16.1379 13.5679 16.3459 12.7044C16.5235 12.0756 16.824 11.4882 17.2298 10.9762C17.8109 10.149 18.5914 9.48189 19.499 9.03683C20.4709 8.6087 21.5243 8.39712 22.5861 8.41676C23.6287 8.40517 24.6607 8.62599 25.6073 9.0632C26.5422 9.50472 27.3636 10.1546 28.0084 10.963C28.4114 11.4762 28.6993 12.0701 28.8527 12.7044C29.0458 13.5702 29.1344 14.4561 29.1166 15.343V20.8971C29.1388 21.7842 29.0501 22.6705 28.8527 23.5356C28.6741 24.1681 28.3739 24.7596 27.9688 25.2771C27.3701 26.0816 26.5814 26.7253 25.6732 27.1505C24.6955 27.5735 23.638 27.7805 22.5729 27.7573C21.5304 27.7685 20.4984 27.5477 19.5518 27.1109C18.6221 26.6669 17.8055 26.0173 17.1639 25.2111C16.7619 24.6973 16.474 24.1036 16.3195 23.4697C16.125 22.6041 16.0364 21.7181 16.0557 20.8311L16.0689 15.343ZM19.7365 15.343V20.9762C19.6749 21.9085 19.9205 22.8353 20.4357 23.6148C20.7042 23.9184 21.0391 24.1561 21.4143 24.3094C21.7895 24.4627 22.195 24.5275 22.5993 24.4987C23.009 24.53 23.4203 24.4652 23.8005 24.3095C24.1807 24.1537 24.5193 23.9114 24.7893 23.6016C25.3256 22.777 25.5759 21.7988 25.5017 20.8179V15.0263C25.5117 14.625 25.4896 14.2236 25.4358 13.8258C25.3958 13.5812 25.3155 13.3449 25.1983 13.1266C24.9407 12.694 24.5716 12.3386 24.1297 12.0976C23.6731 11.8475 23.1594 11.7202 22.6389 11.7282C22.2346 11.6994 21.8291 11.7642 21.4539 11.9175C21.0787 12.0708 20.7438 12.3084 20.4753 12.612C19.9195 13.3995 19.6538 14.3553 19.7233 15.3166L19.7365 15.343Z" fill="#343433"/>
<path d="M29.1463 15.3431C29.122 14.4552 29.2152 13.568 29.4234 12.7045C29.6 12.0753 29.9005 11.4878 30.3073 10.9763C30.9068 10.1641 31.7006 9.51538 32.616 9.08973C33.5879 8.6616 34.6413 8.45002 35.7031 8.46967C36.7457 8.45852 37.7776 8.67931 38.7243 9.1161C39.6593 9.55762 40.4807 10.2075 41.1254 11.0159C41.5264 11.5304 41.8141 12.1238 41.9697 12.7573C42.1614 13.6233 42.2499 14.509 42.2336 15.3958V20.95C42.2551 21.837 42.1665 22.7233 41.9697 23.5885C41.7902 24.2206 41.49 24.8119 41.0858 25.33C40.4872 26.1345 39.6985 26.7781 38.7903 27.2033C37.8124 27.626 36.755 27.833 35.69 27.8102C34.6474 27.8213 33.6155 27.6005 32.6688 27.1637C31.7386 26.7205 30.9219 26.0707 30.2809 25.264C29.8772 24.7512 29.5891 24.1571 29.4366 23.5226C29.2427 22.6569 29.1541 21.7709 29.1727 20.884L29.1463 15.3431ZM32.8139 15.3431V20.9763C32.7524 21.9086 32.998 22.8354 33.5131 23.6149C33.7817 23.9185 34.1165 24.1562 34.4917 24.3095C34.867 24.4628 35.2725 24.5276 35.6768 24.4988C36.0864 24.5301 36.4978 24.4653 36.878 24.3095C37.2582 24.1538 37.5968 23.9114 37.8668 23.6017C38.4031 22.777 38.6534 21.7989 38.5792 20.818V15.0264C38.5907 14.6251 38.5686 14.2235 38.5132 13.8259C38.4732 13.5813 38.393 13.345 38.2757 13.1267C38.0187 12.6937 37.6495 12.3382 37.2071 12.0977C36.7505 11.8476 36.2369 11.7203 35.7163 11.7283C35.312 11.6995 34.9065 11.7643 34.5313 11.9176C34.1561 12.0709 33.8212 12.3085 33.5527 12.6122C33.0016 13.4013 32.7406 14.3569 32.8139 15.3167V15.3431Z" fill="#343433"/>
<path d="M42.298 15.3433C42.2737 14.4554 42.3669 13.5682 42.5751 12.7048C42.7507 12.0752 43.0513 11.4874 43.459 10.9765C44.054 10.1652 44.8434 9.51652 45.7545 9.08997C46.7305 8.65997 47.7886 8.44835 48.8549 8.46991C49.8974 8.45876 50.9293 8.67956 51.876 9.11634C52.8105 9.55866 53.6317 10.2084 54.2771 11.0161C54.6787 11.5302 54.9665 12.1238 55.1214 12.7575C55.3131 13.6236 55.4016 14.5093 55.3853 15.3961V20.9502C55.406 21.8372 55.3174 22.7234 55.1214 23.5888C54.9389 24.2222 54.6341 24.8138 54.2243 25.3302C53.6269 26.1359 52.8379 26.7798 51.9288 27.2036C50.9511 27.6266 49.8935 27.8336 48.8285 27.8104C47.7859 27.8216 46.754 27.6008 45.8073 27.164C44.8769 26.7212 44.0601 26.0713 43.4194 25.2642C43.015 24.7519 42.7269 24.1577 42.5751 23.5228C42.3804 22.6573 42.2918 21.7712 42.3112 20.8843L42.298 15.3433ZM45.9656 15.3433V20.9766C45.905 21.9088 46.1506 22.8353 46.6648 23.6151C47.2444 24.1832 48.0236 24.5014 48.8351 24.5014C49.6466 24.5014 50.4257 24.1832 51.0053 23.6151C51.5407 22.7901 51.7909 21.8123 51.7177 20.8315V15.0399C51.7242 14.6382 51.6978 14.2367 51.6385 13.8394C51.5974 13.5951 51.5172 13.359 51.4011 13.1401C51.1445 12.7068 50.7752 12.3511 50.3324 12.1111C49.8759 11.861 49.3622 11.7337 48.8417 11.7417C48.4374 11.7129 48.0319 11.7777 47.6566 11.931C47.2814 12.0843 46.9466 12.322 46.678 12.6256C46.1402 13.415 45.8888 14.3648 45.9656 15.3169V15.3433Z" fill="#343433"/>
<path d="M12.5089 8.79956L10.6883 12.0845H12.5221V27.5069H16.0445V8.79956H12.5089Z" fill="#343433"/>
<path d="M60.2142 22.3617C59.9816 22.7737 59.8126 23.2185 59.7129 23.681V10.4882C59.7552 9.70907 59.9803 8.95077 60.3699 8.27468C60.7595 7.59859 61.3027 7.02366 61.9557 6.59636L73.4466 0C72.8806 0.488851 72.4407 1.10685 72.164 1.80168C71.8873 2.49651 71.7821 3.24773 71.8571 3.99184C71.9322 4.73595 72.1853 5.45102 72.5952 6.07659C73.0051 6.70217 73.5596 7.21985 74.2118 7.58582L74.3701 7.65181V12.8102C73.4401 13.2282 72.6512 13.9066 72.0986 14.7636C71.5461 15.6205 71.2536 16.6191 71.2566 17.6387C71.2566 17.8102 71.2566 17.9553 71.2566 18.1268L66.7315 20.7654L66.6127 20.673C65.5384 20.0566 64.2645 19.8882 63.0669 20.2043C61.8693 20.5203 60.8444 21.2954 60.2142 22.3617ZM91.1777 6.60957L79.7396 0.0132056C80.3099 0.533534 80.7436 1.1861 81.0025 1.91344C81.2613 2.64079 81.3374 3.42058 81.224 4.18425C81.1107 4.94791 80.8113 5.67203 80.3523 6.2928C79.8933 6.91356 79.2887 7.41194 78.5918 7.74412V12.7046C79.5779 13.0973 80.4226 13.7782 81.0157 14.6585C81.6088 15.5387 81.9227 16.5773 81.9164 17.6387C81.9068 17.8777 81.8803 18.1158 81.8372 18.3511L86.1513 20.8445C86.7831 20.4067 87.5127 20.1306 88.276 20.0405C89.0394 19.9504 89.8133 20.049 90.5296 20.3277C91.246 20.6065 91.883 21.0568 92.3847 21.6391C92.8865 22.2215 93.2376 22.918 93.4073 23.6678V10.475C93.3604 9.70207 93.1346 8.95059 92.7477 8.2798C92.3608 7.609 91.8233 7.03722 91.1777 6.60957ZM84.146 24.71C84.146 24.71 84.146 24.6045 84.146 24.5517L79.6736 21.9131C78.7458 22.5744 77.6288 22.9176 76.4898 22.8914C75.3507 22.8652 74.2508 22.4711 73.3543 21.768L69.0006 24.2746C69.0668 25.0405 68.9439 25.8109 68.6428 26.5182C68.3417 27.2255 67.8716 27.8481 67.2738 28.3313C66.6759 28.8145 65.9686 29.1436 65.2139 29.2897C64.4591 29.4358 63.6801 29.3944 62.9451 29.1691L74.3305 35.7655C75.0262 36.1158 75.7944 36.2983 76.5733 36.2983C77.3522 36.2983 78.1203 36.1158 78.8161 35.7655L90.307 29.1691C89.8355 29.331 89.341 29.4156 88.8426 29.4198C87.5958 29.4163 86.4012 28.9186 85.5208 28.0357C84.6404 27.1528 84.146 25.9568 84.146 24.71Z" fill="#343433"/>
</svg>
