<svg width="79" height="38" viewBox="0 0 79 38" fill="none" xmlns="http://www.w3.org/2000/svg">
<path d="M31.4516 7.67164L19.09 0.53437C18.3946 0.183041 17.6263 0 16.8472 0C16.0681 0 15.2998 0.183041 14.6044 0.53437L2.24278 7.65844C1.59985 8.08069 1.06301 8.64557 0.674014 9.30914C0.285022 9.97271 0.0543689 10.7171 0 11.4843L7.21646 12.2099C7.18245 10.5486 7.73349 8.92824 8.77321 7.63206C9.25758 7.17473 9.83066 6.82167 10.457 6.59475C11.0833 6.36782 11.7495 6.27186 12.4144 6.31279C13.0769 6.27602 13.74 6.37397 14.3636 6.60072C14.9872 6.82748 15.5583 7.17833 16.0424 7.63206C16.5038 8.13791 16.8584 8.7316 17.0851 9.37763C17.3118 10.0237 17.4059 10.7088 17.3617 11.392C17.296 12.9753 16.7636 14.5037 15.8314 15.7852C13.9926 18.0324 11.9668 20.1199 9.77586 22.0253C7.10799 24.4115 4.66173 27.0344 2.46705 29.8618L14.5912 36.8672C15.2867 37.2185 16.0549 37.4015 16.834 37.4015C17.6131 37.4015 18.3814 37.2185 19.0768 36.8672L27.9555 31.7484H10.1585C10.5956 31.0103 11.1038 30.3166 11.6756 29.6771C12.2913 28.9823 13.7513 27.5795 16.0556 25.4686C17.7676 23.9734 19.3682 22.3551 20.8446 20.6269C22.0429 19.1342 23.0204 17.4769 23.747 15.706C24.2538 14.4157 24.5522 13.053 24.631 11.669L26.2537 12.6057C26.745 12.9274 27.1538 13.3601 27.4471 13.8688C27.7405 14.3776 27.9101 14.9481 27.9424 15.5345V31.7352L31.4384 29.7167C32.0899 29.2879 32.632 28.7126 33.0215 28.0368C33.4109 27.361 33.6368 26.6035 33.6812 25.8248V11.5635C33.6393 10.7857 33.4158 10.0286 33.0287 9.35276C32.6415 8.67692 32.1014 8.10117 31.4516 7.67164Z" fill="#343433"/>
<path d="M38.4189 9.13568H40.4638C40.9445 9.12513 41.4242 9.18287 41.8886 9.30719C42.2618 9.41328 42.6081 9.59768 42.9045 9.84809C43.3241 10.2067 43.6539 10.6585 43.8676 11.1674C44.0832 11.6535 44.1955 12.1791 44.1974 12.7109C44.2081 13.3119 44.0818 13.9075 43.828 14.4524C43.5967 14.9763 43.2329 15.431 42.7726 15.7716C42.4772 15.9824 42.1466 16.1388 41.7963 16.2334C41.2581 16.3415 40.709 16.3858 40.1604 16.3653H38.4189V9.13568ZM39.1182 9.82171V15.6397H40.5826C40.9682 15.6649 41.3548 15.6099 41.7181 15.4782C42.0814 15.3465 42.4135 15.141 42.6934 14.8745C43.2136 14.2779 43.4789 13.5011 43.4322 12.7109C43.4393 12.2587 43.354 11.8098 43.1815 11.3916C43.0226 11.0046 42.7739 10.661 42.4559 10.389C42.2307 10.1898 41.9652 10.0413 41.6776 9.95363C41.2464 9.8466 40.8021 9.80217 40.3583 9.82171H39.1182Z" fill="#231F20"/>
<path d="M45.8046 12.7113C45.8021 12.2172 45.9009 11.7278 46.0949 11.2733C46.289 10.8178 46.5715 10.4053 46.926 10.0596C47.2587 9.72706 47.653 9.46266 48.087 9.28121C48.5061 9.11056 48.9538 9.02102 49.4063 9.01735C49.8852 9.01316 50.3603 9.1028 50.8047 9.28121C51.7045 9.66264 52.4226 10.3761 52.81 11.2733C53.0191 11.725 53.1357 12.2139 53.153 12.7113C53.1495 13.1614 53.0691 13.6075 52.9156 14.0306C52.7553 14.46 52.5133 14.8542 52.2031 15.1916C51.8616 15.5813 51.4391 15.8918 50.9651 16.1015C50.4912 16.3111 49.9772 16.4148 49.459 16.4053C48.9677 16.4222 48.4784 16.3345 48.0235 16.148C47.5686 15.9615 47.1585 15.6804 46.8205 15.3235C46.1543 14.6185 45.7898 13.6812 45.8046 12.7113ZM46.5434 12.7113C46.5331 13.1171 46.6037 13.5208 46.7509 13.8991C46.8981 14.2773 47.1191 14.6225 47.401 14.9145C47.6711 15.2017 47.9987 15.4288 48.3623 15.5811C48.726 15.7334 49.1176 15.8074 49.5118 15.7984C49.9012 15.806 50.2876 15.7299 50.645 15.5751C51.0023 15.4203 51.3223 15.1905 51.5831 14.9013C52.1407 14.3102 52.4439 13.5238 52.4274 12.7113C52.4325 12.3189 52.358 11.9295 52.2084 11.5667C52.0587 11.2039 51.837 10.8752 51.5567 10.6005C51.2875 10.3156 50.962 10.0899 50.6009 9.93775C50.2398 9.78557 49.8509 9.71025 49.459 9.71657C49.1304 9.71588 48.8042 9.77396 48.496 9.88807C48.1826 10.0029 47.8922 10.1727 47.6384 10.3894C47.2977 10.6796 47.0233 11.0395 46.8337 11.4448C46.65 11.8417 46.5554 12.274 46.5566 12.7113H46.5434Z" fill="#231F20"/>
<path d="M55.0683 9.13574H55.7807V13.674C55.7619 13.9376 55.7619 14.2021 55.7807 14.4656C55.8065 14.6257 55.8554 14.7813 55.9259 14.9274C56.0495 15.189 56.2466 15.4091 56.4931 15.5606C56.7457 15.7197 57.039 15.8022 57.3375 15.7981C57.5687 15.8195 57.8014 15.7796 58.0122 15.6823C58.223 15.585 58.4044 15.4338 58.538 15.244C58.8327 14.7228 58.9658 14.1259 58.9206 13.5289V9.13574H59.6198V13.7004C59.675 14.4378 59.4798 15.1722 59.0657 15.7849C58.8565 16.022 58.5951 16.2074 58.3021 16.3264C58.0091 16.4455 57.6924 16.4949 57.3771 16.4709C57.0488 16.4991 56.7184 16.4532 56.4101 16.3368C56.1019 16.2204 55.8237 16.0363 55.596 15.7981C55.1685 15.1862 54.9679 14.4444 55.0287 13.7004L55.0683 9.13574Z" fill="#231F20"/>
<path d="M62.0059 9.1363H63.3251C63.9581 9.08401 64.5903 9.24669 65.1194 9.59804C65.4062 9.8953 65.5963 10.2725 65.6646 10.6799C65.7329 11.0873 65.6762 11.5058 65.502 11.8804C65.3647 12.1195 65.1637 12.3159 64.9215 12.4477C65.2776 12.5729 65.5834 12.8104 65.7928 13.1245C66.0021 13.4386 66.1038 13.8122 66.0824 14.1891C66.108 14.4857 66.0667 14.7842 65.9617 15.0627C65.8567 15.3413 65.6905 15.5927 65.4756 15.7986C64.9216 16.1862 64.2497 16.3681 63.5758 16.3131H62.0059V9.1363ZM62.6787 9.82232V12.2366H63.1009C63.6068 12.2828 64.1152 12.182 64.5653 11.9463C64.7087 11.8383 64.8225 11.6958 64.8963 11.5321C64.9701 11.3684 65.0014 11.1887 64.9874 11.0097C64.9998 10.8378 64.9688 10.6657 64.8974 10.5089C64.8259 10.3522 64.7163 10.2159 64.5785 10.1126C64.1766 9.88948 63.7168 9.79292 63.2592 9.83551L62.6787 9.82232ZM62.6787 12.9226V15.6271H63.6682C64.1326 15.6698 64.5977 15.5535 64.9874 15.2973C65.1328 15.1732 65.2469 15.0165 65.3202 14.84C65.3936 14.6634 65.4242 14.4721 65.4096 14.2815C65.4253 14.0888 65.3952 13.8952 65.3218 13.7164C65.2485 13.5375 65.1339 13.3786 64.9874 13.2524C64.5982 12.9952 64.1327 12.8788 63.6682 12.9226H62.6787Z" fill="#231F20"/>
<path d="M71.4021 16.3126H68.1699V9.13574H68.8823V15.6266H71.4021V16.3126Z" fill="#231F20"/>
<path d="M73.8804 12.3548H76.9015V13.0672H73.8804V15.6266H76.9015V16.3258H73.1943V9.13574H76.9279V9.84815H73.8804V12.3548Z" fill="#231F20"/>
<path d="M38.4165 20.6271H39.7358C40.3688 20.5748 41.0009 20.7375 41.53 21.0888C41.8169 21.3861 42.0069 21.7633 42.0752 22.1707C42.1435 22.5781 42.0868 22.9966 41.9126 23.3712C41.7748 23.6099 41.574 23.8061 41.3321 23.9385C41.6882 24.0637 41.994 24.3012 42.2034 24.6153C42.4128 24.9294 42.5145 25.303 42.4931 25.6799C42.5186 25.9765 42.4774 26.275 42.3723 26.5535C42.2673 26.8321 42.1012 27.0835 41.8862 27.2894C41.3322 27.6769 40.6603 27.8589 39.9865 27.8039H38.4033L38.4165 20.6271ZM39.0893 21.3131V23.7274H39.5775C40.0834 23.7736 40.5919 23.6728 41.0419 23.4371C41.1853 23.3291 41.2991 23.1866 41.3729 23.0229C41.4467 22.8591 41.4781 22.6795 41.4641 22.5004C41.4764 22.3286 41.4455 22.1565 41.374 21.9997C41.3025 21.843 41.1929 21.7067 41.0551 21.6033C40.6532 21.3803 40.1934 21.2837 39.7358 21.3263L39.0893 21.3131ZM39.0893 24.4134V27.2235H40.0788C40.5432 27.2662 41.0084 27.1499 41.3981 26.8936C41.5333 26.7599 41.6407 26.6007 41.7139 26.4252C41.7872 26.2497 41.8249 26.0614 41.8249 25.8712C41.8249 25.681 41.7872 25.4927 41.7139 25.3172C41.6407 25.1417 41.5333 24.9825 41.3981 24.8488C41.0093 24.5905 40.5434 24.4741 40.0788 24.5189L39.0893 24.4134Z" fill="#231F20"/>
<path d="M44.4985 20.6266H45.2109V25.1649C45.1914 25.4284 45.1914 25.693 45.2109 25.9565C45.2367 26.1166 45.2856 26.2721 45.356 26.4182C45.4797 26.6799 45.6768 26.8999 45.9233 27.0515C46.1759 27.2106 46.4692 27.2931 46.7677 27.2889C46.9988 27.3104 47.2316 27.2704 47.4424 27.1731C47.6532 27.0758 47.8345 26.9247 47.9682 26.7348C48.2636 26.214 48.3968 25.6168 48.3508 25.0198V20.6266H49.05V25.1913C49.1073 25.9288 48.9119 26.664 48.4959 27.2757C48.2867 27.5129 48.0253 27.6983 47.7322 27.8173C47.4392 27.9363 47.1226 27.9858 46.8072 27.9618C46.479 27.9899 46.1485 27.9441 45.8403 27.8277C45.5321 27.7112 45.2539 27.5271 45.0262 27.2889C44.5987 26.6771 44.3981 25.9352 44.4589 25.1913L44.4985 20.6266Z" fill="#231F20"/>
<path d="M52.8521 27.8562H52.1529V21.3786H50.7148V20.6266H54.2901V21.339H52.8521V27.8562Z" fill="#231F20"/>
<path d="M57.7871 27.8562H57.0747V21.3786H55.6367V20.6266H59.212V21.339H57.7871V27.8562Z" fill="#231F20"/>
<path d="M61.5952 27.8562H60.8828V20.6266H61.5952V27.8562Z" fill="#231F20"/>
<path d="M68.789 26.9987L68.6966 20.6266H69.3958V27.8034H68.6043L64.6464 21.4709L64.7256 27.8034H64.0264V20.6266H64.8707L68.789 26.9987Z" fill="#231F20"/>
<path d="M74.2884 24.4132H78.7476C78.7334 25.4082 78.3255 26.357 77.613 27.0518C77.2749 27.3813 76.8743 27.6398 76.4347 27.812C75.9952 27.9842 75.5255 28.0666 75.0536 28.0544C74.5623 28.0713 74.0729 27.9836 73.618 27.7971C73.1632 27.6106 72.7531 27.3296 72.415 26.9726C71.7279 26.2674 71.3484 25.3186 71.3596 24.3341C71.3578 23.84 71.4566 23.3507 71.6499 22.896C71.8434 22.4402 72.1259 22.0275 72.481 21.6823C72.8158 21.3462 73.2152 21.0814 73.6552 20.9039C74.1375 20.6704 74.6632 20.5401 75.1987 20.5213C75.8576 20.5113 76.5063 20.6849 77.0721 21.0227C77.6328 21.3751 78.0885 21.8718 78.3914 22.4607H77.5206C77.2301 22.0722 76.8617 21.7486 76.4388 21.5108C76.0319 21.2995 75.5779 21.195 75.1196 21.2074C74.7275 21.1994 74.3381 21.274 73.9767 21.4263C73.6154 21.5786 73.29 21.8051 73.0219 22.0913C72.7442 22.37 72.5252 22.7016 72.3779 23.0664C72.2306 23.4312 72.158 23.8219 72.1644 24.2153C72.1534 24.6212 72.2235 25.0251 72.3708 25.4035C72.5181 25.7818 72.7394 26.1269 73.0219 26.4185C73.2921 26.7057 73.6196 26.9328 73.9833 27.0851C74.3469 27.2374 74.7386 27.3114 75.1328 27.3024C75.7782 27.3058 76.4041 27.0816 76.9006 26.6692C77.4163 26.2561 77.7749 25.6787 77.9164 25.0333H74.2884V24.4132Z" fill="#231F20"/>
</svg>
