<svg width="96" height="28" viewBox="0 0 96 28" fill="none" xmlns="http://www.w3.org/2000/svg">
<path d="M55.0391 15.2509V8.0741H58.5879V8.78651H55.7119V11.3063H58.5615V12.0187H55.7119V15.2641L55.0391 15.2509Z" fill="#343433"/>
<path d="M60.3832 11.6239C60.3806 11.1297 60.4794 10.6403 60.6734 10.1858C60.8684 9.73082 61.1508 9.31847 61.5045 8.97212C61.8374 8.63986 62.2317 8.37549 62.6655 8.19374C63.0846 8.02309 63.5323 7.93356 63.9848 7.92989C64.4637 7.92569 64.9388 8.01533 65.3832 8.19374C66.2822 8.57632 67 9.28941 67.3885 10.1858C67.5749 10.6422 67.6691 11.1309 67.6656 11.6239C67.6699 12.1004 67.5895 12.5739 67.4281 13.0223C67.2672 13.4514 67.0254 13.8455 66.7157 14.1832C66.37 14.5695 65.9477 14.8795 65.4756 15.0936C65.0011 15.2992 64.4887 15.4026 63.9716 15.397C63.4803 15.4139 62.9909 15.3262 62.536 15.1397C62.0812 14.9532 61.6711 14.6721 61.333 14.3152C60.6725 13.5793 60.3309 12.6114 60.3832 11.6239ZM61.122 11.6239C61.1117 12.0296 61.1822 12.4334 61.3294 12.8116C61.4766 13.1898 61.6976 13.535 61.9795 13.827C62.2491 14.1149 62.5766 14.3424 62.9404 14.4948C63.3042 14.6471 63.6961 14.7208 64.0903 14.711C64.4797 14.7186 64.8662 14.6424 65.2235 14.4876C65.5809 14.3328 65.9008 14.1031 66.1616 13.8139C66.7257 13.2162 67.0294 12.419 67.0059 11.5975C67.0111 11.205 66.9365 10.8156 66.7869 10.4528C66.6372 10.09 66.4155 9.76133 66.1352 9.48663C65.8661 9.20178 65.5406 8.97609 65.1794 8.82391C64.8183 8.67173 64.4294 8.5964 64.0376 8.60272C63.7089 8.60231 63.3828 8.66038 63.0745 8.77422C62.7613 8.88934 62.4709 9.05907 62.217 9.27555C61.8754 9.56484 61.6008 9.92498 61.4122 10.331C61.2227 10.7399 61.128 11.1864 61.1351 11.637L61.122 11.6239Z" fill="#343433"/>
<path d="M70.3843 8.77398V15.2516H69.6851V8.07476H71.6112C71.9567 8.06421 72.3022 8.09522 72.6402 8.16711C72.891 8.22817 73.1282 8.33555 73.3395 8.48374C73.6279 8.6911 73.8593 8.9679 74.0123 9.2885C74.1782 9.62024 74.264 9.98622 74.263 10.3571C74.277 10.8793 74.1038 11.3893 73.7748 11.7951C73.6258 11.9858 73.4384 12.143 73.2248 12.2566C73.0112 12.3702 72.7761 12.4377 72.5347 12.4548L74.2762 15.2648H73.4318L71.2946 11.8083H71.9806C72.3876 11.8265 72.7854 11.6844 73.0888 11.4125C73.2299 11.2821 73.3407 11.1224 73.4136 10.9447C73.4866 10.7669 73.5198 10.5754 73.511 10.3835C73.5131 10.1483 73.4682 9.9151 73.379 9.69748C73.2933 9.49098 73.1626 9.30619 72.9965 9.15657C72.8507 9.0228 72.6738 8.92757 72.4819 8.87952C72.1344 8.81242 71.7802 8.78586 71.4265 8.80037L70.3843 8.77398Z" fill="#343433"/>
<path d="M76.4258 15.2509V8.0741H77.468L79.9483 14.3143L82.4285 8.0741H83.4707V15.2509H82.7451V8.90523L80.2253 15.2509H79.5921L77.0722 8.90523V15.2509H76.4258Z" fill="#343433"/>
<path d="M85.6861 15.2509H84.9341L87.7178 8.0741H88.5621L91.3326 15.2509H90.6598L89.8022 12.995H86.5436L85.6861 15.2509ZM89.4988 12.3485L88.1795 8.74693L86.8602 12.3485H89.4988Z" fill="#343433"/>
<path d="M94.103 15.2512H93.4038V8.77357H91.979V8.06116H95.541V8.77357H94.103V15.2512Z" fill="#343433"/>
<path d="M57.1631 26.795H56.4639V20.3173H55.0391V19.6049H58.6011V20.3173H57.1631V26.795Z" fill="#343433"/>
<path d="M60.2221 19.6049H60.9345V24.1432C60.915 24.4067 60.915 24.6713 60.9345 24.9348C60.9603 25.0949 61.0092 25.2505 61.0797 25.3965C61.2033 25.6582 61.4004 25.8782 61.647 26.0298C61.8995 26.1889 62.1928 26.2714 62.4913 26.2673C62.7225 26.2887 62.9552 26.2488 63.166 26.1515C63.3768 26.0542 63.5582 25.903 63.6918 25.7132C63.9865 25.192 64.1196 24.5951 64.0744 23.9981V19.6049H64.7737V24.1696C64.8299 24.9071 64.6345 25.6418 64.2196 26.2541C64.0103 26.4912 63.7489 26.6766 63.4559 26.7956C63.1629 26.9147 62.8462 26.9641 62.5309 26.9401C62.2026 26.9682 61.8722 26.9224 61.5639 26.806C61.2557 26.6895 60.9775 26.5054 60.7498 26.2673C60.3223 25.6554 60.1217 24.9135 60.1826 24.1696L60.2221 19.6049Z" fill="#343433"/>
<path d="M67.1372 19.6051H68.4565C69.0894 19.5538 69.7212 19.7164 70.2507 20.0668C70.5376 20.3641 70.7276 20.7413 70.7959 21.1487C70.8642 21.5561 70.8075 21.9746 70.6333 22.3492C70.496 22.5883 70.2951 22.7847 70.0528 22.9165C70.4043 23.0478 70.7078 23.2823 70.9235 23.5893C71.125 23.9085 71.2261 24.2807 71.2138 24.6579C71.2393 24.9545 71.198 25.253 71.093 25.5315C70.988 25.8101 70.8219 26.0615 70.6069 26.2674C70.0529 26.655 69.381 26.8369 68.7072 26.7819H67.124L67.1372 19.6051ZM67.81 20.2911V22.679H68.2322C68.7381 22.7252 69.2466 22.6245 69.6966 22.3888C69.84 22.2807 69.9539 22.1382 70.0277 21.9745C70.1014 21.8108 70.1328 21.6311 70.1188 21.4521C70.1312 21.2803 70.1002 21.1081 70.0287 20.9514C69.9573 20.7946 69.8476 20.6583 69.7098 20.555C69.308 20.3319 68.8482 20.2353 68.3905 20.2779L67.81 20.2911ZM67.81 23.3914V26.0959H68.7995C69.2639 26.1386 69.7291 26.0223 70.1188 25.7661C70.2642 25.642 70.3782 25.4853 70.4516 25.3087C70.5249 25.1322 70.5556 24.9409 70.541 24.7503C70.5566 24.5576 70.5265 24.364 70.4532 24.1852C70.3798 24.0063 70.2652 23.8474 70.1188 23.7212C69.7295 23.464 69.264 23.3476 68.7995 23.3914H67.81Z" fill="#343433"/>
<path d="M74.0254 26.7947H73.313V19.6179H74.0254V26.7947Z" fill="#343433"/>
<path d="M81.2123 25.9372L81.1332 19.6179H81.8324V26.7947H80.9881L77.0302 20.4622L77.1094 26.7947H76.4102V19.6179H77.2545L81.2123 25.9372Z" fill="#343433"/>
<path d="M86.7012 23.3513H91.1603C91.1541 23.8441 91.0506 24.3308 90.8559 24.7836C90.6612 25.2363 90.3791 25.6462 90.0258 25.9898C89.6877 26.3193 89.2871 26.5778 88.8475 26.75C88.4079 26.9222 87.9383 27.0047 87.4664 26.9925C86.975 27.0094 86.4857 26.9217 86.0308 26.7351C85.5759 26.5486 85.1659 26.2676 84.8278 25.9106C84.1455 25.2033 83.7709 24.2547 83.7856 23.2721C83.7838 22.778 83.8825 22.2888 84.0758 21.8341C84.2699 21.3786 84.5524 20.966 84.907 20.6204C85.2417 20.2842 85.6411 20.0194 86.0811 19.842C86.5401 19.6675 87.0282 19.5825 87.5191 19.5913C88.178 19.5813 88.8267 19.7549 89.3925 20.0926C89.9541 20.444 90.41 20.941 90.7118 21.5306H89.8411C89.55 21.1427 89.1816 20.8192 88.7593 20.5808C88.3523 20.3694 87.8983 20.265 87.44 20.2773C87.048 20.2702 86.6589 20.3452 86.2976 20.4974C85.9364 20.6496 85.611 20.8758 85.3423 21.1613C85.0652 21.4404 84.8466 21.7721 84.6994 22.1368C84.5521 22.5015 84.4792 22.892 84.4848 23.2853C84.5176 24.0512 84.838 24.7767 85.3819 25.317C85.652 25.6041 85.9796 25.8312 86.3433 25.9835C86.7069 26.1358 87.0986 26.2099 87.4927 26.2009C88.1384 26.2054 88.7647 25.9811 89.2606 25.5676C89.7755 25.1538 90.1338 24.5767 90.2764 23.9317H86.7012V23.3513Z" fill="#343433"/>
<path d="M28.4041 13.3511L37.2037 0.0131956H45.436L36.2802 13.826C36.8678 13.6852 37.4622 13.5751 38.0612 13.4962C39.8797 13.2739 41.7249 13.5154 43.425 14.1982C45.1251 14.881 46.6247 15.9829 47.7843 17.4012C50.0953 20.0588 51.3283 23.4848 51.2408 27.0055H43.4967C43.5716 25.1523 42.9181 23.3434 41.6761 21.9659C41.087 21.3269 40.3675 20.8219 39.5663 20.485C38.7651 20.1482 37.9009 19.9873 37.0322 20.0134C36.1459 19.9999 35.2665 20.1699 34.4491 20.5127C33.6318 20.8556 32.8942 21.3638 32.2828 22.0055C31.6647 22.6086 31.1726 23.3286 30.8351 24.1235C30.4977 24.9185 30.3216 25.7725 30.3171 26.6361C30.3171 26.7285 30.3171 26.8077 30.3171 26.8868H22.7444C22.8138 24.9928 23.2018 23.1241 23.8922 21.359C25.1145 18.5405 26.6266 15.8568 28.4041 13.3511ZM7.09773 26.9396H11.4382L14.9606 21.6625L18.4171 26.9396H22.7444L17.0715 18.7205L29.8289 0H25.2774L14.9474 15.6334L4.60429 0.0131956H0L12.8234 18.7205L7.09773 26.9396Z" fill="#343433"/>
</svg>
