<svg width="94" height="41" viewBox="0 0 94 41" fill="none" xmlns="http://www.w3.org/2000/svg">
<path d="M10.8313 12.7781C11.7253 12.2858 12.4652 11.5551 12.9685 10.6672C13.6167 9.2858 13.83 7.7401 13.5803 6.23472C13.3306 4.72934 12.6296 3.3353 11.5701 2.23712C9.62274 0.949791 7.30078 0.350718 4.97369 0.535252H0V27.079H5.8708C9.06345 27.079 11.4074 26.4457 12.9026 25.1792C13.6924 24.4178 14.3024 23.4898 14.6881 22.4628C15.0738 21.4358 15.2255 20.3356 15.1321 19.2425C15.1779 17.8445 14.8009 16.4651 14.0503 15.2847C13.2545 14.1438 12.1324 13.27 10.8313 12.7781ZM2.50663 3.06827H4.74941C6.40912 2.93956 8.07002 3.30199 9.5252 4.11047C10.0332 4.49452 10.4362 5.00053 10.6968 5.58164C10.9574 6.16276 11.0672 6.80025 11.016 7.43506C11.0748 8.10072 10.964 8.7704 10.6941 9.38172C10.4242 9.99304 10.0039 10.5261 9.47243 10.9311C7.80541 11.7878 5.93095 12.1581 4.06338 11.9997H2.50663V3.06827ZM10.9368 23.3191C9.52878 24.2437 7.85379 24.6753 6.17423 24.546H2.50663V14.5459H6.16104C7.83542 14.4233 9.50268 14.8645 10.8973 15.7992C11.8922 16.8003 12.4507 18.1543 12.4507 19.5657C12.4507 20.9771 11.8922 22.3312 10.8973 23.3323L10.9368 23.3191Z" fill="#343433"/>
<path d="M77.0436 12.3559C76.5687 12.1712 75.8738 11.9338 74.9591 11.6435C73.6811 11.3331 72.4388 10.891 71.252 10.3242C70.7566 9.98157 70.346 9.53036 70.0514 9.00498C69.7897 8.44402 69.6631 7.82947 69.682 7.21074C69.6615 6.60928 69.7618 6.00982 69.9771 5.44783C70.1924 4.88584 70.5182 4.37273 70.9353 3.93893C71.3871 3.47894 71.9276 3.11552 72.524 2.8706C73.1204 2.62569 73.7604 2.5044 74.405 2.51413C75.5954 2.46203 76.7579 2.88432 77.6373 3.6883C78.4378 4.62213 78.9023 5.79728 78.9566 7.02607H81.4236C81.4154 5.12359 80.7223 3.28769 79.4711 1.85449C78.7962 1.22681 78.0028 0.740125 77.1374 0.422973C76.2721 0.105821 75.3521 -0.0354125 74.4314 0.00751912C73.461 -0.0213079 72.4945 0.143511 71.5884 0.492343C70.6824 0.841174 69.8549 1.36704 69.1543 2.03921C68.4921 2.7282 67.9756 3.54359 67.6356 4.43668C67.2956 5.32976 67.139 6.28219 67.1754 7.23711C67.1336 8.67084 67.601 10.073 68.4947 11.1949C69.7989 12.4167 71.3713 13.3159 73.0858 13.8203L73.7454 14.0446C77.4658 15.2759 79.326 17.0921 79.326 19.4932C79.4229 20.9345 78.949 22.3561 78.0067 23.451C77.5334 23.9394 76.9616 24.3215 76.3292 24.5717C75.6968 24.8219 75.0184 24.9346 74.3391 24.9022C73.6889 24.926 73.0414 24.8072 72.442 24.5543C71.8427 24.3013 71.3059 23.9202 70.8694 23.4378C69.9347 22.3341 69.4371 20.9259 69.4709 19.48H66.8851C66.8213 21.6327 67.5648 23.7315 68.9696 25.364C69.6332 26.0982 70.4495 26.6782 71.3612 27.0634C72.2728 27.4485 73.2577 27.6295 74.2467 27.5935C75.2933 27.6343 76.336 27.4439 77.3006 27.0357C78.2652 26.6275 79.1279 26.0117 79.8273 25.232C81.2913 23.497 82.0453 21.2727 81.9381 19.0051C82.0082 17.5554 81.6105 16.1216 80.8035 14.9153C79.8204 13.7206 78.5156 12.8324 77.0436 12.3559Z" fill="#343433"/>
<path d="M28.2313 17.1843V25.0999L17.3077 13.8465L28.2313 2.51394V10.4296H41.2922C41.1311 9.71323 40.9104 9.01158 40.6325 8.33194C39.6131 5.84647 37.871 3.72427 35.6317 2.24008C33.3925 0.755896 30.7593 -0.0219286 28.073 0.0073267C26.333 -0.00976024 24.6068 0.31752 22.9938 0.970371C21.3832 1.63491 19.9178 2.60737 18.6797 3.83321C17.3621 5.11284 16.3126 6.6422 15.5926 8.33194C14.8828 10.0005 14.5192 11.7958 14.524 13.609C14.4655 15.453 14.7788 17.2898 15.4452 19.0101C16.1115 20.7304 17.1173 22.2989 18.4027 23.6223C19.6384 24.9161 21.1315 25.9368 22.7857 26.6184C24.4399 27.3001 26.2185 27.6277 28.007 27.5801C29.9179 27.61 31.8125 27.2243 33.5596 26.4499C35.3068 25.6754 36.8648 24.5306 38.1259 23.0946C39.2725 21.848 40.1683 20.3923 40.7645 18.807C40.9586 18.2727 41.1172 17.7262 41.2394 17.1711L28.2313 17.1843Z" fill="#343433"/>
<path d="M80.4092 0.521851V3.13402H85.6995V27.0656H88.3117V3.13402H93.6152V0.521851H80.4092Z" fill="#343433"/>
<path d="M67.9942 13.6348C68.0075 11.8259 67.6622 10.0324 66.9784 8.3577C65.9589 5.87222 64.2168 3.75003 61.9776 2.26584C59.7383 0.781653 57.1051 0.00382823 54.4188 0.0330835C52.6788 0.0159966 50.9526 0.343318 49.3396 0.996168C47.7359 1.65435 46.2753 2.61765 45.0388 3.8326C43.7219 5.11292 42.6726 6.6421 41.9516 8.33133C41.6708 9.00659 41.4457 9.70372 41.2788 10.4158H54.3793V2.50012L65.3029 13.7535L54.3793 25.0465V17.1309H41.3052C41.8308 19.5768 43.033 21.8259 44.7749 23.6217C46.0111 24.9149 47.5043 25.9351 49.1584 26.6167C50.8125 27.2983 52.5909 27.6263 54.3793 27.5795C56.2901 27.6094 58.1847 27.2237 59.9319 26.4492C61.679 25.6748 63.237 24.53 64.4981 23.094C65.6447 21.8474 66.5406 20.3917 67.1367 18.8064C67.7274 17.1471 68.0178 15.3959 67.9942 13.6348Z" fill="#343433"/>
<path d="M23.9179 39.1238H23.1659V32.5275H21.9126V31.9074H23.9179V39.1238Z" fill="#343433"/>
<path d="M30.7914 39.1236H30.0922V37.8043H26.7412V37.1843L29.9866 32.0259H30.7914V37.1843H31.5698V37.8043H30.7914V39.1236ZM30.1186 37.1183V32.7779L27.48 37.1183H30.1186Z" fill="#343433"/>
<path d="M34.4845 35.1123C34.2485 34.9596 34.0537 34.7512 33.9172 34.5055C33.7838 34.2584 33.7157 33.9815 33.7193 33.7007C33.7187 33.4537 33.7687 33.2092 33.8663 32.9823C33.9639 32.7554 34.1069 32.5509 34.2866 32.3815C34.6344 32.0258 35.1085 31.8219 35.6059 31.8141C36.1295 31.8005 36.6371 31.995 37.0175 32.3551C37.3053 32.6239 37.4981 32.9788 37.5671 33.3665C37.6361 33.7543 37.5775 34.1539 37.4001 34.5055C37.2548 34.7611 37.0457 34.9748 36.7932 35.1255C37.1359 35.3037 37.4267 35.5672 37.6376 35.8907C37.8284 36.209 37.9245 36.5752 37.9146 36.9461C37.9277 37.2563 37.8762 37.5657 37.7635 37.855C37.6508 38.1442 37.4792 38.4069 37.2597 38.6264C37.0402 38.8459 36.7776 39.0174 36.4883 39.1301C36.1991 39.2428 35.8896 39.2943 35.5795 39.2812C35.2823 39.2876 34.987 39.2323 34.7122 39.1188C34.4374 39.0052 34.1892 38.8359 33.9832 38.6216C33.7694 38.4097 33.6007 38.1566 33.4873 37.8777C33.374 37.5989 33.3182 37.2999 33.3235 36.9989C33.3106 36.631 33.3972 36.2663 33.5742 35.9435C33.8033 35.5946 34.1163 35.3088 34.4845 35.1123ZM34.1151 37.0517C34.1089 37.2613 34.1454 37.4701 34.2225 37.6652C34.2997 37.8602 34.4157 38.0376 34.5637 38.1863C34.7034 38.3314 34.8716 38.4462 35.0578 38.5234C35.2439 38.6006 35.444 38.6385 35.6455 38.6348C35.962 38.6251 36.2691 38.5252 36.5308 38.3469C36.7924 38.1685 36.9977 37.9192 37.1224 37.6281C37.2471 37.3371 37.2862 37.0164 37.2349 36.704C37.1835 36.3915 37.0441 36.1002 36.8328 35.8643C36.6839 35.7175 36.5063 35.603 36.311 35.5281C36.1158 35.4532 35.9072 35.4194 35.6982 35.429C35.4852 35.4181 35.2723 35.4512 35.0725 35.5261C34.8728 35.601 34.6906 35.7161 34.5373 35.8643C34.3919 36.0245 34.2797 36.2119 34.2073 36.4157C34.1348 36.6195 34.1035 36.8357 34.1151 37.0517ZM34.4317 33.582C34.4262 33.7429 34.4537 33.9032 34.5127 34.053C34.5717 34.2028 34.6609 34.3388 34.7747 34.4527C34.8922 34.5645 35.031 34.6514 35.1829 34.7081C35.3349 34.7648 35.4967 34.7901 35.6587 34.7825C36.0144 34.8052 36.3662 34.6973 36.6481 34.4791C36.8721 34.2499 36.9976 33.9421 36.9976 33.6215C36.9976 33.301 36.8721 32.9933 36.6481 32.764C36.3975 32.5427 36.0721 32.4248 35.7378 32.4342C35.4036 32.4248 35.0782 32.5427 34.8275 32.764C34.7048 32.8623 34.6056 32.9867 34.5371 33.1282C34.4686 33.2697 34.4326 33.4248 34.4317 33.582Z" fill="#343433"/>
<path d="M39.6933 40.0465H39.0996L41.5535 31.9461H42.1471L39.6933 40.0465Z" fill="#343433"/>
<path d="M46.1474 39.1238H45.3822V32.5275H44.1289V31.9074H46.1342L46.1474 39.1238Z" fill="#343433"/>
<path d="M51.4648 39.1238H50.66V32.5275H49.4727V31.9074H51.478L51.4648 39.1238Z" fill="#343433"/>
<path d="M54.6143 35.4958C54.6128 35.0018 54.7115 34.5126 54.9045 34.0578C55.0986 33.6023 55.3811 33.1897 55.7356 32.844C56.0689 32.5123 56.4631 32.248 56.8966 32.0657C57.3156 31.8947 57.7634 31.8052 58.2159 31.8018C58.7045 31.7881 59.1907 31.8746 59.6445 32.0561C60.0984 32.2377 60.5101 32.5103 60.8545 32.8572C61.2041 33.1991 61.4822 33.6072 61.6724 34.0578C61.8588 34.5141 61.9529 35.0029 61.9495 35.4958C61.9568 35.9769 61.8763 36.4552 61.712 36.9074C61.552 37.3369 61.31 37.7312 60.9996 38.0684C60.6569 38.4568 60.2342 38.7663 59.7605 38.9758C59.2868 39.1854 58.7734 39.2898 58.2555 39.2821C57.7632 39.2965 57.2736 39.2063 56.8188 39.0176C56.3639 38.8288 55.9543 38.5458 55.6169 38.1871C55.2798 37.8273 55.0175 37.4041 54.8454 36.9421C54.6733 36.4801 54.5947 35.9885 54.6143 35.4958ZM55.3531 35.4958C55.342 35.9016 55.4122 36.3056 55.5595 36.6839C55.7067 37.0623 55.9281 37.4074 56.2106 37.699C56.4807 37.9862 56.8083 38.2133 57.172 38.3656C57.5356 38.5178 57.9273 38.5919 58.3214 38.5829C58.7107 38.5896 59.0969 38.5131 59.4541 38.3584C59.8113 38.2036 60.1313 37.9743 60.3927 37.6858C60.9395 37.0898 61.2328 36.3043 61.2107 35.4958C61.2158 35.1034 61.1413 34.7139 60.9916 34.3511C60.8419 33.9883 60.6202 33.6596 60.3399 33.3849C60.0703 33.1007 59.7447 32.8755 59.3837 32.7233C59.0226 32.5712 58.634 32.4955 58.2423 32.5011C57.9136 32.5004 57.5874 32.5584 57.2792 32.6725C56.9662 32.7881 56.676 32.9578 56.4217 33.1739C56.0785 33.467 55.8038 33.8317 55.6169 34.2425C55.4441 34.6373 55.3586 35.0649 55.3662 35.4958H55.3531Z" fill="#343433"/>
</svg>
