<svg width="61" height="39" viewBox="0 0 61 39" fill="none" xmlns="http://www.w3.org/2000/svg">
<path d="M3.1333 38.2059V31.0159H4.17553L6.66897 37.2692L9.14922 31.0159H10.1915V38.2059H9.50542V31.847L6.97241 38.2059H6.33915L3.80613 31.847V38.2059H3.1333Z" fill="#343433"/>
<path d="M12.4043 38.2059H11.6523L14.4492 31.0159H15.2936L18.0772 38.2059H17.3252L16.4941 35.9499H13.2619L12.4043 38.2059ZM16.2171 35.3035L14.8978 31.6887L13.5785 35.3035H16.2171Z" fill="#343433"/>
<path d="M25.1525 32.838C24.8732 32.429 24.5029 32.0904 24.0707 31.8485C23.6625 31.6393 23.2101 31.5307 22.7514 31.5319C22.3655 31.5262 21.9827 31.602 21.6281 31.7543C21.2735 31.9066 20.9549 32.132 20.6933 32.4158C20.4172 32.693 20.1992 33.0224 20.0519 33.3849C19.9047 33.7473 19.8312 34.1355 19.8358 34.5267C19.8245 34.9314 19.8933 35.3344 20.0382 35.7125C20.1831 36.0906 20.4012 36.4363 20.6801 36.7299C20.94 37.0167 21.2579 37.245 21.6127 37.3997C21.9676 37.5544 22.3512 37.6318 22.7382 37.627C23.1969 37.6276 23.6491 37.5191 24.0575 37.3104C24.4744 37.0854 24.8317 36.7642 25.0997 36.3736H25.9441C25.6419 36.9596 25.1858 37.4522 24.6248 37.7985C23.9126 38.2079 23.0859 38.3728 22.2711 38.268C21.4563 38.1632 20.6982 37.7944 20.1129 37.218C19.772 36.8692 19.5034 36.4566 19.3223 36.0038C19.1412 35.5511 19.0512 35.0671 19.0574 34.5794C19.056 34.0854 19.1547 33.5962 19.3477 33.1414C19.546 32.685 19.833 32.2724 20.192 31.9277C20.5192 31.5947 20.9094 31.3302 21.3398 31.1493C21.8759 30.9406 22.4523 30.8559 23.0257 30.9016C23.5992 30.9473 24.1549 31.1222 24.6512 31.4132C25.2173 31.7764 25.6734 32.2873 25.9705 32.8908L25.1525 32.838Z" fill="#343433"/>
<path d="M28.6597 38.2059H27.9473V31.0159H28.6597V34.2349H32.0766V31.0159H32.7758V38.2059H32.0766V34.9209H28.6597V38.2059Z" fill="#343433"/>
<path d="M35.8901 38.2059H35.1777V31.0159H35.8901V38.2059Z" fill="#343433"/>
<path d="M43.0815 37.3484L43.0023 31.0159H43.7015V38.2059H42.8836L38.9257 31.8602L39.0049 38.2059H38.3057V31.0159H39.15L43.0815 37.3484Z" fill="#343433"/>
<path d="M46.8384 34.2503H49.8595V34.9627H46.8384V37.522H49.8595V38.2213H46.1128V31.0312H49.8464V31.7437H46.8384V34.2503Z" fill="#343433"/>
<path d="M52.1172 31.0167H54.1621C54.6427 31.0069 55.1223 31.0646 55.5869 31.1882C55.9601 31.2943 56.3064 31.4787 56.6027 31.7291C57.0223 32.0877 57.3522 32.5395 57.5658 33.0484C57.7964 33.5534 57.9134 34.1028 57.9088 34.6579C57.9195 35.2589 57.7932 35.8545 57.5394 36.3994C57.3081 36.9233 56.9444 37.378 56.484 37.7187C56.1848 37.9311 55.8496 38.0876 55.4945 38.1804C54.9563 38.2884 54.4072 38.3327 53.8586 38.3123H52.1172V31.0167ZM52.8164 31.7028V37.5339H54.2808C54.6664 37.5591 55.0531 37.5041 55.4164 37.3724C55.7797 37.2408 56.1118 37.0352 56.3917 36.7688C56.9185 36.1656 57.1842 35.3778 57.1305 34.5788C57.1379 34.1265 57.0526 33.6775 56.8798 33.2595C56.7208 32.8725 56.4721 32.5288 56.1542 32.2568C55.9289 32.0576 55.6635 31.9091 55.3758 31.8215C54.9446 31.7146 54.5003 31.6702 54.0565 31.6895L52.8164 31.7028Z" fill="#343433"/>
<path d="M47.6194 0.0132056H35.7459V17.0054L25.1917 0.0527822H20.3367V21.8472H13.3709C12.2367 21.8921 11.105 21.7074 10.0439 21.3044C8.9827 20.9013 8.01388 20.288 7.1955 19.5014C6.37711 18.7148 5.72603 17.7709 5.28128 16.7266C4.83652 15.6822 4.60728 14.5588 4.60728 13.4236C4.60728 12.2885 4.83652 11.165 5.28128 10.1207C5.72603 9.07627 6.37711 8.13249 7.1955 7.34586C8.01388 6.55924 8.9827 5.94599 10.0439 5.54289C11.105 5.1398 12.2367 4.95516 13.3709 5.00006H16.7219V0.0527822H13.3709C9.82472 0.0527822 6.42378 1.46149 3.91625 3.96901C1.40872 6.47653 0 9.87746 0 13.4236C0 16.9698 1.40872 20.3707 3.91625 22.8782C6.42378 25.3858 9.82472 26.7945 13.3709 26.7945H25.2444V9.38005L35.957 26.7945H40.614V4.94727H47.5798C49.7562 5.03342 51.8148 5.95859 53.3242 7.52889C54.8336 9.09919 55.6766 11.1928 55.6766 13.3708C55.6766 15.5489 54.8336 17.6425 53.3242 19.2128C51.8148 20.7831 49.7562 21.7083 47.5798 21.7944H44.2684V26.7417H47.6194C51.1656 26.7417 54.5665 25.333 57.0741 22.8255C59.5816 20.3179 60.9903 16.917 60.9903 13.3708C60.9903 9.82468 59.5816 6.42375 57.0741 3.91623C54.5665 1.40871 51.1656 0 47.6194 0V0.0132056Z" fill="#343433"/>
</svg>
