<svg width="177" height="37" viewBox="0 0 177 37" fill="none" xmlns="http://www.w3.org/2000/svg">
<path d="M99.4629 15.9235H98.7505V8.74664H99.4629V11.9657H102.88V8.74664H103.592V15.9235H102.88V12.6517H99.4629V15.9235Z" fill="#343433"/>
<path d="M106.677 15.9235H105.965V8.74664H106.677V15.9235Z" fill="#343433"/>
<path d="M111.574 12.533H116.033C116.027 13.0258 115.924 13.5125 115.729 13.9653C115.534 14.418 115.252 14.8279 114.899 15.1715C114.561 15.501 114.16 15.7595 113.72 15.9317C113.281 16.104 112.811 16.1864 112.339 16.1742C111.848 16.1911 111.359 16.1034 110.904 15.9169C110.449 15.7303 110.039 15.4493 109.701 15.0923C109.014 14.3871 108.634 13.4383 108.645 12.4538C108.643 11.9597 108.741 11.4703 108.936 11.0158C109.129 10.5601 109.412 10.1475 109.767 9.80206C110.101 9.4659 110.501 9.20112 110.941 9.02369C111.4 8.84926 111.888 8.76417 112.379 8.77303C113.038 8.76297 113.686 8.93656 114.252 9.27436C114.813 9.62676 115.269 10.1234 115.571 10.7124H114.701C114.41 10.3244 114.041 10.0009 113.619 9.76248C113.212 9.55168 112.758 9.44732 112.3 9.45907C111.908 9.45194 111.519 9.52687 111.157 9.6791C110.796 9.83133 110.471 10.0575 110.202 10.343C109.925 10.6221 109.706 10.9538 109.559 11.3185C109.412 11.6833 109.339 12.0737 109.344 12.467C109.334 12.8728 109.405 13.2765 109.552 13.6547C109.699 14.033 109.92 14.3781 110.202 14.6702C110.472 14.9573 110.8 15.1844 111.163 15.3367C111.527 15.489 111.919 15.5631 112.313 15.5541C112.958 15.5575 113.584 15.3332 114.081 14.9208C114.596 14.507 114.954 13.93 115.097 13.285H111.574V12.533Z" fill="#343433"/>
<path d="M118.695 15.9235H117.983V8.74664H118.695V11.9657H122.112V8.74664H122.811V15.9235H122.112V12.6517H118.695V15.9235Z" fill="#343433"/>
<path d="M128.552 15.9235V8.74664H129.594L132.075 14.9868L134.555 8.74664H135.597V15.9235H134.924V9.57779L132.405 15.9235H131.771L129.251 9.57779V15.9235H128.552Z" fill="#343433"/>
<path d="M137.561 12.3356C137.559 11.8415 137.658 11.3521 137.852 10.8976C138.046 10.4421 138.328 10.0295 138.683 9.68384C139.013 9.34856 139.408 9.08344 139.843 8.90435C140.278 8.72526 140.745 8.63592 141.216 8.64164C141.705 8.62547 142.192 8.71092 142.646 8.89259C143.1 9.07426 143.512 9.34817 143.854 9.69705C144.211 10.0363 144.493 10.4449 144.686 10.8976C144.872 11.3539 144.966 11.8427 144.963 12.3356C144.968 12.8122 144.888 13.286 144.725 13.734C144.565 14.1632 144.323 14.5574 144.013 14.895C143.671 15.2847 143.249 15.5953 142.775 15.8049C142.301 16.0145 141.787 16.1182 141.269 16.1088C140.777 16.1257 140.288 16.0379 139.833 15.8514C139.378 15.6649 138.968 15.3839 138.63 15.0269C138.281 14.6725 138.007 14.2518 137.823 13.7895C137.64 13.3272 137.551 12.8329 137.561 12.3356ZM138.3 12.3356C138.29 12.7413 138.36 13.1451 138.508 13.5233C138.655 13.9016 138.876 14.2468 139.158 14.5388C139.428 14.826 139.755 15.0531 140.119 15.2054C140.483 15.3577 140.874 15.4317 141.269 15.4227C141.658 15.4303 142.044 15.3542 142.402 15.1994C142.759 15.0446 143.079 14.8148 143.34 14.5256C143.904 13.9279 144.208 13.1307 144.184 12.3092C144.189 11.9168 144.115 11.5274 143.965 11.1646C143.815 10.8018 143.594 10.4731 143.313 10.1984C143.044 9.91353 142.719 9.68782 142.358 9.53564C141.997 9.38346 141.608 9.30812 141.216 9.31445C140.887 9.31404 140.561 9.37212 140.253 9.48596C139.944 9.60197 139.658 9.7717 139.408 9.98729C139.068 10.2775 138.793 10.6373 138.604 11.0427C138.41 11.4506 138.31 11.8971 138.313 12.3488L138.3 12.3356Z" fill="#343433"/>
<path d="M146.93 8.78648H148.975C149.455 8.77575 149.935 8.8335 150.399 8.95799C150.773 9.06371 151.119 9.24815 151.415 9.4989C151.834 9.85779 152.164 10.3095 152.378 10.8182C152.606 11.3195 152.723 11.8639 152.721 12.4145C152.732 13.0155 152.606 13.611 152.352 14.1559C152.121 14.6799 151.757 15.1345 151.297 15.4752C151.001 15.6862 150.671 15.8426 150.32 15.9369C149.782 16.0451 149.233 16.0894 148.684 16.0688H146.956L146.93 8.78648ZM147.629 9.47249V15.2905H149.093C149.479 15.3157 149.866 15.2607 150.229 15.129C150.592 14.9973 150.924 14.7918 151.204 14.5253C151.728 13.9254 151.993 13.1431 151.943 12.3485C151.951 11.8962 151.865 11.4472 151.692 11.0293C151.537 10.6436 151.293 10.3 150.98 10.0266C150.755 9.82736 150.489 9.6789 150.202 9.59126C149.77 9.48441 149.326 9.43997 148.882 9.45932L147.629 9.47249Z" fill="#343433"/>
<path d="M154.624 8.78622H155.389V13.285C155.369 13.5484 155.369 13.813 155.389 14.0765C155.414 14.2367 155.463 14.3922 155.534 14.5383C155.657 14.8 155.855 15.02 156.101 15.1715C156.354 15.3306 156.647 15.4131 156.945 15.409C157.177 15.4304 157.409 15.3905 157.62 15.2932C157.831 15.1959 158.012 15.0447 158.146 14.8549C158.441 14.3337 158.574 13.7368 158.529 13.1398V8.74664H159.228V13.3113C159.284 14.0488 159.089 14.7836 158.674 15.3958C158.464 15.6329 158.203 15.8183 157.91 15.9373C157.617 16.0564 157.3 16.1058 156.985 16.0818C156.657 16.11 156.326 16.0641 156.018 15.9477C155.71 15.8313 155.432 15.6472 155.204 15.409C154.776 14.7971 154.576 14.0553 154.637 13.3113L154.624 8.78622Z" fill="#343433"/>
<path d="M164.782 15.9235H161.55V8.74664H162.262V15.2375H164.795L164.782 15.9235Z" fill="#343433"/>
<path d="M166.352 8.78622H167.064V13.285C167.045 13.5485 167.045 13.813 167.064 14.0765C167.09 14.2365 167.139 14.392 167.209 14.5383C167.332 14.8004 167.529 15.0206 167.776 15.1715C168.029 15.3299 168.322 15.4124 168.621 15.409C168.852 15.4304 169.085 15.3905 169.295 15.2932C169.506 15.1959 169.688 15.0447 169.821 14.8549C170.116 14.3337 170.249 13.7368 170.204 13.1398V8.74664H170.903V13.3113C170.958 14.0487 170.763 14.7831 170.349 15.3958C170.14 15.6329 169.878 15.8183 169.585 15.9373C169.292 16.0564 168.976 16.1058 168.66 16.0818C168.332 16.11 168.002 16.0641 167.693 15.9477C167.385 15.8313 167.107 15.6472 166.879 15.409C166.452 14.7971 166.251 14.0553 166.312 13.3113L166.352 8.78622Z" fill="#343433"/>
<path d="M172.839 13.9184H173.525C173.52 14.305 173.656 14.68 173.907 14.9739C174.025 15.1044 174.17 15.2074 174.332 15.2758C174.494 15.3442 174.669 15.3762 174.844 15.3696C175.028 15.3761 175.21 15.3442 175.381 15.2761C175.551 15.2079 175.705 15.105 175.834 14.9739C176.092 14.68 176.225 14.2961 176.203 13.9052C176.203 13.2544 175.702 12.7619 174.699 12.4277H174.528C174.094 12.3062 173.702 12.069 173.393 11.7416C173.15 11.43 173.028 11.0411 173.05 10.6466C173.039 10.3879 173.079 10.1296 173.17 9.88705C173.261 9.6445 173.399 9.42272 173.578 9.23498C173.75 9.0601 173.955 8.92111 174.182 8.826C174.408 8.7309 174.651 8.6816 174.897 8.6809C175.14 8.66436 175.384 8.70058 175.611 8.78711C175.839 8.87365 176.046 9.00846 176.216 9.18223C176.554 9.57029 176.741 10.0664 176.744 10.5807H176.084C176.071 10.2458 175.946 9.92514 175.728 9.67036C175.626 9.56477 175.503 9.48195 175.366 9.42739C175.23 9.37282 175.083 9.34771 174.937 9.35371C174.776 9.34733 174.615 9.37457 174.465 9.43363C174.315 9.49268 174.179 9.58227 174.066 9.69673C173.952 9.81351 173.863 9.95196 173.804 10.1038C173.745 10.2557 173.718 10.4179 173.723 10.5807C173.714 10.7478 173.748 10.9144 173.822 11.0646C173.896 11.2148 174.007 11.3434 174.145 11.4382C174.416 11.6065 174.709 11.7353 175.016 11.8208L175.583 12.0055C175.976 12.1393 176.324 12.3817 176.586 12.7047C176.803 13.032 176.909 13.4205 176.889 13.8129C176.921 14.4273 176.718 15.0309 176.322 15.5016C176.131 15.7125 175.896 15.8787 175.634 15.9882C175.372 16.0977 175.089 16.1478 174.805 16.1348C174.537 16.1437 174.271 16.094 174.025 15.9892C173.779 15.8843 173.559 15.7269 173.38 15.528C173.005 15.0777 172.812 14.5036 172.839 13.9184Z" fill="#343433"/>
<path d="M104.845 22.1779C104.566 21.7687 104.196 21.4299 103.763 21.1885C103.355 20.9788 102.903 20.8702 102.444 20.8719C102.06 20.8672 101.679 20.9435 101.327 21.0958C100.975 21.2481 100.658 21.473 100.399 21.7558C100.123 22.033 99.9047 22.3624 99.7575 22.7248C99.6103 23.0873 99.5368 23.4754 99.5414 23.8666C99.5301 24.2714 99.5988 24.6744 99.7437 25.0525C99.8886 25.4306 100.107 25.7763 100.386 26.0698C100.646 26.3567 100.963 26.585 101.318 26.7397C101.673 26.8943 102.057 26.9718 102.444 26.9669C102.902 26.9676 103.355 26.8591 103.763 26.6503C104.178 26.4291 104.536 26.1126 104.805 25.7268H105.65C105.347 26.3124 104.891 26.8049 104.33 27.1517C103.62 27.56 102.796 27.7244 101.983 27.6195C101.171 27.5147 100.415 27.1465 99.8316 26.5712C99.4908 26.2224 99.2221 25.8098 99.041 25.357C98.8599 24.9042 98.7699 24.4202 98.7762 23.9326C98.7736 23.4385 98.8724 22.9491 99.0664 22.4946C99.2602 22.0389 99.5428 21.6263 99.8976 21.2808C100.225 20.9482 100.615 20.6836 101.045 20.5025C101.581 20.2928 102.158 20.2076 102.731 20.2533C103.305 20.299 103.861 20.4745 104.357 20.7663C104.923 21.1296 105.379 21.6405 105.676 22.2439L104.845 22.1779Z" fill="#343433"/>
<path d="M107.47 27.507H106.718L109.501 20.3302H110.346L113.116 27.507H112.364L111.507 25.2511H108.327L107.47 27.507ZM111.282 24.6046L109.963 20.9898L108.644 24.6046H111.282Z" fill="#343433"/>
<path d="M115.358 21.03V27.5077H114.659V20.3308H116.599C116.944 20.3203 117.289 20.3513 117.628 20.4232C117.878 20.4839 118.116 20.5913 118.327 20.7398C118.615 20.9476 118.846 21.2243 119 21.5446C119.165 21.8763 119.251 22.2423 119.25 22.6132C119.264 23.1354 119.091 23.6454 118.762 24.0512C118.613 24.2418 118.426 24.399 118.212 24.5126C117.998 24.6263 117.763 24.6938 117.522 24.7108L119.263 27.5209H118.446L116.308 24.0644H116.994C117.401 24.084 117.8 23.9417 118.103 23.6686C118.246 23.5394 118.359 23.3802 118.435 23.2024C118.51 23.0246 118.545 22.8325 118.538 22.6395C118.54 22.4044 118.495 22.1712 118.406 21.9535C118.32 21.747 118.19 21.5622 118.023 21.4126C117.877 21.2793 117.701 21.1841 117.509 21.1356C117.161 21.0686 116.807 21.042 116.453 21.0564L115.358 21.03Z" fill="#343433"/>
<path d="M121.376 20.3308H122.696C123.329 20.2785 123.961 20.4412 124.49 20.7925C124.777 21.0898 124.967 21.467 125.035 21.8744C125.103 22.2818 125.047 22.7003 124.873 23.0749C124.735 23.314 124.534 23.5104 124.292 23.6422C124.647 23.7692 124.952 24.0072 125.161 24.3208C125.37 24.6345 125.472 25.0071 125.453 25.3836C125.479 25.6802 125.437 25.9787 125.332 26.2572C125.227 26.5358 125.061 26.7872 124.846 26.9931C124.292 27.3807 123.62 27.5626 122.946 27.5076H121.363L121.376 20.3308ZM122.049 21.0168V23.4311H122.471C122.977 23.4773 123.486 23.3765 123.936 23.1408C124.079 23.0327 124.193 22.8902 124.267 22.7265C124.341 22.5628 124.372 22.3832 124.358 22.2041C124.37 22.0323 124.339 21.8602 124.268 21.7034C124.197 21.5467 124.087 21.4104 123.949 21.307C123.547 21.0839 123.087 20.9874 122.63 21.03L122.049 21.0168ZM122.049 24.1171V26.8216H123.039C123.503 26.8643 123.968 26.748 124.358 26.4918C124.503 26.3677 124.617 26.211 124.691 26.0344C124.764 25.8579 124.795 25.6665 124.78 25.4759C124.796 25.2833 124.766 25.0896 124.692 24.9108C124.619 24.732 124.505 24.573 124.358 24.4469C123.969 24.1897 123.503 24.0733 123.039 24.1171H122.049Z" fill="#343433"/>
<path d="M127.1 23.8393C127.097 23.3451 127.196 22.8557 127.39 22.4013C127.584 21.9457 127.867 21.5332 128.221 21.1875C128.552 20.8522 128.946 20.5871 129.382 20.408C129.817 20.2289 130.284 20.1396 130.754 20.1453C131.243 20.1291 131.73 20.2146 132.184 20.3963C132.639 20.5779 133.05 20.8518 133.393 21.2007C133.749 21.5397 134.032 21.9483 134.224 22.4013C134.411 22.8574 134.505 23.3463 134.501 23.8393C134.507 24.3159 134.426 24.7896 134.264 25.2377C134.103 25.6667 133.861 26.0609 133.551 26.3986C133.206 26.7849 132.783 27.0949 132.311 27.309C131.837 27.5146 131.324 27.618 130.807 27.6124C130.316 27.6293 129.827 27.5416 129.372 27.3551C128.917 27.1686 128.507 26.8875 128.169 26.5306C127.82 26.1762 127.545 25.7554 127.362 25.2932C127.178 24.8309 127.089 24.3365 127.1 23.8393ZM127.839 23.8393C127.828 24.2451 127.898 24.6491 128.045 25.0274C128.192 25.4057 128.414 25.7509 128.696 26.0425C128.966 26.3303 129.293 26.5578 129.657 26.7101C130.021 26.8625 130.413 26.9362 130.807 26.9264C131.197 26.934 131.583 26.8578 131.94 26.703C132.298 26.5482 132.618 26.3185 132.878 26.0293C133.443 25.4316 133.746 24.6344 133.723 23.8129C133.728 23.4204 133.653 23.031 133.504 22.6682C133.354 22.3054 133.132 21.9767 132.852 21.702C132.583 21.4172 132.257 21.1915 131.896 21.0393C131.535 20.8871 131.146 20.8118 130.754 20.8181C130.426 20.8174 130.1 20.8755 129.791 20.9896C129.482 21.1054 129.197 21.2751 128.947 21.4909C128.606 21.7808 128.332 22.1408 128.142 22.5464C127.946 22.9493 127.842 23.3911 127.839 23.8393Z" fill="#343433"/>
<path d="M141.245 26.6495L141.165 20.3302H141.865V27.507H141.02L137.062 21.1746L137.142 27.507H136.442V20.3302H137.287L141.245 26.6495Z" fill="#343433"/>
<path d="M147.574 27.5071V20.3302H151.123V21.0426H148.273V23.5624H151.123V24.2748H148.273V27.5203L147.574 27.5071Z" fill="#343433"/>
<path d="M153.924 27.507H153.211V20.3302H153.924V27.507Z" fill="#343433"/>
<path d="M156.322 20.3308H157.641C158.274 20.2785 158.906 20.4412 159.435 20.7925C159.722 21.0898 159.912 21.467 159.981 21.8744C160.049 22.2818 159.992 22.7003 159.818 23.0749C159.681 23.314 159.48 23.5104 159.237 23.6422C159.594 23.7674 159.899 24.0049 160.109 24.319C160.318 24.6331 160.42 25.0067 160.398 25.3836C160.424 25.6802 160.383 25.9787 160.278 26.2572C160.173 26.5358 160.006 26.7872 159.791 26.9931C159.237 27.3807 158.566 27.5626 157.892 27.5076H156.309L156.322 20.3308ZM156.995 21.0168V23.4311H157.417C157.923 23.4773 158.431 23.3765 158.881 23.1408C159.025 23.0327 159.138 22.8902 159.212 22.7265C159.286 22.5628 159.317 22.3832 159.303 22.2041C159.316 22.0323 159.285 21.8602 159.213 21.7034C159.142 21.5467 159.032 21.4104 158.894 21.307C158.493 21.0839 158.033 20.9874 157.575 21.03L156.995 21.0168ZM156.995 24.1171V26.8216H158.024C158.488 26.8643 158.953 26.748 159.343 26.4918C159.478 26.3581 159.586 26.1988 159.659 26.0233C159.732 25.8478 159.77 25.6595 159.77 25.4693C159.77 25.2791 159.732 25.0909 159.659 24.9154C159.586 24.7399 159.478 24.5806 159.343 24.4469C158.954 24.1897 158.488 24.0733 158.024 24.1171H156.995Z" fill="#343433"/>
<path d="M163.211 23.549H166.232V24.2614H163.211V26.8208H166.232V27.52H162.499V20.3431H166.232V21.0556H163.211V23.549Z" fill="#343433"/>
<path d="M169.093 21.0301V27.5077H168.394V20.3308H170.32C170.665 20.3202 171.011 20.3512 171.349 20.4232C171.6 20.484 171.837 20.5914 172.048 20.7398C172.336 20.9476 172.567 21.2243 172.721 21.5446C172.887 21.8763 172.973 22.2423 172.971 22.6132C172.982 23.1371 172.804 23.6473 172.47 24.0512C172.322 24.2425 172.134 24.4001 171.921 24.5138C171.707 24.6275 171.472 24.6947 171.23 24.7108L172.971 27.5209H172.127L169.99 24.0644H170.676C171.083 24.084 171.481 23.9417 171.784 23.6686C171.925 23.5382 172.036 23.3785 172.109 23.2008C172.182 23.023 172.215 22.8315 172.206 22.6396C172.208 22.4044 172.164 22.1712 172.074 21.9536C171.988 21.7473 171.858 21.5626 171.692 21.4127C171.546 21.2793 171.369 21.1842 171.177 21.1356C170.83 21.0686 170.475 21.0421 170.122 21.0565L169.093 21.0301Z" fill="#343433"/>
<path d="M10.6862 8.79956V12.0845H7.17688V27.5069H3.52248V12.0845H0V8.79956H10.6862Z" fill="#343433"/>
<path d="M16.069 15.343C16.0448 14.4551 16.138 13.5679 16.346 12.7044C16.5237 12.0756 16.8241 11.4882 17.23 10.9762C17.811 10.149 18.5915 9.48191 19.4991 9.03684C20.471 8.60872 21.5244 8.39714 22.5862 8.41678C23.6288 8.40519 24.6609 8.62601 25.6074 9.06321C26.5424 9.50473 27.3637 10.1546 28.0085 10.963C28.4115 11.4762 28.6995 12.0701 28.8528 12.7044C29.0459 13.5702 29.1345 14.4561 29.1167 15.343V20.8971C29.1389 21.7842 29.0502 22.6706 28.8528 23.5357C28.6742 24.1681 28.374 24.7596 27.9689 25.2771C27.3703 26.0816 26.5816 26.7253 25.6734 27.1505C24.6956 27.5736 23.6381 27.7806 22.573 27.7574C21.5305 27.7685 20.4986 27.5477 19.5519 27.1109C18.6222 26.6669 17.8056 26.0173 17.164 25.2112C16.762 24.6973 16.4742 24.1036 16.3197 23.4697C16.1251 22.6041 16.0365 21.7181 16.0558 20.8312L16.069 15.343ZM19.7366 15.343V20.9763C19.675 21.9086 19.9206 22.8354 20.4358 23.6148C20.7043 23.9184 21.0392 24.1561 21.4144 24.3094C21.7896 24.4627 22.1951 24.5275 22.5994 24.4987C23.0091 24.5301 23.4204 24.4652 23.8007 24.3095C24.1809 24.1537 24.5195 23.9114 24.7894 23.6016C25.3257 22.777 25.576 21.7989 25.5018 20.818V15.0264C25.5118 14.6251 25.4898 14.2236 25.4359 13.8258C25.3959 13.5812 25.3157 13.345 25.1984 13.1266C24.9408 12.6941 24.5718 12.3387 24.1298 12.0976C23.6732 11.8475 23.1595 11.7202 22.639 11.7282C22.2347 11.6994 21.8292 11.7642 21.454 11.9175C21.0788 12.0708 20.7439 12.3084 20.4754 12.6121C19.9196 13.3995 19.6539 14.3553 19.7234 15.3166L19.7366 15.343Z" fill="#343433"/>
<path d="M29.1464 15.3431C29.122 14.4552 29.2152 13.568 29.4234 12.7045C29.6 12.0754 29.9006 11.4878 30.3073 10.9763C30.9068 10.1641 31.7007 9.51541 32.6161 9.08976C33.588 8.66163 34.6414 8.45006 35.7032 8.4697C36.7457 8.45855 37.7777 8.67934 38.7243 9.11613C39.6593 9.55765 40.4807 10.2075 41.1254 11.0159C41.5264 11.5304 41.8141 12.1239 41.9698 12.7573C42.1614 13.6234 42.25 14.509 42.2336 15.3959V20.95C42.2551 21.837 42.1665 22.7233 41.9698 23.5885C41.7902 24.2206 41.4901 24.812 41.0858 25.33C40.4872 26.1345 39.6985 26.7781 38.7903 27.2033C37.8125 27.626 36.755 27.833 35.69 27.8102C34.6475 27.8214 33.6155 27.6005 32.6688 27.1638C31.7386 26.7205 30.9219 26.0708 30.2809 25.264C29.8772 24.7512 29.5892 24.1572 29.4366 23.5226C29.2427 22.6569 29.1541 21.771 29.1727 20.884L29.1464 15.3431ZM32.814 15.3431V20.9764C32.7524 21.9087 32.998 22.8355 33.5132 23.6149C33.7817 23.9185 34.1166 24.1562 34.4918 24.3095C34.867 24.4628 35.2725 24.5276 35.6768 24.4988C36.0865 24.5301 36.4978 24.4653 36.878 24.3096C37.2582 24.1538 37.5968 23.9115 37.8668 23.6017C38.4031 22.7771 38.6534 21.799 38.5792 20.8181V15.0265C38.5907 14.6252 38.5687 14.2236 38.5132 13.8259C38.4733 13.5813 38.393 13.3451 38.2758 13.1267C38.0187 12.6938 37.6495 12.3383 37.2072 12.0977C36.7506 11.8476 36.2369 11.7204 35.7164 11.7283C35.3121 11.6996 34.9066 11.7643 34.5314 11.9176C34.1561 12.0709 33.8213 12.3086 33.5528 12.6122C33.0016 13.4014 32.7406 14.357 32.814 15.3167V15.3431Z" fill="#343433"/>
<path d="M42.2982 15.3433C42.2739 14.4555 42.3671 13.5683 42.5753 12.7048C42.7509 12.0752 43.0515 11.4875 43.4592 10.9766C44.0542 10.1653 44.8435 9.51655 45.7547 9.09C46.7307 8.66 47.7888 8.44838 48.855 8.46994C49.8976 8.45879 50.9295 8.67959 51.8762 9.11637C52.8107 9.55869 53.6319 10.2084 54.2773 11.0161C54.6789 11.5302 54.9667 12.1238 55.1216 12.7576C55.3133 13.6236 55.4018 14.5093 55.3855 15.3961V20.9502C55.4062 21.8373 55.3176 22.7234 55.1216 23.5888C54.939 24.2222 54.6343 24.8138 54.2245 25.3302C53.6271 26.1359 52.8381 26.7798 51.929 27.2036C50.9512 27.6266 49.8937 27.8337 48.8287 27.8105C47.7861 27.8216 46.7542 27.6008 45.8075 27.164C44.877 26.7212 44.0602 26.0714 43.4196 25.2643C43.0151 24.7519 42.727 24.1577 42.5753 23.5228C42.3806 22.6573 42.292 21.7713 42.3114 20.8843L42.2982 15.3433ZM45.9658 15.3433V20.9766C45.9052 21.9088 46.1507 22.8353 46.665 23.6152C47.2446 24.1832 48.0237 24.5014 48.8352 24.5014C49.6468 24.5014 50.4259 24.1832 51.0055 23.6152C51.5408 22.7901 51.7911 21.8123 51.7179 20.8315V15.0399C51.7244 14.6382 51.6979 14.2367 51.6387 13.8394C51.5976 13.5951 51.5174 13.359 51.4012 13.1402C51.1447 12.7068 50.7754 12.3511 50.3326 12.1111C49.876 11.861 49.3624 11.7338 48.8418 11.7417C48.4375 11.713 48.032 11.7778 47.6568 11.9311C47.2816 12.0843 46.9467 12.322 46.6782 12.6256C46.1404 13.4151 45.889 14.3648 45.9658 15.317V15.3433Z" fill="#343433"/>
<path d="M12.5091 8.79956L10.6885 12.0845H12.5223V27.5069H16.0448V8.79956H12.5091Z" fill="#343433"/>
<path d="M60.2142 22.3617C59.9816 22.7737 59.8126 23.2185 59.7129 23.681V10.4882C59.7552 9.70907 59.9803 8.95077 60.3699 8.27468C60.7595 7.59859 61.3027 7.02366 61.9557 6.59636L73.4466 0C72.8806 0.488851 72.4407 1.10685 72.164 1.80168C71.8873 2.49651 71.7821 3.24773 71.8571 3.99184C71.9322 4.73595 72.1853 5.45102 72.5952 6.07659C73.0051 6.70217 73.5596 7.21985 74.2118 7.58582L74.3701 7.65181V12.8102C73.4401 13.2282 72.6512 13.9066 72.0986 14.7636C71.5461 15.6205 71.2536 16.6191 71.2566 17.6387C71.2566 17.8102 71.2566 17.9553 71.2566 18.1268L66.7315 20.7654L66.6127 20.673C65.5384 20.0566 64.2645 19.8882 63.0669 20.2043C61.8693 20.5203 60.8444 21.2954 60.2142 22.3617ZM91.1777 6.60957L79.7396 0.0132056C80.3099 0.533534 80.7436 1.1861 81.0025 1.91344C81.2613 2.64079 81.3374 3.42058 81.224 4.18425C81.1107 4.94791 80.8113 5.67203 80.3523 6.2928C79.8933 6.91356 79.2887 7.41194 78.5918 7.74412V12.7046C79.5779 13.0973 80.4226 13.7782 81.0157 14.6585C81.6088 15.5387 81.9227 16.5773 81.9164 17.6387C81.9068 17.8777 81.8803 18.1158 81.8372 18.3511L86.1513 20.8445C86.7831 20.4067 87.5127 20.1306 88.276 20.0405C89.0394 19.9504 89.8133 20.049 90.5296 20.3277C91.246 20.6065 91.883 21.0568 92.3847 21.6391C92.8865 22.2215 93.2376 22.918 93.4073 23.6678V10.475C93.3604 9.70207 93.1346 8.95059 92.7477 8.2798C92.3608 7.609 91.8233 7.03722 91.1777 6.60957ZM84.146 24.71C84.146 24.71 84.146 24.6045 84.146 24.5517L79.6736 21.9131C78.7458 22.5744 77.6288 22.9176 76.4898 22.8914C75.3507 22.8652 74.2508 22.4711 73.3543 21.768L69.0006 24.2746C69.0668 25.0405 68.9439 25.8109 68.6428 26.5182C68.3417 27.2255 67.8716 27.8481 67.2738 28.3313C66.6759 28.8145 65.9686 29.1436 65.2139 29.2897C64.4591 29.4358 63.6801 29.3944 62.9451 29.1691L74.3305 35.7655C75.0262 36.1158 75.7944 36.2983 76.5733 36.2983C77.3522 36.2983 78.1203 36.1158 78.8161 35.7655L90.307 29.1691C89.8355 29.331 89.341 29.4156 88.8426 29.4198C87.5958 29.4163 86.4012 28.9186 85.5208 28.0357C84.6404 27.1528 84.146 25.9568 84.146 24.71Z" fill="#343433"/>
</svg>
