<svg width="82" height="40" viewBox="0 0 82 40" fill="none" xmlns="http://www.w3.org/2000/svg">
<path d="M0 39.1321V31.9421H3.54886V32.6545H0.699218V35.1743H3.54886V35.8867H0.699218V39.1321H0Z" fill="#343433"/>
<path d="M5.367 35.4911C5.36445 34.997 5.46323 34.5076 5.65725 34.0531C5.85137 33.5976 6.13386 33.185 6.48839 32.8394C6.81871 32.5041 7.21333 32.2389 7.64858 32.0599C8.08384 31.8808 8.55078 31.7914 9.02141 31.7971C9.49944 31.7887 9.9745 31.8739 10.4198 32.0478C11.3188 32.4304 12.0366 33.1435 12.4252 34.0399C12.6115 34.4963 12.7057 34.985 12.7022 35.4779C12.7065 35.9544 12.6261 36.4279 12.4647 36.8763C12.3048 37.3058 12.0628 37.7001 11.7523 38.0373C11.4102 38.4264 10.9876 38.7364 10.5138 38.946C10.0399 39.1555 9.52624 39.2596 9.00822 39.251C8.51687 39.2679 8.02755 39.1802 7.57266 38.9937C7.11777 38.8072 6.70772 38.5262 6.36966 38.1692C6.03474 37.8106 5.7738 37.3895 5.60176 36.93C5.42971 36.4704 5.34994 35.9815 5.367 35.4911ZM6.1058 35.4911C6.09551 35.8969 6.16603 36.3006 6.31325 36.6788C6.46047 37.0571 6.68145 37.4023 6.96333 37.6943C7.23296 37.9821 7.56042 38.2097 7.92422 38.362C8.28801 38.5144 8.6799 38.588 9.07418 38.5782C9.46355 38.5858 9.85 38.5096 10.2074 38.3548C10.5647 38.2001 10.8846 37.9703 11.1455 37.6811C11.7095 37.0834 12.0132 36.2862 11.9898 35.4647C11.9914 35.0735 11.9139 34.6861 11.7621 34.3256C11.6102 33.9652 11.387 33.6391 11.1059 33.3671C10.8367 33.0822 10.5112 32.8565 10.1501 32.7043C9.78893 32.5522 9.40006 32.4768 9.00822 32.4832C8.67959 32.483 8.35353 32.5411 8.04514 32.6547C7.73657 32.7712 7.4508 32.9408 7.2008 33.156C6.85889 33.445 6.58424 33.8052 6.39604 34.2114C6.20397 34.6153 6.1048 35.0571 6.1058 35.5043V35.4911Z" fill="#343433"/>
<path d="M15.3706 32.6551V39.1327H14.6714V31.9427H16.5975C16.943 31.9321 17.2885 31.9631 17.6266 32.035C17.8774 32.0958 18.1146 32.2032 18.3258 32.3517C18.6142 32.559 18.8456 32.8358 18.9986 33.1564C19.165 33.488 19.2508 33.8541 19.2493 34.225C19.2633 34.7472 19.0902 35.2573 18.7612 35.663C18.6121 35.8537 18.4248 36.0109 18.2111 36.1245C17.9975 36.2382 17.7624 36.3057 17.521 36.3227L19.2625 39.1327H18.4709L16.3337 35.6762H17.0197C17.4269 35.6958 17.8253 35.5535 18.1279 35.2804C18.269 35.15 18.3798 34.9903 18.4527 34.8126C18.5257 34.6349 18.5589 34.4433 18.5501 34.2514C18.5522 34.0162 18.5073 33.783 18.4181 33.5654C18.332 33.3591 18.2014 33.1744 18.0356 33.0245C17.8895 32.8912 17.7127 32.796 17.521 32.7474C17.1691 32.6794 16.8105 32.6529 16.4524 32.6683L15.3706 32.6551Z" fill="#343433"/>
<path d="M21.397 39.1321V31.9421H22.426L24.9063 38.1822L27.3865 31.9421H28.4287V39.1189H27.7559V32.7864L25.2361 39.1321H24.6028L22.083 32.7864V39.1321H21.397Z" fill="#343433"/>
<path d="M30.6729 39.1319H29.9209L32.7046 31.955H33.5489L36.3194 39.1319H35.6202L34.7627 36.8759H31.5304L30.6729 39.1319ZM34.4856 36.2295L33.1663 32.6279L31.847 36.2295H34.4856Z" fill="#343433"/>
<path d="M39.0772 39.1321H38.3648V32.6545H36.9399V31.9421H40.5152V32.6545H39.0772V39.1321Z" fill="#343433"/>
<path d="M47.1499 39.1321H46.4375V32.6545H44.9995V31.9421H48.5748V32.6545H47.1499V39.1321Z" fill="#343433"/>
<path d="M50.2001 31.9421H50.9125V36.4804C50.893 36.7439 50.893 37.0085 50.9125 37.272C50.9383 37.4321 50.9872 37.5876 51.0577 37.7337C51.1813 37.9954 51.3784 38.2154 51.625 38.367C51.8778 38.5254 52.1709 38.6078 52.4693 38.6044C52.7005 38.6259 52.9332 38.5859 53.144 38.4886C53.3548 38.3913 53.5362 38.2402 53.6698 38.0503C53.9645 37.5292 54.0977 36.9322 54.0524 36.3353V31.9421H54.7517V36.5068C54.8307 37.2571 54.649 38.0118 54.2371 38.644C54.0279 38.8812 53.7665 39.0665 53.4735 39.1856C53.1804 39.3046 52.8638 39.3541 52.5485 39.33C52.2192 39.3556 51.8885 39.3072 51.5803 39.1885C51.2722 39.0699 50.9944 38.8838 50.7674 38.644C50.3399 38.0322 50.1393 37.2903 50.2001 36.5464V31.9421Z" fill="#343433"/>
<path d="M57.126 31.9426H58.4453C59.0782 31.8903 59.7104 32.053 60.2395 32.4044C60.5373 32.6942 60.7397 33.0678 60.8199 33.4756C60.9 33.8833 60.854 34.3058 60.688 34.6867C60.5507 34.9259 60.3498 35.1222 60.1076 35.254C60.4637 35.3792 60.7694 35.6168 60.9788 35.9309C61.1882 36.245 61.2899 36.6186 61.2685 36.9955C61.2926 37.3025 61.2456 37.611 61.1312 37.897C61.0168 38.183 60.8381 38.4388 60.6089 38.6445C60.0549 39.0321 59.383 39.2141 58.7091 39.1591H57.126V31.9426ZM57.7988 32.6287V35.0429H58.221C58.7269 35.0892 59.2354 34.9884 59.6854 34.7527C59.8288 34.6446 59.9426 34.5021 60.0164 34.3384C60.0902 34.1747 60.1216 33.995 60.1076 33.816C60.1199 33.6442 60.089 33.472 60.0175 33.3153C59.946 33.1585 59.8364 33.0223 59.6986 32.9189C59.2967 32.6958 58.8369 32.5993 58.3793 32.6418L57.7988 32.6287ZM57.7988 35.729V38.4335H58.7883C59.2527 38.4762 59.7179 38.3599 60.1076 38.1036C60.2529 37.9795 60.367 37.8228 60.4403 37.6463C60.5137 37.4698 60.5443 37.2784 60.5297 37.0878C60.5454 36.8952 60.5153 36.7015 60.4419 36.5227C60.3686 36.3439 60.254 36.1849 60.1076 36.0588C59.7183 35.8015 59.2528 35.6852 58.7883 35.729H57.7988Z" fill="#343433"/>
<path d="M64.0117 39.1321H63.3257V31.9421H64.0381L64.0117 39.1321Z" fill="#343433"/>
<path d="M71.2407 38.2614L71.1615 31.9421H71.8607V39.1189H71.0164L67.0585 32.7864L67.1377 39.1189H66.4385V31.9421H67.2828L71.2407 38.2614Z" fill="#343433"/>
<path d="M76.6903 35.6759H81.1494C81.1353 36.6709 80.7273 37.6197 80.0149 38.3144C79.6768 38.6439 79.2762 38.9024 78.8366 39.0746C78.397 39.2468 77.9274 39.3293 77.4555 39.3171C76.9641 39.334 76.4748 39.2463 76.0199 39.0598C75.565 38.8733 75.155 38.5922 74.8169 38.2353C74.1298 37.5301 73.7503 36.5812 73.7615 35.5967C73.7597 35.1026 73.8584 34.6134 74.0517 34.1587C74.2446 33.7025 74.5272 33.2897 74.8829 32.945C75.2252 32.5583 75.6486 32.252 76.123 32.0479C76.582 31.8734 77.0701 31.7883 77.561 31.7972C78.2199 31.7871 78.8686 31.9607 79.4344 32.2985C79.9959 32.6499 80.4518 33.1468 80.7537 33.7365H79.8829C79.5921 33.3483 79.2237 33.0248 78.8011 32.7867C78.3942 32.5753 77.9402 32.4709 77.4818 32.4832C77.0899 32.4761 76.7008 32.551 76.3395 32.7033C75.9782 32.8555 75.6528 33.0816 75.3842 33.3671C75.1065 33.6458 74.8875 33.9774 74.7402 34.3423C74.5929 34.7071 74.5203 35.0978 74.5267 35.4912C74.5156 35.897 74.5858 36.301 74.7331 36.6793C74.8803 37.0576 75.1017 37.4028 75.3842 37.6944C75.6543 37.9815 75.9819 38.2086 76.3456 38.3609C76.7092 38.5132 77.1009 38.5873 77.495 38.5783C78.1404 38.5816 78.7664 38.3574 79.2629 37.945C79.7786 37.5319 80.1371 36.9545 80.2787 36.3091H76.6903V35.6759Z" fill="#343433"/>
<path d="M7.55948 27.6018C7.55948 27.5226 7.55948 27.4434 7.55948 27.3511C7.5477 26.4757 7.71348 25.6071 8.0468 24.7976C8.38012 23.9881 8.87407 23.2546 9.49882 22.6413C10.1074 22.004 10.841 21.4993 11.6537 21.1587C12.4665 20.8182 13.3408 20.6492 14.2218 20.6624C15.0866 20.6367 15.9468 20.7978 16.7437 21.1347C17.5405 21.4717 18.2553 21.9766 18.8393 22.6149C20.0737 23.9856 20.7225 25.7851 20.6467 27.6281H30.5018V14.8312C30.353 12.801 30.9023 10.7809 32.0585 9.10554C32.6325 8.45 33.3504 7.93619 34.156 7.60432C34.9617 7.27245 35.8332 7.13154 36.7024 7.19259C37.8253 7.17814 38.9333 7.45059 39.9214 7.98415C40.8716 8.49763 41.6649 9.25901 42.217 10.1873C42.4725 10.6512 42.6465 11.1554 42.7315 11.6781C42.8487 12.5304 42.8972 13.3907 42.8766 14.2507V27.6018H52.7184C52.7184 27.5226 52.7184 27.4434 52.7184 27.3511C52.7091 26.4717 52.8785 25.5997 53.2164 24.7878C53.5543 23.9759 54.0537 23.2411 54.6842 22.6281C55.2877 21.9951 56.0148 21.4928 56.8204 21.1524C57.6261 20.812 58.493 20.6407 59.3676 20.6492C60.2323 20.6243 61.0922 20.7859 61.8889 21.1228C62.6857 21.4597 63.4006 21.9641 63.9851 22.6017C65.2195 23.9724 65.8683 25.7719 65.7925 27.615H81.0302V0.8073H73.4575L69.4997 6.74403H73.4575V27.483C73.5199 24.0291 72.3029 20.6741 70.0406 18.0634C69.0288 16.8195 67.7511 15.8182 66.3013 15.1333C64.8515 14.4483 63.2666 14.0972 61.6632 14.1056C61.2222 14.1051 60.7816 14.1316 60.3439 14.1847C59.7493 14.2639 59.1592 14.374 58.576 14.5146L67.6791 0.767723H59.5127L50.7659 14.0792L50.6999 14.1847C50.6952 12.524 50.5049 10.8691 50.1326 9.25066C49.806 7.88654 49.1895 6.60869 48.3252 5.50391C46.9494 3.75796 45.1884 2.35375 43.18 1.40097C41.1469 0.459198 38.9297 -0.0184803 36.6892 0.00254176C34.421 -0.0382245 32.1708 0.411812 30.0928 1.32182C28.1018 2.23133 26.3729 3.62902 25.0663 5.38518C24.1957 6.48899 23.5502 7.75302 23.1666 9.10554C22.7328 11.004 22.5509 12.9512 22.6257 14.8971V16.0317C20.8404 14.7828 18.7093 14.1232 16.5306 14.1452C16.0896 14.1449 15.6491 14.1713 15.2113 14.2243C14.6167 14.3034 14.0266 14.4135 13.4435 14.5541L22.5465 0.8073H14.3802L5.63333 14.0792C3.85904 16.5893 2.35131 19.2776 1.13458 22.1004C0.449252 23.8572 0.0656603 25.7172 0 27.6018H7.55948Z" fill="#343433"/>
</svg>
