<svg width="92" height="38" viewBox="0 0 92 38" fill="none" xmlns="http://www.w3.org/2000/svg">
<path d="M40.6075 16.2527H39.9082V9.74865H38.4702V9.04944H42.0323V9.74865H40.6075V16.2527Z" fill="#343433"/>
<path d="M43.3111 16.2531H42.5723L45.3559 9.08942H46.2003L48.9708 16.2531H48.2188L47.3613 14.0103H44.1686L43.3111 16.2531ZM47.0974 13.3639L45.7781 9.74905L44.4588 13.3507L47.0974 13.3639Z" fill="#343433"/>
<path d="M50.4878 9.08939H52.005C52.3536 9.08222 52.7022 9.10429 53.0472 9.15536C53.279 9.18882 53.5027 9.26485 53.7068 9.37963C54.0104 9.55662 54.261 9.81173 54.4324 10.1184C54.6032 10.4341 54.6895 10.7886 54.6831 11.1475C54.6879 11.4946 54.6111 11.8381 54.4588 12.1501C54.3156 12.4437 54.0971 12.6941 53.8256 12.8757C53.6168 13.0112 53.3839 13.1053 53.1396 13.1527C52.8051 13.2191 52.4646 13.2501 52.1237 13.2451H51.187V16.253H50.4878V9.08939ZM51.187 9.7886V12.5195H52.2292C52.6938 12.5644 53.1597 12.4479 53.5485 12.1897C53.6907 12.0636 53.8017 11.9062 53.8726 11.7299C53.9436 11.5536 53.9727 11.3633 53.9575 11.1738C53.9719 10.9786 53.9427 10.7826 53.872 10.6C53.8012 10.4175 53.6907 10.253 53.5485 10.1184C53.156 9.86867 52.6931 9.75294 52.2292 9.7886H51.187Z" fill="#343433"/>
<path d="M57.2017 12.3084H60.2096V13.0208H57.2017V15.567H60.2096V16.2663H56.5024V9.08942H60.2228V9.74905H57.2017V12.3084Z" fill="#343433"/>
<path d="M63.0713 9.74854V16.213H62.3721V9.08891H64.2454C64.5909 9.07823 64.9364 9.10924 65.2745 9.18126C65.5255 9.24173 65.7627 9.34915 65.9737 9.49788C66.2621 9.70524 66.4935 9.98204 66.6465 10.3026C66.8104 10.6304 66.8962 10.9916 66.8972 11.3581C66.91 11.8801 66.7371 12.3897 66.4091 12.7961C66.2601 12.9867 66.0727 13.1439 65.859 13.2576C65.6454 13.3712 65.4103 13.4387 65.1689 13.4557L66.884 16.2526H66.0529L63.9288 12.7961H64.6017C65.0088 12.8156 65.4072 12.6734 65.7098 12.4003C65.8509 12.2698 65.9618 12.1102 66.0347 11.9324C66.1076 11.7547 66.1408 11.5632 66.132 11.3712C66.1334 11.1361 66.0886 10.9031 66.0001 10.6852C65.914 10.479 65.7833 10.2942 65.6175 10.1443C65.4708 10.0119 65.2943 9.91684 65.103 9.86727C64.7554 9.80064 64.4012 9.77408 64.0476 9.78812L63.0713 9.74854Z" fill="#343433"/>
<path d="M69.7759 12.3084H72.7838V13.0208H69.7759V15.567H72.7838V16.2663H69.0767V9.08942H72.797V9.74905H69.7759V12.3084Z" fill="#343433"/>
<path d="M75.0137 9.08888H77.0454C77.5216 9.08044 77.9967 9.13816 78.457 9.26039C78.8299 9.36723 79.176 9.55153 79.4728 9.80128C79.8873 10.1616 80.2124 10.6132 80.4227 11.1205C80.6506 11.6218 80.7676 12.1663 80.7657 12.7169C80.7744 13.3134 80.6482 13.9042 80.3963 14.4451C80.1656 14.9694 79.8017 15.4242 79.3409 15.7644C79.0456 15.9752 78.715 16.1316 78.3646 16.2261C77.8307 16.3331 77.2861 16.3774 76.7419 16.358H75.0269L75.0137 9.08888ZM75.6997 9.77491V15.5797H77.1641C77.5498 15.6057 77.9367 15.5511 78.3001 15.4194C78.6635 15.2876 78.9955 15.0816 79.2749 14.8145C79.7984 14.2146 80.0639 13.4323 80.0137 12.6377C80.0215 12.1854 79.9362 11.7364 79.7631 11.3184C79.6079 10.9328 79.3638 10.5892 79.0507 10.3158C78.8254 10.1166 78.56 9.9681 78.2723 9.88045C77.8412 9.77306 77.3968 9.72861 76.953 9.74852L75.6997 9.77491Z" fill="#343433"/>
<path d="M39.1826 27.7567H38.4702V20.5931H39.1826V23.7989H42.5864V20.5931H43.2856V27.7567H42.5864V24.4849H39.1826V27.7567Z" fill="#343433"/>
<path d="M46.3867 23.7989H49.3947V24.5113H46.3867V27.0575H49.3947V27.7567H45.6743V20.5931H49.3947V21.2923H46.3867V23.7989Z" fill="#343433"/>
<path d="M51.6499 27.7567H50.9111L53.6948 20.5931H54.5392L57.3096 27.7567H56.5577L55.7001 25.514H52.5075L51.6499 27.7567ZM55.4495 24.8675L54.1302 21.2659L52.8109 24.8675H55.4495Z" fill="#343433"/>
<path d="M58.8779 20.5939H60.9096C61.3858 20.5852 61.8609 20.643 62.3212 20.7654C62.694 20.8726 63.0401 21.0568 63.3371 21.3063C63.7519 21.6663 64.0771 22.118 64.287 22.6255C64.5152 23.1266 64.6323 23.6712 64.63 24.2219C64.6387 24.8184 64.5124 25.4092 64.2606 25.9501C64.0298 26.4744 63.666 26.9292 63.2052 27.2694C62.9098 27.4802 62.5792 27.6366 62.2289 27.7311C61.695 27.838 61.1504 27.8823 60.6062 27.8631H58.8911L58.8779 20.5939ZM59.5771 21.2799V27.0847H61.0415C61.4272 27.1107 61.8141 27.0561 62.1775 26.9244C62.541 26.7926 62.873 26.5866 63.1524 26.3195C63.6759 25.7196 63.9414 24.9373 63.8912 24.1427C63.899 23.6904 63.8137 23.2414 63.6405 22.8234C63.4854 22.4378 63.2413 22.0942 62.9281 21.8208C62.7029 21.6215 62.4374 21.4731 62.1497 21.3854C61.7187 21.2779 61.2743 21.2334 60.8305 21.2535L59.5771 21.2799Z" fill="#343433"/>
<path d="M71.2007 27.6778H70.5015V21.2266H69.0767V20.5273H72.6387V21.2266H71.2007V27.6778Z" fill="#343433"/>
<path d="M74.262 20.5145H74.9612V25.0396C74.9423 25.3031 74.9423 25.5676 74.9612 25.8311C74.9875 25.9911 75.0364 26.1466 75.1064 26.2929C75.23 26.5545 75.4271 26.7746 75.6737 26.9261C75.9224 27.0828 76.2108 27.1652 76.5048 27.1636C76.736 27.185 76.9687 27.1451 77.1795 27.0478C77.3903 26.9505 77.5717 26.7993 77.7053 26.6095C78 26.0884 78.1332 25.4914 78.0879 24.8944V20.5145H78.7608V25.066C78.815 25.7991 78.6197 26.5291 78.2067 27.1372C77.9994 27.3733 77.7403 27.5581 77.4496 27.6772C77.1589 27.7962 76.8445 27.8462 76.5312 27.8232C76.2124 27.846 75.8926 27.7988 75.594 27.6849C75.2954 27.5709 75.0254 27.393 74.8029 27.1636C74.3744 26.5522 74.1736 25.81 74.2356 25.066L74.262 20.5145Z" fill="#343433"/>
<path d="M81.1465 20.5145H82.4658C83.0944 20.4641 83.7218 20.6268 84.2468 20.9762C84.5325 21.2714 84.722 21.6463 84.7903 22.0514C84.8586 22.4565 84.8025 22.8728 84.6294 23.2453C84.4915 23.4841 84.2907 23.6803 84.0489 23.8127C84.4004 23.944 84.7039 24.1785 84.9196 24.4855C85.1218 24.8043 85.223 25.1768 85.2099 25.5541C85.2354 25.8507 85.1941 26.1492 85.0891 26.4277C84.9841 26.7063 84.818 26.9577 84.603 27.1636C84.049 27.5512 83.3771 27.7331 82.7032 27.6781H81.1201L81.1465 20.5145ZM81.8193 21.2005V23.6016H82.2415C82.7472 23.6434 83.2544 23.5429 83.7059 23.3113C83.8493 23.2032 83.9632 23.0608 84.0369 22.897C84.1107 22.7333 84.1421 22.5537 84.1281 22.3746C84.1417 22.2027 84.1113 22.0301 84.0397 21.8731C83.9682 21.7162 83.8578 21.58 83.7191 21.4775C83.3173 21.2544 82.8574 21.1579 82.3998 21.2005H81.8193ZM81.8193 24.2876V26.9262H82.8088C83.2732 26.9689 83.7384 26.8526 84.1281 26.5963C84.3971 26.3267 84.5483 25.9614 84.5483 25.5805C84.5483 25.1996 84.3971 24.8342 84.1281 24.5646C83.7388 24.3074 83.2733 24.191 82.8088 24.2348L81.8193 24.2876Z" fill="#343433"/>
<path d="M87.9956 23.7203H91.0299V24.4327H87.9956V26.9789H91.0299V27.6781H87.3096V20.5145H91.0299V21.2137H87.9956V23.7203Z" fill="#343433"/>
<path d="M31.5044 7.57264L19.1428 0.435363C18.7312 0.215585 18.285 0.0683107 17.8235 0C18.2868 0.200141 18.6747 0.541921 18.9317 0.97627L24.5782 10.7389H9.1558L14.7891 0.97627C15.0455 0.549491 15.4281 0.212927 15.8841 0.0131855C15.4502 0.0840447 15.0311 0.226731 14.644 0.435363L2.24278 7.55944C1.58985 7.98674 1.04662 8.56167 0.657012 9.23776C0.267399 9.91385 0.0423304 10.6721 0 11.4513V25.7258C0.00956092 26.1765 0.0942796 26.6224 0.250663 27.0451C0.201274 26.5343 0.316865 26.0211 0.580483 25.5807L5.79164 16.5569H13.7073V29.1823H2.65175C2.14713 29.1758 1.65756 29.0095 1.25332 28.7074C1.5431 29.0625 1.89105 29.3659 2.28236 29.6045L14.644 36.7418C15.3397 37.0921 16.1078 37.2746 16.8868 37.2746C17.6657 37.2746 18.4338 37.0921 19.1296 36.7418L31.4912 29.6045C31.8881 29.3629 32.2406 29.055 32.5334 28.6942C32.1256 28.999 31.631 29.1654 31.1218 29.1692H20.1322V16.5437H28.0479L33.325 25.5675C33.5703 26.0045 33.6718 26.5076 33.6153 27.0055C33.7734 26.5833 33.8581 26.1371 33.8659 25.6863V11.4645C33.8094 10.6749 33.5658 9.91014 33.1552 9.23339C32.7445 8.55664 32.1787 7.98736 31.5044 7.57264Z" fill="#343433"/>
</svg>
