<svg width="61" height="39" viewBox="0 0 61 39" fill="none" xmlns="http://www.w3.org/2000/svg">
<path d="M3.13348 38.2059V31.0159H4.17572L6.66916 37.2692L9.1494 31.0159H10.1916V38.2059H9.50561V31.847L6.97259 38.2059H6.33933L3.80632 31.847V38.2059H3.13348Z" fill="#343433"/>
<path d="M12.4043 38.2059H11.6523L14.4492 31.0159H15.2935L18.0772 38.2059H17.3252L16.4941 35.9499H13.2618L12.4043 38.2059ZM16.217 35.3035L14.8977 31.6887L13.5785 35.3035H16.217Z" fill="#343433"/>
<path d="M25.1527 32.8379C24.8734 32.429 24.5031 32.0903 24.0709 31.8485C23.6627 31.6392 23.2104 31.5307 22.7516 31.5319C22.3657 31.5262 21.9829 31.602 21.6283 31.7543C21.2737 31.9066 20.9552 32.132 20.6936 32.4158C20.4175 32.6929 20.1994 33.0224 20.0522 33.3848C19.9049 33.7472 19.8314 34.1354 19.836 34.5266C19.8247 34.9314 19.8935 35.3344 20.0384 35.7125C20.1833 36.0905 20.4015 36.4363 20.6804 36.7298C20.9402 37.0167 21.2581 37.245 21.6129 37.3996C21.9678 37.5543 22.3514 37.6318 22.7384 37.6269C23.1971 37.6276 23.6493 37.5191 24.0577 37.3103C24.4746 37.0853 24.8319 36.7642 25.1 36.3736H25.9443C25.6422 36.9596 25.1861 37.4522 24.625 37.7984C23.9128 38.2079 23.0861 38.3728 22.2713 38.268C21.4565 38.1631 20.6985 37.7943 20.1131 37.2179C19.7723 36.8692 19.5036 36.4566 19.3225 36.0038C19.1414 35.551 19.0514 35.067 19.0576 34.5794C19.0562 34.0854 19.1549 33.5962 19.3479 33.1414C19.5462 32.6849 19.8332 32.2723 20.1922 31.9276C20.5195 31.5947 20.9096 31.3301 21.34 31.1493C21.8761 30.9406 22.4525 30.8559 23.0259 30.9016C23.5994 30.9473 24.1551 31.1222 24.6514 31.4131C25.2175 31.7764 25.6736 32.2873 25.9707 32.8907L25.1527 32.8379Z" fill="#343433"/>
<path d="M28.6596 38.2059H27.9471V31.0159H28.6596V34.2349H32.0765V31.0159H32.7757V38.2059H32.0765V34.9209H28.6596V38.2059Z" fill="#343433"/>
<path d="M35.8901 38.2059H35.1777V31.0159H35.8901V38.2059Z" fill="#343433"/>
<path d="M43.0813 37.3484L43.0022 31.0159H43.7014V38.2059H42.8834L38.9256 31.8602L39.0048 38.2059H38.3055V31.0159H39.1499L43.0813 37.3484Z" fill="#343433"/>
<path d="M46.8386 34.2503H49.8598V34.9627H46.8386V37.522H49.8598V38.2213H46.113V31.0312H49.8466V31.7437H46.8386V34.2503Z" fill="#343433"/>
<path d="M52.117 31.0167H54.1619C54.6425 31.0069 55.1221 31.0646 55.5867 31.1882C55.9599 31.2943 56.3062 31.4787 56.6025 31.7291C57.0221 32.0877 57.352 32.5395 57.5656 33.0484C57.7962 33.5534 57.9132 34.1028 57.9086 34.6579C57.9193 35.2589 57.793 35.8545 57.5392 36.3994C57.3079 36.9233 56.9442 37.378 56.4838 37.7187C56.1846 37.9311 55.8494 38.0876 55.4943 38.1804C54.9561 38.2884 54.407 38.3327 53.8584 38.3123H52.117V31.0167ZM52.8162 31.7028V37.5339H54.2806C54.6662 37.5591 55.0529 37.5041 55.4162 37.3724C55.7795 37.2408 56.1116 37.0352 56.3914 36.7688C56.9182 36.1656 57.184 35.3778 57.1302 34.5788C57.1377 34.1265 57.0524 33.6775 56.8796 33.2595C56.7206 32.8725 56.4719 32.5288 56.154 32.2568C55.9287 32.0576 55.6633 31.9091 55.3756 31.8215C54.9444 31.7146 54.5001 31.6702 54.0563 31.6895L52.8162 31.7028Z" fill="#343433"/>
<path d="M47.6194 0.0132056H35.7459V17.0054L25.1917 0.0527822H20.3367V21.8472H13.3709C12.2367 21.8921 11.105 21.7074 10.0439 21.3044C8.9827 20.9013 8.01388 20.288 7.1955 19.5014C6.37711 18.7148 5.72603 17.7709 5.28128 16.7266C4.83652 15.6822 4.60728 14.5588 4.60728 13.4236C4.60728 12.2885 4.83652 11.165 5.28128 10.1207C5.72603 9.07627 6.37711 8.13249 7.1955 7.34586C8.01388 6.55924 8.9827 5.94599 10.0439 5.54289C11.105 5.1398 12.2367 4.95516 13.3709 5.00006H16.7219V0.0527822H13.3709C9.82472 0.0527822 6.42378 1.46149 3.91625 3.96901C1.40872 6.47653 0 9.87746 0 13.4236C0 16.9698 1.40872 20.3707 3.91625 22.8782C6.42378 25.3858 9.82472 26.7945 13.3709 26.7945H25.2444V9.38005L35.957 26.7945H40.614V4.94727H47.5798C49.7562 5.03342 51.8148 5.95859 53.3242 7.52889C54.8336 9.09919 55.6766 11.1928 55.6766 13.3708C55.6766 15.5489 54.8336 17.6425 53.3242 19.2128C51.8148 20.7831 49.7562 21.7083 47.5798 21.7944H44.2684V26.7417H47.6194C51.1656 26.7417 54.5665 25.333 57.0741 22.8255C59.5816 20.3179 60.9903 16.917 60.9903 13.3708C60.9903 9.82468 59.5816 6.42375 57.0741 3.91623C54.5665 1.40871 51.1656 0 47.6194 0V0.0132056Z" fill="#343433"/>
</svg>
