<svg width="102" height="39" viewBox="0 0 102 39" fill="none" xmlns="http://www.w3.org/2000/svg">
<path d="M2.53302 26.2035H0V0.543579H2.53302V26.2035Z" fill="#343433"/>
<path d="M38.2291 7.19255C37.2296 5.73595 35.9066 4.53039 34.3636 3.67011C32.859 2.89704 31.1869 2.5073 29.4955 2.53551C28.121 2.51885 26.7585 2.79226 25.4968 3.33784C24.2352 3.88342 23.1028 4.68894 22.1735 5.7018C21.1914 6.69534 20.4163 7.87398 19.8931 9.16937C19.37 10.4648 19.1092 11.8511 19.126 13.248C19.0887 14.6908 19.3364 16.1268 19.8548 17.4737C20.3732 18.8207 21.1522 20.0522 22.1471 21.0977C23.0813 22.1275 24.2252 22.9452 25.5018 23.4959C26.7784 24.0466 28.1582 24.3175 29.5483 24.2904C31.2195 24.3165 32.872 23.9362 34.3636 23.1822C35.8532 22.3902 37.133 21.2551 38.0972 19.8708H41.092C40.0071 21.9572 38.3743 23.7086 36.369 24.9368C34.3762 26.1267 32.0934 26.7431 29.7726 26.7178C28.0191 26.7647 26.2751 26.4464 24.6512 25.7832C23.0273 25.1201 21.5591 24.1264 20.3397 22.8655C19.0921 21.5983 18.1135 20.0919 17.4628 18.4369C16.8122 16.7819 16.5028 15.0124 16.5534 13.2348C16.5462 11.4765 16.8963 9.73502 17.5824 8.11606C18.2806 6.47983 19.2988 4.99966 20.5772 3.76247C21.7522 2.57554 23.1514 1.63383 24.6933 0.991987C26.2644 0.356218 27.9459 0.037878 29.6406 0.0553138C32.0605 0.0218999 34.4414 0.666215 36.5141 1.91545C38.5837 3.1944 40.2594 5.02073 41.3558 7.19255H38.2291Z" fill="#343433"/>
<path d="M49.97 13.9077H65.9201C65.8271 17.394 64.3789 20.7067 61.8831 23.1426C60.6772 24.3236 59.2469 25.2508 57.6765 25.8694C56.1062 26.488 54.4278 26.7854 52.7405 26.7442C51.0159 26.7762 49.3037 26.4478 47.7135 25.7799C46.1232 25.112 44.69 24.1193 43.5055 22.8655C42.2715 21.5931 41.3044 20.0867 40.661 18.4351C40.0175 16.7835 39.7108 15.0199 39.7587 13.2481C39.7508 11.4896 40.1009 9.74801 40.7878 8.12926C41.486 6.49304 42.5042 5.01282 43.7825 3.77563C44.9846 2.56551 46.4212 1.61376 48.0042 0.97878C49.6412 0.35086 51.3832 0.0418708 53.1362 0.0684777C55.4951 0.0336489 57.8167 0.659726 59.8382 1.87588C61.8625 3.1336 63.5083 4.91618 64.6008 7.03424H61.4345C60.3934 5.63787 59.0723 4.4741 57.5558 3.61733C56.1272 2.87339 54.5357 2.49708 52.9252 2.52235C51.5263 2.49825 50.1379 2.76756 48.8495 3.31291C47.5611 3.85827 46.4013 4.66755 45.4448 5.6886C44.4539 6.6873 43.6727 7.87404 43.1471 9.17903C42.6215 10.484 42.3621 11.8809 42.3841 13.2876C42.3372 14.7438 42.5827 16.1945 43.1061 17.5541C43.6296 18.9137 44.4203 20.1546 45.4316 21.2033C46.3953 22.225 47.5623 23.0334 48.8575 23.5765C50.1528 24.1195 51.5474 24.3852 52.9515 24.3563C55.2789 24.3374 57.5237 23.491 59.2841 21.9684C61.1289 20.4926 62.4137 18.4305 62.9253 16.1241H49.97V13.9077Z" fill="#343433"/>
<path d="M65.9355 9.54071C65.8926 8.2984 66.0169 7.05598 66.3049 5.84676C66.5492 4.98704 66.9618 4.18436 67.5186 3.48524C68.3308 2.35438 69.4153 1.44683 70.6717 0.846693C72.0091 0.258707 73.4591 -0.0294581 74.9198 0.00237794C76.3534 -0.0142545 77.7728 0.287627 79.0755 0.88627C80.3421 1.49843 81.4522 2.3919 82.3209 3.49845C82.8717 4.20697 83.2632 5.02596 83.4687 5.89954C83.735 7.10322 83.8546 8.3347 83.8249 9.56712V17.1793C83.8595 18.4257 83.7354 19.6714 83.4555 20.8865C83.2345 21.7521 82.8493 22.5672 82.3209 23.2876C81.4997 24.4203 80.4062 25.3278 79.1415 25.9261C77.7975 26.507 76.3439 26.7905 74.8802 26.7573C73.4465 26.7748 72.0269 26.4728 70.7244 25.8733C69.4408 25.2587 68.3165 24.3557 67.4394 23.2348C66.8846 22.532 66.4885 21.7174 66.2785 20.8469C66.012 19.6522 65.8924 18.4294 65.9223 17.2057L65.9355 9.54071ZM70.9619 9.54071V17.2585C70.8615 18.5669 71.2004 19.8715 71.925 20.9656C72.7214 21.7456 73.7918 22.1825 74.9066 22.1825C76.0213 22.1825 77.0917 21.7456 77.8881 20.9656C78.6236 19.8316 78.9665 18.4875 78.8644 17.1397V9.2241C78.8767 8.67283 78.8459 8.12145 78.7721 7.575C78.715 7.24242 78.6036 6.9215 78.4422 6.62512C78.0909 6.03066 77.5848 5.54274 76.9778 5.21349C76.3508 4.87306 75.6464 4.70041 74.933 4.7122C74.3779 4.67045 73.8208 4.75837 73.3056 4.96903C72.7904 5.17968 72.3313 5.50725 71.9646 5.92591C71.2378 6.97154 70.8804 8.22958 70.9487 9.50113L70.9619 9.54071Z" fill="#343433"/>
<path d="M99.5531 0.543579V4.98954H90.7403L89.9487 9.39592C90.4726 9.0904 91.0365 8.85952 91.6242 8.70991C92.2268 8.55028 92.8478 8.47041 93.4712 8.47241C94.6059 8.45916 95.7303 8.68762 96.7699 9.14255C97.8094 9.59749 98.7402 10.2685 99.5003 11.111C100.68 12.379 101.482 13.9507 101.818 15.6496C102.153 17.3485 102.009 19.1073 101.4 20.7285C101.001 21.7641 100.42 22.7202 99.685 23.5518C98.8443 24.5565 97.7955 25.3667 96.6111 25.9265C95.432 26.4674 94.1483 26.7421 92.8512 26.7312C90.5644 26.7849 88.3493 25.9312 86.6901 24.3565C85.0053 22.7381 83.9964 20.5413 83.8669 18.2087H88.6954C88.7875 19.2685 89.2554 20.2605 90.0147 21.0055C90.7624 21.7126 91.7562 22.1007 92.7852 22.0874C93.3404 22.0965 93.8907 21.983 94.397 21.755C94.9033 21.5269 95.353 21.1899 95.714 20.7681C96.5128 19.8489 96.9325 18.6605 96.8881 17.4435C96.9141 16.855 96.8224 16.2672 96.6186 15.7145C96.4147 15.1617 96.1027 14.6552 95.7008 14.2245C95.2962 13.814 94.8101 13.4928 94.2739 13.2815C93.7377 13.0702 93.1632 12.9735 92.5873 12.9976C91.8903 12.9763 91.1995 13.1353 90.582 13.4593C90.0324 13.7735 89.5769 14.229 89.2627 14.7785L84.9619 13.9079L87.4025 0.556744L99.5531 0.543579Z" fill="#343433"/>
<path d="M12.3982 11.9818C11.9409 11.8059 11.2724 11.5772 10.3929 11.2958C9.15434 10.9813 7.95175 10.5392 6.80446 9.97648C6.32483 9.63158 5.93191 9.17994 5.65669 8.6572C5.40429 8.11227 5.28233 7.51602 5.30048 6.91575C5.27896 6.33455 5.37411 5.75495 5.5803 5.21114C5.7865 4.66732 6.09957 4.17032 6.50103 3.7495C7.38058 2.92014 8.55103 2.46995 9.75965 2.49617C10.911 2.44563 12.0354 2.85366 12.8863 3.63077C13.6562 4.53629 14.0978 5.67516 14.1397 6.86297H16.5144C16.5045 5.02415 15.8351 3.24995 14.6278 1.86295C13.9767 1.25473 13.2108 0.782692 12.3748 0.474583C11.5388 0.166474 10.6497 0.0284849 9.75965 0.0687111C8.81506 0.0337659 7.87306 0.188577 6.98932 0.523943C6.10558 0.859309 5.29805 1.36844 4.61446 2.02125C3.97409 2.68747 3.47464 3.47596 3.14595 4.33961C2.81727 5.20325 2.66611 6.12429 2.7015 7.04769C2.6357 8.45159 3.07572 9.83254 3.94163 10.9396C5.22833 12.0986 6.7693 12.9391 8.44037 13.3934L9.07363 13.6045C12.6709 14.7918 14.4695 16.5509 14.4695 18.8816C14.5485 20.2726 14.0743 21.6384 13.1502 22.6811C12.6919 23.1529 12.1384 23.5215 11.5264 23.7627C10.9145 24.0038 10.2583 24.1118 9.60134 24.0795C8.9737 24.1023 8.34865 23.9878 7.76986 23.744C7.19107 23.5002 6.67249 23.1329 6.25037 22.6679C5.36544 21.6079 4.8965 20.262 4.93109 18.8816H2.5168C2.43158 20.969 3.1331 23.0124 4.48253 24.6072C5.13473 25.3125 5.93309 25.8668 6.8218 26.2314C7.71051 26.596 8.66814 26.7621 9.62772 26.7181C10.6418 26.7597 11.6525 26.5767 12.5876 26.1822C13.5227 25.7876 14.3591 25.1912 15.0368 24.4357C16.4471 22.7576 17.1726 20.6094 17.0685 18.4198C17.1339 17.0177 16.7503 15.6312 15.9735 14.462C15.0402 13.3138 13.8005 12.4538 12.3982 11.9818Z" fill="#343433"/>
<path d="M0 38.2363V31.0594H1.04223L3.52248 37.2996L6.00272 31.0594H7.04496V38.2363H6.37212V31.8906L3.8523 38.2363H3.16627L0.633254 31.8906V38.2363H0Z" fill="#343433"/>
<path d="M9.0109 34.594C9.00834 34.0999 9.10712 33.6105 9.30114 33.156C9.49465 32.7002 9.77722 32.2875 10.1323 31.9423C10.4626 31.607 10.8572 31.3419 11.2925 31.1628C11.7277 30.9837 12.1947 30.8943 12.6653 30.9C13.1442 30.8958 13.6193 30.9855 14.0637 31.1639C14.9627 31.5465 15.6805 32.2596 16.069 33.156C16.2554 33.6124 16.3496 34.1011 16.3461 34.594C16.3504 35.0706 16.27 35.5441 16.1086 35.9925C15.9486 36.422 15.7067 36.8163 15.3962 37.1535C15.0541 37.5425 14.6315 37.8525 14.1577 38.0621C13.6838 38.2717 13.1701 38.3758 12.6521 38.3672C12.1608 38.3841 11.6714 38.2964 11.2166 38.1099C10.7617 37.9234 10.3516 37.6423 10.0136 37.2853C9.67703 36.9251 9.41518 36.5019 9.24309 36.04C9.071 35.5781 8.99208 35.0866 9.0109 34.594ZM9.7497 34.594C9.73941 34.9998 9.80993 35.4036 9.95715 35.7818C10.1044 36.16 10.3253 36.5052 10.6072 36.7972C10.8774 37.0844 11.2049 37.3115 11.5686 37.4638C11.9323 37.6161 12.3239 37.6901 12.7181 37.6812C13.1074 37.6888 13.4939 37.6126 13.8513 37.4578C14.2086 37.303 14.5285 37.0733 14.7893 36.7841C15.3534 36.1864 15.6571 35.3891 15.6337 34.5676C15.6388 34.1752 15.5643 33.7858 15.4146 33.423C15.265 33.0602 15.0433 32.7315 14.763 32.4568C14.4938 32.172 14.1683 31.9463 13.8072 31.7941C13.446 31.6419 13.0572 31.5666 12.6653 31.5729C12.3366 31.5722 12.0105 31.6303 11.7022 31.7444C11.3933 31.8602 11.1074 32.0299 10.8579 32.2457C10.516 32.5347 10.2413 32.8949 10.0531 33.3011C9.85913 33.709 9.7599 34.1555 9.76289 34.6072L9.7497 34.594Z" fill="#343433"/>
<path d="M18.2699 31.0466H18.9955V35.5849C18.976 35.8484 18.976 36.113 18.9955 36.3765C19.022 36.5365 19.0708 36.6919 19.1406 36.8382C19.2642 37.0999 19.4613 37.3199 19.7079 37.4715C19.9605 37.6306 20.2538 37.7131 20.5522 37.709C20.7834 37.7304 21.0161 37.6904 21.2269 37.5932C21.4377 37.4959 21.6191 37.3447 21.7528 37.1549C22.0482 36.634 22.1814 36.0368 22.1354 35.4398V31.0466H22.8346V35.6113C22.8908 36.3488 22.6955 37.0836 22.2805 37.6958C22.0712 37.9329 21.8098 38.1183 21.5168 38.2373C21.2238 38.3564 20.9072 38.4058 20.5918 38.3818C20.2635 38.41 19.9331 38.3641 19.6249 38.2477C19.3166 38.1312 19.0385 37.9471 18.8108 37.709C18.3833 37.0971 18.1826 36.3552 18.2435 35.6113L18.2699 31.0466Z" fill="#343433"/>
<path d="M29.9715 37.3787L29.8924 31.0594H30.5916V38.2363H29.7473L25.7894 31.9038L25.8686 38.2363H25.1694V31.0594H26.0137L29.9715 37.3787Z" fill="#343433"/>
<path d="M34.4182 38.2366H33.719V31.759H32.281V31.0466H35.8562V31.759H34.4182V38.2366Z" fill="#343433"/>
</svg>
