<svg width="121" height="38" viewBox="0 0 121 38" fill="none" xmlns="http://www.w3.org/2000/svg">
<path d="M31.4648 7.67006L19.1032 0.532775C18.4075 0.182458 17.6393 0 16.8604 0C16.0815 0 15.3133 0.182458 14.6176 0.532775L2.25597 7.65689C1.60059 8.08273 1.0548 8.65698 0.662843 9.33316C0.270887 10.0093 0.0438006 10.7684 0 11.5487V21.9446C0.464585 20.5982 1.30784 19.4144 2.42857 18.5353C3.5493 17.6562 4.89989 17.1192 6.31827 16.9886C7.73665 16.8581 9.16256 17.1397 10.4249 17.7995C11.6872 18.4593 12.7323 19.4694 13.4348 20.7085C14.1373 21.9475 14.4673 23.363 14.3853 24.785C14.3032 26.207 13.8126 27.5751 12.9722 28.7252C12.1319 29.8753 10.9775 30.7584 9.64765 31.2686C8.3178 31.7788 6.86897 31.8945 5.47501 31.6017L14.6044 36.8788C15.3002 37.2291 16.0683 37.4116 16.8472 37.4116C17.6262 37.4116 18.3943 37.2291 19.09 36.8788L31.4516 29.7415C32.1046 29.3142 32.6478 28.7393 33.0374 28.0632C33.427 27.3871 33.6521 26.6288 33.6944 25.8497V11.5619C33.6525 10.7842 33.429 10.027 33.0419 9.3512C32.6547 8.67536 32.1146 8.09959 31.4648 7.67006ZM22.9819 22.5119C21.517 22.5197 20.0827 22.0927 18.8606 21.2848C17.6386 20.4769 16.6838 19.3245 16.1172 17.9736C15.5506 16.6227 15.3976 15.134 15.6776 13.6961C15.9576 12.2582 16.6581 10.9358 17.6902 9.89622C18.7224 8.85666 20.0398 8.14679 21.4757 7.85651C22.9116 7.56622 24.4013 7.70859 25.7562 8.26556C27.1112 8.82253 28.2703 9.76906 29.0869 10.9853C29.9035 12.2015 30.3408 13.6327 30.3434 15.0976C30.347 17.0559 29.5742 18.9359 28.1944 20.3256C26.8145 21.7153 24.9402 22.5014 22.9819 22.5119Z" fill="#343433"/>
<path d="M39.1309 16.3243H38.4185V9.1474H39.1309V16.3243Z" fill="#343433"/>
<path d="M46.3091 15.4669L46.1771 9.13446H46.8763V16.3113H46.032L42.0742 9.97877L42.1533 16.3113H41.4541V9.13446H42.2984L46.3091 15.4669Z" fill="#343433"/>
<path d="M50.7647 16.3245H50.0655V9.84684H48.6274V9.13446H52.2027V9.84684H50.7647V16.3245Z" fill="#343433"/>
<path d="M54.5933 12.3533H57.6144V13.0657H54.5933V15.6251H57.6144V16.3243H53.894V9.1474H57.6276V9.85982H54.5933V12.3533Z" fill="#343433"/>
<path d="M60.4741 9.84718V16.3248H59.7749V9.14796H61.7011C62.0465 9.13754 62.392 9.16855 62.7301 9.24032C62.9811 9.30078 63.2183 9.4082 63.4293 9.55693C63.7226 9.76263 63.9586 10.0396 64.1153 10.3617C64.2807 10.6936 64.3666 11.0595 64.366 11.4303C64.38 11.9525 64.2069 12.4625 63.8779 12.8683C63.7288 13.059 63.5415 13.2162 63.3278 13.3298C63.1142 13.4435 62.8791 13.5109 62.6377 13.5279L64.3792 16.338H63.548L61.4108 12.8815H62.0968C62.504 12.9011 62.9024 12.7588 63.205 12.4857C63.3485 12.3565 63.4618 12.1974 63.537 12.0196C63.6123 11.8418 63.6475 11.6496 63.6404 11.4567C63.6418 11.2216 63.597 10.9885 63.5085 10.7707C63.4231 10.564 63.2924 10.3791 63.1259 10.2298C62.9801 10.096 62.8033 10.0008 62.6114 9.95274C62.2638 9.88576 61.9096 9.8592 61.5559 9.87359L60.4741 9.84718Z" fill="#343433"/>
<path d="M71.243 15.4669V9.13446H71.9423V16.3113H71.0979L67.1401 9.97877L67.2192 16.3113H66.52V9.13446H67.2852L71.243 15.4669Z" fill="#343433"/>
<path d="M74.1573 16.3243H73.4053L76.189 9.1474H77.0333L79.8038 16.3243H79.0518L78.2206 14.0287H75.0148L74.1573 16.3243ZM77.97 13.4219L76.6507 9.82024L75.3314 13.4219H77.97Z" fill="#343433"/>
<path d="M84.6458 16.3243H81.4136V9.1474H82.126V15.6383H84.6458V16.3243Z" fill="#343433"/>
<path d="M95.672 10.9948C95.3931 10.5855 95.0227 10.2468 94.5902 10.0053C94.1822 9.7956 93.7297 9.68698 93.2709 9.68867C92.8871 9.68401 92.5066 9.76034 92.1543 9.91264C91.8019 10.0649 91.4856 10.2898 91.2261 10.5726C90.95 10.8498 90.7319 11.1792 90.5847 11.5416C90.4374 11.9041 90.3639 12.2923 90.3685 12.6835C90.3492 13.4964 90.6528 14.2839 91.2129 14.8735C91.4727 15.1603 91.7906 15.3886 92.1455 15.5433C92.5003 15.698 92.8839 15.7754 93.2709 15.7706C93.7296 15.7712 94.1818 15.6627 94.5902 15.4539C95.0057 15.2327 95.3628 14.9162 95.6325 14.5304H96.4636C96.1615 15.1164 95.7054 15.609 95.1443 15.9552C94.43 16.3635 93.6011 16.5253 92.7856 16.4157C91.9701 16.306 91.2135 15.9309 90.6324 15.3484C90.2916 14.9996 90.0229 14.587 89.8418 14.1343C89.6607 13.6815 89.5707 13.1974 89.577 12.7098C89.5744 12.2157 89.6732 11.7263 89.8672 11.2718C90.0607 10.816 90.3433 10.4033 90.6984 10.0581C91.0258 9.72538 91.4159 9.46084 91.8461 9.2797C92.382 9.07004 92.9586 8.98485 93.5322 9.03056C94.1058 9.07627 94.6616 9.2517 95.1575 9.54357C95.7236 9.90681 96.1798 10.4177 96.4768 11.0212L95.672 10.9948Z" fill="#343433"/>
<path d="M98.3008 16.3243H97.5488L100.333 9.1474H101.177L103.947 16.3243H103.195L102.351 14.0287H99.1584L98.3008 16.3243ZM102.114 13.4219L100.794 9.82024L99.475 13.4219H102.114Z" fill="#343433"/>
<path d="M105.542 9.13489H106.862C107.495 9.0826 108.127 9.24529 108.656 9.59665C108.943 9.89392 109.133 10.2711 109.201 10.6785C109.269 11.0859 109.213 11.5044 109.039 11.879C108.901 12.1177 108.7 12.3139 108.458 12.4463C108.814 12.5715 109.12 12.809 109.329 13.1231C109.539 13.4372 109.64 13.8108 109.619 14.1877C109.645 14.4843 109.603 14.7828 109.498 15.0614C109.393 15.3399 109.227 15.5914 109.012 15.7972C108.458 16.1848 107.786 16.3668 107.112 16.3118H105.542V9.13489ZM106.215 9.8209V12.2352H106.637C107.143 12.2815 107.652 12.1807 108.102 11.945C108.245 11.8369 108.359 11.6944 108.433 11.5307C108.507 11.367 108.538 11.1873 108.524 11.0082C108.551 10.8358 108.534 10.6594 108.474 10.4956C108.414 10.3317 108.313 10.1858 108.181 10.0716C107.779 9.84849 107.319 9.75194 106.862 9.79453L106.215 9.8209ZM106.215 12.9212V15.6257H107.205C107.669 15.6685 108.134 15.5522 108.524 15.2959C108.659 15.1622 108.767 15.003 108.84 14.8275C108.913 14.652 108.951 14.4637 108.951 14.2735C108.951 14.0833 108.913 13.895 108.84 13.7195C108.767 13.544 108.659 13.3848 108.524 13.251C108.136 12.9892 107.671 12.8681 107.205 12.908L106.215 12.9212Z" fill="#343433"/>
<path d="M114.964 16.3243H111.732V9.1474H112.444V15.6383H114.964V16.3243Z" fill="#343433"/>
<path d="M117.418 12.3533H120.439V13.0657H117.418V15.6251H120.439V16.3243H116.771V9.1474H120.505V9.85982H117.418V12.3533Z" fill="#343433"/>
<path d="M39.1177 21.3768V27.8544H38.4185V20.6248H40.3446C40.6901 20.6143 41.0356 20.6453 41.3736 20.7172C41.6244 20.7782 41.8616 20.8856 42.0729 21.0338C42.3613 21.2411 42.5927 21.518 42.7457 21.8386C42.9116 22.1703 42.9974 22.5363 42.9964 22.9072C43.0067 23.431 42.8288 23.9412 42.495 24.3452C42.3466 24.5364 42.1593 24.6941 41.9456 24.8078C41.7319 24.9215 41.4965 24.9886 41.2549 25.0048L42.9964 27.8149H42.218L40.0808 24.3583H40.7668C41.1739 24.3779 41.5723 24.2356 41.875 23.9626C42.016 23.8321 42.1269 23.6725 42.1998 23.4947C42.2727 23.317 42.3059 23.1255 42.2971 22.9335C42.2985 22.6984 42.2537 22.4654 42.1652 22.2475C42.0787 22.0415 41.9481 21.8568 41.7826 21.7066C41.6366 21.5733 41.4598 21.4781 41.2681 21.4295C40.9205 21.3624 40.5664 21.3359 40.2127 21.3504L39.1177 21.3768Z" fill="#343433"/>
<path d="M44.6685 24.2267C44.6656 23.7325 44.7644 23.2431 44.9588 22.7887C45.1529 22.3332 45.4354 21.9206 45.7899 21.575C46.1207 21.2403 46.5154 20.9756 46.9505 20.7965C47.3857 20.6175 47.8524 20.5278 48.3229 20.5327C48.8018 20.5285 49.2769 20.6182 49.7214 20.7966C50.1611 20.9805 50.5602 21.2495 50.8955 21.5882C51.2475 21.9282 51.5259 22.3368 51.7135 22.7887C51.9002 23.245 51.9944 23.7338 51.9905 24.2267C51.9948 24.7032 51.9144 25.1767 51.7531 25.6251C51.5919 26.0541 51.3501 26.4482 51.0406 26.7861C50.6949 27.1723 50.2726 27.4823 49.8005 27.6964C49.3261 27.902 48.8136 28.0054 48.2965 27.9998C47.8052 28.0167 47.3159 27.929 46.861 27.7425C46.4061 27.556 45.996 27.275 45.658 26.918C45.3232 26.5572 45.0634 26.1335 44.8935 25.6715C44.7237 25.2095 44.6472 24.7185 44.6685 24.2267ZM45.4073 24.2267C45.3963 24.6326 45.4665 25.0365 45.6137 25.4148C45.761 25.7932 45.9824 26.1383 46.2649 26.4299C46.5345 26.7177 46.8619 26.9453 47.2257 27.0976C47.5895 27.2499 47.9814 27.3236 48.3757 27.3138C48.7651 27.3214 49.1515 27.2452 49.5089 27.0904C49.8662 26.9357 50.1862 26.7059 50.447 26.4167C51.0111 25.819 51.3148 25.0218 51.2913 24.2003C51.2964 23.8079 51.2219 23.4185 51.0722 23.0557C50.9226 22.6929 50.7009 22.3642 50.4206 22.0895C50.1514 21.8046 49.8259 21.5789 49.4648 21.4268C49.1036 21.2746 48.7148 21.1992 48.3229 21.2056C47.9943 21.2052 47.6682 21.2632 47.3599 21.3771C47.0511 21.4931 46.7652 21.6628 46.5155 21.8784C46.1742 22.168 45.8997 22.528 45.7108 22.9338C45.515 23.3369 45.4113 23.7786 45.4073 24.2267Z" fill="#343433"/>
<path d="M53.9341 20.6253H54.6465V25.1636C54.6275 25.4271 54.6275 25.6916 54.6465 25.9551C54.6722 26.1153 54.7211 26.2708 54.7916 26.4169C54.9146 26.679 55.1118 26.8992 55.3589 27.0501C55.6114 27.2093 55.9047 27.2917 56.2032 27.2876C56.4344 27.309 56.6671 27.2691 56.8779 27.1718C57.0887 27.0745 57.2701 26.9233 57.4038 26.7335C57.6984 26.2124 57.8316 25.6154 57.7863 25.0184V20.6253H58.4856V25.19C58.5418 25.9274 58.3465 26.6622 57.9315 27.2744C57.7222 27.5116 57.4608 27.6969 57.1678 27.816C56.8748 27.935 56.5581 27.9844 56.2428 27.9604C55.9145 27.9886 55.5841 27.9427 55.2758 27.8263C54.9676 27.7099 54.6894 27.5258 54.4618 27.2876C54.0342 26.6757 53.8336 25.9339 53.8945 25.19L53.9341 20.6253Z" fill="#343433"/>
<path d="M62.2827 27.8549H61.5835V21.3773H60.1455V20.6253H63.7208V21.3377H62.2827V27.8549Z" fill="#343433"/>
<path d="M66.1094 27.8549H65.397V20.6253H66.1094V27.8549Z" fill="#343433"/>
<path d="M73.2866 26.9974L73.2074 20.6253H73.8803V27.8021H73.0359L69.0781 21.4697L69.1572 27.8021H68.458V20.6253H69.3023L73.2866 26.9974Z" fill="#343433"/>
<path d="M78.7847 24.4116H83.2439C83.2297 25.4066 82.8217 26.3554 82.1093 27.0502C81.7712 27.3797 81.3706 27.6382 80.931 27.8104C80.4914 27.9826 80.0218 28.065 79.5499 28.0528C79.0585 28.0697 78.5692 27.982 78.1143 27.7955C77.6594 27.609 77.2494 27.328 76.9113 26.971C76.229 26.2637 75.8543 25.3151 75.8691 24.3325C75.8665 23.8383 75.9653 23.3489 76.1593 22.8945C76.3528 22.4386 76.6354 22.0259 76.9905 21.6807C77.3252 21.3446 77.7246 21.0798 78.1646 20.9024C78.6236 20.7279 79.1117 20.6428 79.6026 20.6517C80.2615 20.6416 80.9102 20.8152 81.476 21.153C82.0376 21.5044 82.4935 22.0013 82.7953 22.591H81.9246C81.6338 22.2028 81.2654 21.8793 80.8428 21.6411C80.4358 21.4298 79.9819 21.3254 79.5235 21.3377C79.1315 21.3306 78.7424 21.4055 78.3811 21.5578C78.0199 21.71 77.6945 21.9361 77.4258 22.2216C77.1487 22.5008 76.9301 22.8325 76.7829 23.1972C76.6356 23.5619 76.5627 23.9524 76.5683 24.3457C76.5573 24.7515 76.6274 25.1555 76.7747 25.5338C76.922 25.9122 77.1433 26.2572 77.4258 26.5488C77.696 26.836 78.0235 27.0631 78.3872 27.2154C78.7509 27.3677 79.1425 27.4418 79.5367 27.4328C80.1823 27.4373 80.8086 27.2129 81.3045 26.7995C81.8202 26.3864 82.1788 25.809 82.3204 25.1636H78.7847V24.4116Z" fill="#343433"/>
</svg>
