<svg width="93" height="39" viewBox="0 0 93 39" fill="none" xmlns="http://www.w3.org/2000/svg">
<path d="M21.7742 7.11347C20.7759 5.65239 19.4528 4.44225 17.9087 3.57782C16.4043 2.80424 14.732 2.41449 13.0406 2.44325C11.6652 2.42908 10.3024 2.70491 9.04076 3.25274C7.77916 3.80056 6.64717 4.6081 5.71857 5.6227C4.73484 6.61781 3.95881 7.79859 3.43562 9.09637C2.91243 10.3941 2.65253 11.783 2.67103 13.1821C2.62678 14.6368 2.87226 16.0858 3.39319 17.4447C3.91411 18.8037 4.70009 20.0454 5.70537 21.0978C6.63365 22.1208 7.76898 22.9346 9.03595 23.485C10.3029 24.0355 11.6725 24.31 13.0538 24.2904C14.7293 24.3176 16.3863 23.9373 17.8823 23.1822C19.3782 22.3882 20.6627 21.2484 21.6291 19.8577H24.5711C23.4887 21.9493 21.8556 23.7056 19.8481 24.9369C17.855 26.1262 15.5724 26.7425 13.2517 26.7179C11.4931 26.7651 9.74386 26.4458 8.11535 25.7804C6.48684 25.1149 5.01465 24.1178 3.79242 22.8524C2.54153 21.5821 1.56109 20.0714 0.910322 18.4116C0.25955 16.7518 -0.0480548 14.9773 0.00608481 13.1953C-0.0029025 11.4325 0.347226 9.6864 1.03512 8.06335C1.7346 6.42781 2.75264 4.94787 4.02989 3.70976C5.19897 2.52784 6.58843 1.58659 8.11966 0.939275C9.69506 0.302465 11.381 -0.0159023 13.0802 0.00258065C15.5045 -0.0333048 17.8903 0.611141 19.9668 1.86276C22.0364 3.14171 23.7121 4.96804 24.8086 7.13986L21.7742 7.11347Z" fill="#343433"/>
<path d="M27.2098 2.99703V26.1635H24.6899V0.464029H31.5898C32.8216 0.431178 34.053 0.546332 35.2574 0.807033C36.1569 1.02403 37.0073 1.40897 37.764 1.94161C38.8135 2.70189 39.6495 3.71964 40.1915 4.89679C40.7793 6.08142 41.082 7.38707 41.0754 8.70949C41.1175 10.5763 40.4904 12.3966 39.3076 13.8415C38.7727 14.5229 38.1004 15.0841 37.3344 15.4887C36.5685 15.8933 35.7259 16.1321 34.8616 16.1898L41.0754 26.2295H38.0938L30.4684 13.8415H32.9091C34.3648 13.9081 35.7877 13.3959 36.8669 12.4167C37.369 11.95 37.7653 11.3812 38.0293 10.7486C38.2932 10.116 38.4187 9.43421 38.3973 8.74907C38.4039 7.90339 38.2424 7.06482 37.9223 6.28203C37.6309 5.54627 37.1803 4.88402 36.603 4.3427C36.0814 3.87143 35.4515 3.53609 34.7692 3.36643C33.5183 3.12248 32.2432 3.02507 30.9697 3.07619L27.2098 2.99703Z" fill="#343433"/>
<path d="M41.0879 26.1632V0.463745H44.8083L53.7002 22.8122L62.5658 0.463745H66.2993V26.1632H63.8719V3.47169L54.8348 26.1764H52.5524L43.5154 3.47169V26.1764L41.0879 26.1632Z" fill="#343433"/>
<path d="M66.3007 13.1687C66.2948 11.4049 66.6494 9.65851 67.3429 8.03674C68.0403 6.40333 69.0536 4.9238 70.3245 3.68313C71.5199 2.50908 72.931 1.57727 74.4802 0.939041C76.0428 0.305688 77.7152 -0.0126469 79.4011 0.00234789C81.1151 -0.0307095 82.8178 0.285613 84.4055 0.932036C85.9932 1.57846 87.4327 2.54145 88.6361 3.76229C89.905 4.97869 90.9108 6.44247 91.5913 8.06311C92.2594 9.69548 92.5958 11.4446 92.5808 13.2083C92.6014 14.9207 92.3155 16.623 91.7364 18.2347C91.1639 19.7496 90.3088 21.142 89.2166 22.3377C87.9949 23.7283 86.4855 24.8368 84.793 25.5862C83.1004 26.3357 81.2652 26.7082 79.4143 26.6781C77.689 26.7076 75.9764 26.3767 74.3862 25.7065C72.796 25.0364 71.3632 24.0417 70.1794 22.7862C68.9223 21.5242 67.9312 20.0227 67.265 18.3707C66.5987 16.7187 66.2708 14.9498 66.3007 13.1687ZM68.9393 13.1687C68.8945 14.6246 69.1411 16.0747 69.6644 17.434C70.1877 18.7933 70.9773 20.0344 71.9868 21.0844C72.9491 22.1132 74.1172 22.9279 75.415 23.4757C76.7129 24.0235 78.1115 24.292 79.5199 24.2638C80.9098 24.2857 82.2882 24.0098 83.5626 23.4545C84.8369 22.8993 85.9776 22.0776 86.9079 21.0448C88.9163 18.9069 89.9976 16.0613 89.9158 13.1291C89.9354 11.7271 89.6707 10.3357 89.1379 9.03874C88.6051 7.74179 87.815 6.56621 86.8155 5.58289C85.856 4.56573 84.6956 3.75904 83.4079 3.21399C82.1203 2.66894 80.7333 2.3974 79.3352 2.41662C78.165 2.41531 77.0038 2.62076 75.9051 3.0235C74.7918 3.43804 73.7602 4.04538 72.8575 4.81771C71.6308 5.86018 70.645 7.15654 69.9683 8.61722C69.2978 10.0501 68.951 11.6131 68.9525 13.1951L68.9393 13.1687Z" fill="#343433"/>
<path d="M28.6347 38.2081H27.9355V36.8228H24.5713V36.2028L27.8299 31.0312H28.6347V36.2028H29.413V36.8228H28.6347V38.2081ZM27.9618 36.1896V31.8491L25.3233 36.1896H27.9618Z" fill="#343433"/>
<path d="M47.2741 36.0183C47.2592 36.4517 47.4156 36.8735 47.7094 37.1924C47.8473 37.3454 48.0164 37.4669 48.2053 37.5489C48.3942 37.6308 48.5985 37.6712 48.8044 37.6674C49.0193 37.6747 49.2335 37.6375 49.4333 37.5581C49.6331 37.4786 49.8143 37.3586 49.9654 37.2056C50.1179 37.0487 50.2373 36.8627 50.3166 36.6587C50.3959 36.4548 50.4335 36.237 50.4271 36.0183C50.4437 35.7862 50.4085 35.5534 50.3241 35.3367C50.2397 35.1199 50.1081 34.9247 49.939 34.765C49.5361 34.456 49.0338 34.3058 48.5274 34.3428H48.1976V33.7491H48.5142C48.8931 33.7773 49.2702 33.6749 49.5828 33.4589C49.7065 33.3492 49.8031 33.2122 49.8649 33.0588C49.9267 32.9055 49.9521 32.7398 49.939 32.575C49.9515 32.2687 49.8425 31.97 49.6356 31.7438C49.5386 31.6379 49.4203 31.5537 49.2884 31.4969C49.1565 31.44 49.014 31.4118 48.8704 31.414C48.7173 31.4049 48.5641 31.4284 48.4208 31.483C48.2775 31.5376 48.1474 31.622 48.0393 31.7306C47.8258 31.9799 47.7129 32.2997 47.7226 32.6278H46.997C47.0046 32.1355 47.1978 31.6643 47.5379 31.3085C47.7123 31.1405 47.9195 31.0104 48.1465 30.9264C48.3736 30.8424 48.6155 30.8063 48.8572 30.8203C49.0913 30.8166 49.3236 30.8616 49.5393 30.9525C49.7551 31.0433 49.9496 31.178 50.1105 31.3481C50.2763 31.5115 50.4073 31.7068 50.4957 31.9222C50.5841 32.1375 50.6281 32.3686 50.625 32.6014C50.6302 32.8623 50.5713 33.1205 50.4535 33.3534C50.3248 33.585 50.1442 33.7837 49.9258 33.9338C50.2911 34.1185 50.5973 34.4019 50.8097 34.7518C51.0142 35.1228 51.1145 35.5422 51.1 35.9655C51.1079 36.2747 51.0536 36.5824 50.9402 36.8702C50.8269 37.158 50.6569 37.4201 50.4403 37.641C50.2279 37.8624 49.9714 38.0367 49.6873 38.1526C49.4032 38.2685 49.0979 38.3234 48.7912 38.3138C48.4865 38.3297 48.1817 38.2829 47.8958 38.1762C47.6098 38.0696 47.3488 37.9054 47.1289 37.6937C46.7007 37.2328 46.473 36.6207 46.4957 35.9919L47.2741 36.0183Z" fill="#343433"/>
<path d="M59.0321 34.5679C59.0299 34.0738 59.1287 33.5845 59.3223 33.1299C59.5161 32.6742 59.7987 32.2616 60.1535 31.9162C60.4868 31.5844 60.881 31.3202 61.3144 31.1378C61.7335 30.9672 62.1812 30.8776 62.6337 30.874C63.3596 30.8754 64.0691 31.09 64.6742 31.491C65.2793 31.8921 65.7533 32.4619 66.0375 33.1299C66.2245 33.5861 66.3187 34.0749 66.3145 34.5679C66.3198 35.0488 66.2394 35.5268 66.077 35.9795C65.915 36.408 65.6733 36.802 65.3646 37.1405C65.0219 37.5289 64.5992 37.8384 64.1255 38.048C63.6518 38.2575 63.1384 38.362 62.6205 38.3542C62.1282 38.3695 61.6383 38.2797 61.1833 38.0909C60.7284 37.9021 60.3188 37.6186 59.982 37.2592C59.3214 36.5233 58.9798 35.5554 59.0321 34.5679ZM59.7709 34.5679C59.7606 34.9737 59.8311 35.3774 59.9783 35.7557C60.1256 36.1339 60.3465 36.4791 60.6284 36.7711C60.8986 37.0583 61.2261 37.2854 61.5898 37.4377C61.9535 37.59 62.3451 37.664 62.7393 37.655C63.1285 37.6618 63.5147 37.5852 63.8719 37.4305C64.2292 37.2758 64.5492 37.0464 64.8105 36.7579C65.3746 36.1602 65.6783 35.363 65.6549 34.5415C65.6592 34.1492 65.5844 33.76 65.4347 33.3973C65.2851 33.0346 65.0638 32.7059 64.7842 32.4307C64.515 32.1458 64.1895 31.9202 63.8284 31.768C63.4672 31.6158 63.0783 31.5405 62.6865 31.5468C62.3578 31.5458 62.0316 31.6039 61.7234 31.7183C61.4103 31.8337 61.12 32.0034 60.8659 32.2196C60.5227 32.5127 60.248 32.8775 60.0611 33.2882C59.8691 33.6921 59.7699 34.1339 59.7709 34.5811V34.5679Z" fill="#343433"/>
<path d="M37.3003 31.6384H37.9204V38.2084H38.6723V31.0184H37.6961L37.3003 31.6384Z" fill="#343433"/>
</svg>
